G04 #@! TF.FileFunction,Legend,Top*
%FSLAX46Y46*%
G04 Gerber Fmt 4.6, Leading zero omitted, Abs format (unit mm)*
G04 Created by KiCad (PCBNEW (2015-09-20 BZR 6203, Git 66a9b04)-product) date Sat 13 Feb 2016 19:56:21 GMT*
%MOMM*%
G01*
G04 APERTURE LIST*
%ADD10C,0.100000*%
%ADD11C,0.300000*%
%ADD12C,0.150000*%
G04 APERTURE END LIST*
D10*
X177166667Y-87428574D02*
X177166667Y-86952383D01*
X177452381Y-87523812D02*
X176452381Y-87190479D01*
X177452381Y-86857145D01*
X176976190Y-86333336D02*
X177452381Y-86333336D01*
X176452381Y-86666669D02*
X176976190Y-86333336D01*
X176452381Y-86000002D01*
X177452381Y-85666669D02*
X176452381Y-85666669D01*
X176452381Y-85428574D01*
X176500000Y-85285716D01*
X176595238Y-85190478D01*
X176690476Y-85142859D01*
X176880952Y-85095240D01*
X177023810Y-85095240D01*
X177214286Y-85142859D01*
X177309524Y-85190478D01*
X177404762Y-85285716D01*
X177452381Y-85428574D01*
X177452381Y-85666669D01*
X177452381Y-84666669D02*
X176452381Y-84666669D01*
X176452381Y-84285716D01*
X176500000Y-84190478D01*
X176547619Y-84142859D01*
X176642857Y-84095240D01*
X176785714Y-84095240D01*
X176880952Y-84142859D01*
X176928571Y-84190478D01*
X176976190Y-84285716D01*
X176976190Y-84666669D01*
X176452381Y-83047621D02*
X177452381Y-82714288D01*
X176452381Y-82380954D01*
X177404762Y-81666668D02*
X177452381Y-81761906D01*
X177452381Y-81952383D01*
X177404762Y-82047621D01*
X177309524Y-82095240D01*
X176928571Y-82095240D01*
X176833333Y-82047621D01*
X176785714Y-81952383D01*
X176785714Y-81761906D01*
X176833333Y-81666668D01*
X176928571Y-81619049D01*
X177023810Y-81619049D01*
X177119048Y-82095240D01*
X177404762Y-81238097D02*
X177452381Y-81142859D01*
X177452381Y-80952383D01*
X177404762Y-80857144D01*
X177309524Y-80809525D01*
X177261905Y-80809525D01*
X177166667Y-80857144D01*
X177119048Y-80952383D01*
X177119048Y-81095240D01*
X177071429Y-81190478D01*
X176976190Y-81238097D01*
X176928571Y-81238097D01*
X176833333Y-81190478D01*
X176785714Y-81095240D01*
X176785714Y-80952383D01*
X176833333Y-80857144D01*
X177404762Y-80428573D02*
X177452381Y-80333335D01*
X177452381Y-80142859D01*
X177404762Y-80047620D01*
X177309524Y-80000001D01*
X177261905Y-80000001D01*
X177166667Y-80047620D01*
X177119048Y-80142859D01*
X177119048Y-80285716D01*
X177071429Y-80380954D01*
X176976190Y-80428573D01*
X176928571Y-80428573D01*
X176833333Y-80380954D01*
X176785714Y-80285716D01*
X176785714Y-80142859D01*
X176833333Y-80047620D01*
X177404762Y-79190477D02*
X177452381Y-79285715D01*
X177452381Y-79476192D01*
X177404762Y-79571430D01*
X177309524Y-79619049D01*
X176928571Y-79619049D01*
X176833333Y-79571430D01*
X176785714Y-79476192D01*
X176785714Y-79285715D01*
X176833333Y-79190477D01*
X176928571Y-79142858D01*
X177023810Y-79142858D01*
X177119048Y-79619049D01*
X177452381Y-78571430D02*
X177404762Y-78666668D01*
X177309524Y-78714287D01*
X176452381Y-78714287D01*
X177452381Y-77428572D02*
X176452381Y-77428572D01*
X176928571Y-77428572D02*
X176928571Y-76857143D01*
X177452381Y-76857143D02*
X176452381Y-76857143D01*
X177452381Y-75952381D02*
X176928571Y-75952381D01*
X176833333Y-76000000D01*
X176785714Y-76095238D01*
X176785714Y-76285715D01*
X176833333Y-76380953D01*
X177404762Y-75952381D02*
X177452381Y-76047619D01*
X177452381Y-76285715D01*
X177404762Y-76380953D01*
X177309524Y-76428572D01*
X177214286Y-76428572D01*
X177119048Y-76380953D01*
X177071429Y-76285715D01*
X177071429Y-76047619D01*
X177023810Y-75952381D01*
X177452381Y-75476191D02*
X176785714Y-75476191D01*
X176976190Y-75476191D02*
X176880952Y-75428572D01*
X176833333Y-75380953D01*
X176785714Y-75285715D01*
X176785714Y-75190476D01*
X177452381Y-74428571D02*
X176452381Y-74428571D01*
X177404762Y-74428571D02*
X177452381Y-74523809D01*
X177452381Y-74714286D01*
X177404762Y-74809524D01*
X177357143Y-74857143D01*
X177261905Y-74904762D01*
X176976190Y-74904762D01*
X176880952Y-74857143D01*
X176833333Y-74809524D01*
X176785714Y-74714286D01*
X176785714Y-74523809D01*
X176833333Y-74428571D01*
X176785714Y-74047619D02*
X177452381Y-73857143D01*
X176976190Y-73666666D01*
X177452381Y-73476190D01*
X176785714Y-73285714D01*
X177452381Y-72476190D02*
X176928571Y-72476190D01*
X176833333Y-72523809D01*
X176785714Y-72619047D01*
X176785714Y-72809524D01*
X176833333Y-72904762D01*
X177404762Y-72476190D02*
X177452381Y-72571428D01*
X177452381Y-72809524D01*
X177404762Y-72904762D01*
X177309524Y-72952381D01*
X177214286Y-72952381D01*
X177119048Y-72904762D01*
X177071429Y-72809524D01*
X177071429Y-72571428D01*
X177023810Y-72476190D01*
X177452381Y-72000000D02*
X176785714Y-72000000D01*
X176976190Y-72000000D02*
X176880952Y-71952381D01*
X176833333Y-71904762D01*
X176785714Y-71809524D01*
X176785714Y-71714285D01*
X177404762Y-70999999D02*
X177452381Y-71095237D01*
X177452381Y-71285714D01*
X177404762Y-71380952D01*
X177309524Y-71428571D01*
X176928571Y-71428571D01*
X176833333Y-71380952D01*
X176785714Y-71285714D01*
X176785714Y-71095237D01*
X176833333Y-70999999D01*
X176928571Y-70952380D01*
X177023810Y-70952380D01*
X177119048Y-71428571D01*
X177452381Y-69761904D02*
X176452381Y-69761904D01*
X176785714Y-69285714D02*
X177452381Y-69285714D01*
X176880952Y-69285714D02*
X176833333Y-69238095D01*
X176785714Y-69142857D01*
X176785714Y-68999999D01*
X176833333Y-68904761D01*
X176928571Y-68857142D01*
X177452381Y-68857142D01*
X176785714Y-68523809D02*
X176785714Y-68142857D01*
X176452381Y-68380952D02*
X177309524Y-68380952D01*
X177404762Y-68333333D01*
X177452381Y-68238095D01*
X177452381Y-68142857D01*
X177404762Y-67428570D02*
X177452381Y-67523808D01*
X177452381Y-67714285D01*
X177404762Y-67809523D01*
X177309524Y-67857142D01*
X176928571Y-67857142D01*
X176833333Y-67809523D01*
X176785714Y-67714285D01*
X176785714Y-67523808D01*
X176833333Y-67428570D01*
X176928571Y-67380951D01*
X177023810Y-67380951D01*
X177119048Y-67857142D01*
X177452381Y-66952380D02*
X176785714Y-66952380D01*
X176976190Y-66952380D02*
X176880952Y-66904761D01*
X176833333Y-66857142D01*
X176785714Y-66761904D01*
X176785714Y-66666665D01*
X176785714Y-66476189D02*
X176785714Y-66095237D01*
X177452381Y-66333332D02*
X176595238Y-66333332D01*
X176500000Y-66285713D01*
X176452381Y-66190475D01*
X176452381Y-66095237D01*
X177452381Y-65333331D02*
X176928571Y-65333331D01*
X176833333Y-65380950D01*
X176785714Y-65476188D01*
X176785714Y-65666665D01*
X176833333Y-65761903D01*
X177404762Y-65333331D02*
X177452381Y-65428569D01*
X177452381Y-65666665D01*
X177404762Y-65761903D01*
X177309524Y-65809522D01*
X177214286Y-65809522D01*
X177119048Y-65761903D01*
X177071429Y-65666665D01*
X177071429Y-65428569D01*
X177023810Y-65333331D01*
X177404762Y-64428569D02*
X177452381Y-64523807D01*
X177452381Y-64714284D01*
X177404762Y-64809522D01*
X177357143Y-64857141D01*
X177261905Y-64904760D01*
X176976190Y-64904760D01*
X176880952Y-64857141D01*
X176833333Y-64809522D01*
X176785714Y-64714284D01*
X176785714Y-64523807D01*
X176833333Y-64428569D01*
X177404762Y-63619045D02*
X177452381Y-63714283D01*
X177452381Y-63904760D01*
X177404762Y-63999998D01*
X177309524Y-64047617D01*
X176928571Y-64047617D01*
X176833333Y-63999998D01*
X176785714Y-63904760D01*
X176785714Y-63714283D01*
X176833333Y-63619045D01*
X176928571Y-63571426D01*
X177023810Y-63571426D01*
X177119048Y-64047617D01*
X178285714Y-78023809D02*
X178952381Y-77785714D01*
X178285714Y-77547618D01*
X178952381Y-76642856D02*
X178952381Y-77214285D01*
X178952381Y-76928571D02*
X177952381Y-76928571D01*
X178095238Y-77023809D01*
X178190476Y-77119047D01*
X178238095Y-77214285D01*
X178857143Y-76214285D02*
X178904762Y-76166666D01*
X178952381Y-76214285D01*
X178904762Y-76261904D01*
X178857143Y-76214285D01*
X178952381Y-76214285D01*
X177952381Y-75547619D02*
X177952381Y-75452380D01*
X178000000Y-75357142D01*
X178047619Y-75309523D01*
X178142857Y-75261904D01*
X178333333Y-75214285D01*
X178571429Y-75214285D01*
X178761905Y-75261904D01*
X178857143Y-75309523D01*
X178904762Y-75357142D01*
X178952381Y-75452380D01*
X178952381Y-75547619D01*
X178904762Y-75642857D01*
X178857143Y-75690476D01*
X178761905Y-75738095D01*
X178571429Y-75785714D01*
X178333333Y-75785714D01*
X178142857Y-75738095D01*
X178047619Y-75690476D01*
X178000000Y-75642857D01*
X177952381Y-75547619D01*
X178571429Y-74785714D02*
X178571429Y-74023809D01*
X177952381Y-73357143D02*
X177952381Y-73261904D01*
X178000000Y-73166666D01*
X178047619Y-73119047D01*
X178142857Y-73071428D01*
X178333333Y-73023809D01*
X178571429Y-73023809D01*
X178761905Y-73071428D01*
X178857143Y-73119047D01*
X178904762Y-73166666D01*
X178952381Y-73261904D01*
X178952381Y-73357143D01*
X178904762Y-73452381D01*
X178857143Y-73500000D01*
X178761905Y-73547619D01*
X178571429Y-73595238D01*
X178333333Y-73595238D01*
X178142857Y-73547619D01*
X178047619Y-73500000D01*
X178000000Y-73452381D01*
X177952381Y-73357143D01*
X179452381Y-86738097D02*
X179452381Y-86166668D01*
X180452381Y-86452383D02*
X179452381Y-86452383D01*
X180452381Y-85833335D02*
X179785714Y-85833335D01*
X179452381Y-85833335D02*
X179500000Y-85880954D01*
X179547619Y-85833335D01*
X179500000Y-85785716D01*
X179452381Y-85833335D01*
X179547619Y-85833335D01*
X180452381Y-85357145D02*
X179785714Y-85357145D01*
X179880952Y-85357145D02*
X179833333Y-85309526D01*
X179785714Y-85214288D01*
X179785714Y-85071430D01*
X179833333Y-84976192D01*
X179928571Y-84928573D01*
X180452381Y-84928573D01*
X179928571Y-84928573D02*
X179833333Y-84880954D01*
X179785714Y-84785716D01*
X179785714Y-84642859D01*
X179833333Y-84547621D01*
X179928571Y-84500002D01*
X180452381Y-84500002D01*
X179928571Y-82928573D02*
X179976190Y-82785716D01*
X180023810Y-82738097D01*
X180119048Y-82690478D01*
X180261905Y-82690478D01*
X180357143Y-82738097D01*
X180404762Y-82785716D01*
X180452381Y-82880954D01*
X180452381Y-83261907D01*
X179452381Y-83261907D01*
X179452381Y-82928573D01*
X179500000Y-82833335D01*
X179547619Y-82785716D01*
X179642857Y-82738097D01*
X179738095Y-82738097D01*
X179833333Y-82785716D01*
X179880952Y-82833335D01*
X179928571Y-82928573D01*
X179928571Y-83261907D01*
X180452381Y-82261907D02*
X179785714Y-82261907D01*
X179976190Y-82261907D02*
X179880952Y-82214288D01*
X179833333Y-82166669D01*
X179785714Y-82071431D01*
X179785714Y-81976192D01*
X180452381Y-81500002D02*
X180404762Y-81595240D01*
X180357143Y-81642859D01*
X180261905Y-81690478D01*
X179976190Y-81690478D01*
X179880952Y-81642859D01*
X179833333Y-81595240D01*
X179785714Y-81500002D01*
X179785714Y-81357144D01*
X179833333Y-81261906D01*
X179880952Y-81214287D01*
X179976190Y-81166668D01*
X180261905Y-81166668D01*
X180357143Y-81214287D01*
X180404762Y-81261906D01*
X180452381Y-81357144D01*
X180452381Y-81500002D01*
X180404762Y-80309525D02*
X180452381Y-80404763D01*
X180452381Y-80595240D01*
X180404762Y-80690478D01*
X180357143Y-80738097D01*
X180261905Y-80785716D01*
X179976190Y-80785716D01*
X179880952Y-80738097D01*
X179833333Y-80690478D01*
X179785714Y-80595240D01*
X179785714Y-80404763D01*
X179833333Y-80309525D01*
X180452381Y-79880954D02*
X179452381Y-79880954D01*
X180071429Y-79785716D02*
X180452381Y-79500001D01*
X179785714Y-79500001D02*
X180166667Y-79880954D01*
X180452381Y-78928573D02*
X180404762Y-79023811D01*
X180309524Y-79071430D01*
X179452381Y-79071430D01*
X180404762Y-78166667D02*
X180452381Y-78261905D01*
X180452381Y-78452382D01*
X180404762Y-78547620D01*
X180309524Y-78595239D01*
X179928571Y-78595239D01*
X179833333Y-78547620D01*
X179785714Y-78452382D01*
X179785714Y-78261905D01*
X179833333Y-78166667D01*
X179928571Y-78119048D01*
X180023810Y-78119048D01*
X180119048Y-78595239D01*
X180452381Y-77690477D02*
X179452381Y-77690477D01*
X180452381Y-77261905D02*
X179928571Y-77261905D01*
X179833333Y-77309524D01*
X179785714Y-77404762D01*
X179785714Y-77547620D01*
X179833333Y-77642858D01*
X179880952Y-77690477D01*
X179785714Y-76357143D02*
X180452381Y-76357143D01*
X179785714Y-76785715D02*
X180309524Y-76785715D01*
X180404762Y-76738096D01*
X180452381Y-76642858D01*
X180452381Y-76500000D01*
X180404762Y-76404762D01*
X180357143Y-76357143D01*
X180452381Y-75880953D02*
X179785714Y-75880953D01*
X179976190Y-75880953D02*
X179880952Y-75833334D01*
X179833333Y-75785715D01*
X179785714Y-75690477D01*
X179785714Y-75595238D01*
X180404762Y-75309524D02*
X180452381Y-75214286D01*
X180452381Y-75023810D01*
X180404762Y-74928571D01*
X180309524Y-74880952D01*
X180261905Y-74880952D01*
X180166667Y-74928571D01*
X180119048Y-75023810D01*
X180119048Y-75166667D01*
X180071429Y-75261905D01*
X179976190Y-75309524D01*
X179928571Y-75309524D01*
X179833333Y-75261905D01*
X179785714Y-75166667D01*
X179785714Y-75023810D01*
X179833333Y-74928571D01*
X179785714Y-74595238D02*
X179785714Y-74214286D01*
X179452381Y-74452381D02*
X180309524Y-74452381D01*
X180404762Y-74404762D01*
X180452381Y-74309524D01*
X180452381Y-74214286D01*
X180071429Y-73119047D02*
X180071429Y-72357142D01*
X179928571Y-70785713D02*
X179928571Y-71119047D01*
X180452381Y-71119047D02*
X179452381Y-71119047D01*
X179452381Y-70642856D01*
X180404762Y-69880951D02*
X180452381Y-69976189D01*
X180452381Y-70166666D01*
X180404762Y-70261904D01*
X180309524Y-70309523D01*
X179928571Y-70309523D01*
X179833333Y-70261904D01*
X179785714Y-70166666D01*
X179785714Y-69976189D01*
X179833333Y-69880951D01*
X179928571Y-69833332D01*
X180023810Y-69833332D01*
X180119048Y-70309523D01*
X180452381Y-69404761D02*
X179452381Y-69404761D01*
X179833333Y-69404761D02*
X179785714Y-69309523D01*
X179785714Y-69119046D01*
X179833333Y-69023808D01*
X179880952Y-68976189D01*
X179976190Y-68928570D01*
X180261905Y-68928570D01*
X180357143Y-68976189D01*
X180404762Y-69023808D01*
X180452381Y-69119046D01*
X180452381Y-69309523D01*
X180404762Y-69404761D01*
X179547619Y-67785713D02*
X179500000Y-67738094D01*
X179452381Y-67642856D01*
X179452381Y-67404760D01*
X179500000Y-67309522D01*
X179547619Y-67261903D01*
X179642857Y-67214284D01*
X179738095Y-67214284D01*
X179880952Y-67261903D01*
X180452381Y-67833332D01*
X180452381Y-67214284D01*
X179452381Y-66595237D02*
X179452381Y-66499998D01*
X179500000Y-66404760D01*
X179547619Y-66357141D01*
X179642857Y-66309522D01*
X179833333Y-66261903D01*
X180071429Y-66261903D01*
X180261905Y-66309522D01*
X180357143Y-66357141D01*
X180404762Y-66404760D01*
X180452381Y-66499998D01*
X180452381Y-66595237D01*
X180404762Y-66690475D01*
X180357143Y-66738094D01*
X180261905Y-66785713D01*
X180071429Y-66833332D01*
X179833333Y-66833332D01*
X179642857Y-66785713D01*
X179547619Y-66738094D01*
X179500000Y-66690475D01*
X179452381Y-66595237D01*
X180452381Y-65309522D02*
X180452381Y-65880951D01*
X180452381Y-65595237D02*
X179452381Y-65595237D01*
X179595238Y-65690475D01*
X179690476Y-65785713D01*
X179738095Y-65880951D01*
X179452381Y-64452379D02*
X179452381Y-64642856D01*
X179500000Y-64738094D01*
X179547619Y-64785713D01*
X179690476Y-64880951D01*
X179880952Y-64928570D01*
X180261905Y-64928570D01*
X180357143Y-64880951D01*
X180404762Y-64833332D01*
X180452381Y-64738094D01*
X180452381Y-64547617D01*
X180404762Y-64452379D01*
X180357143Y-64404760D01*
X180261905Y-64357141D01*
X180023810Y-64357141D01*
X179928571Y-64404760D01*
X179880952Y-64452379D01*
X179833333Y-64547617D01*
X179833333Y-64738094D01*
X179880952Y-64833332D01*
X179928571Y-64880951D01*
X180023810Y-64928570D01*
D11*
X141607143Y-54678571D02*
X141607143Y-53178571D01*
X142178571Y-53178571D01*
X142321429Y-53250000D01*
X142392857Y-53321429D01*
X142464286Y-53464286D01*
X142464286Y-53678571D01*
X142392857Y-53821429D01*
X142321429Y-53892857D01*
X142178571Y-53964286D01*
X141607143Y-53964286D01*
X143035714Y-54607143D02*
X143250000Y-54678571D01*
X143607143Y-54678571D01*
X143750000Y-54607143D01*
X143821429Y-54535714D01*
X143892857Y-54392857D01*
X143892857Y-54250000D01*
X143821429Y-54107143D01*
X143750000Y-54035714D01*
X143607143Y-53964286D01*
X143321429Y-53892857D01*
X143178571Y-53821429D01*
X143107143Y-53750000D01*
X143035714Y-53607143D01*
X143035714Y-53464286D01*
X143107143Y-53321429D01*
X143178571Y-53250000D01*
X143321429Y-53178571D01*
X143678571Y-53178571D01*
X143892857Y-53250000D01*
X144535714Y-53178571D02*
X144535714Y-54392857D01*
X144607142Y-54535714D01*
X144678571Y-54607143D01*
X144821428Y-54678571D01*
X145107142Y-54678571D01*
X145250000Y-54607143D01*
X145321428Y-54535714D01*
X145392857Y-54392857D01*
X145392857Y-53178571D01*
X133928572Y-85750000D02*
X133785715Y-85678571D01*
X133571429Y-85678571D01*
X133357144Y-85750000D01*
X133214286Y-85892857D01*
X133142858Y-86035714D01*
X133071429Y-86321429D01*
X133071429Y-86535714D01*
X133142858Y-86821429D01*
X133214286Y-86964286D01*
X133357144Y-87107143D01*
X133571429Y-87178571D01*
X133714286Y-87178571D01*
X133928572Y-87107143D01*
X134000001Y-87035714D01*
X134000001Y-86535714D01*
X133714286Y-86535714D01*
X134642858Y-87178571D02*
X134642858Y-85678571D01*
X135214286Y-85678571D01*
X135357144Y-85750000D01*
X135428572Y-85821429D01*
X135500001Y-85964286D01*
X135500001Y-86178571D01*
X135428572Y-86321429D01*
X135357144Y-86392857D01*
X135214286Y-86464286D01*
X134642858Y-86464286D01*
X136071429Y-87107143D02*
X136285715Y-87178571D01*
X136642858Y-87178571D01*
X136785715Y-87107143D01*
X136857144Y-87035714D01*
X136928572Y-86892857D01*
X136928572Y-86750000D01*
X136857144Y-86607143D01*
X136785715Y-86535714D01*
X136642858Y-86464286D01*
X136357144Y-86392857D01*
X136214286Y-86321429D01*
X136142858Y-86250000D01*
X136071429Y-86107143D01*
X136071429Y-85964286D01*
X136142858Y-85821429D01*
X136214286Y-85750000D01*
X136357144Y-85678571D01*
X136714286Y-85678571D01*
X136928572Y-85750000D01*
X169750000Y-75857143D02*
X169750000Y-75142857D01*
X170178571Y-76000000D02*
X168678571Y-75500000D01*
X170178571Y-75000000D01*
X170178571Y-74500000D02*
X168678571Y-74500000D01*
X168678571Y-74142857D01*
X168750000Y-73928572D01*
X168892857Y-73785714D01*
X169035714Y-73714286D01*
X169321429Y-73642857D01*
X169535714Y-73642857D01*
X169821429Y-73714286D01*
X169964286Y-73785714D01*
X170107143Y-73928572D01*
X170178571Y-74142857D01*
X170178571Y-74500000D01*
X170035714Y-72142857D02*
X170107143Y-72214286D01*
X170178571Y-72428572D01*
X170178571Y-72571429D01*
X170107143Y-72785714D01*
X169964286Y-72928572D01*
X169821429Y-73000000D01*
X169535714Y-73071429D01*
X169321429Y-73071429D01*
X169035714Y-73000000D01*
X168892857Y-72928572D01*
X168750000Y-72785714D01*
X168678571Y-72571429D01*
X168678571Y-72428572D01*
X168750000Y-72214286D01*
X168821429Y-72142857D01*
X123357143Y-53678571D02*
X123357143Y-52178571D01*
X124071429Y-53678571D02*
X124071429Y-52178571D01*
X124571429Y-53250000D01*
X125071429Y-52178571D01*
X125071429Y-53678571D01*
X125785715Y-52178571D02*
X125785715Y-53392857D01*
X125857143Y-53535714D01*
X125928572Y-53607143D01*
X126071429Y-53678571D01*
X126357143Y-53678571D01*
X126500001Y-53607143D01*
X126571429Y-53535714D01*
X126642858Y-53392857D01*
X126642858Y-52178571D01*
X118821429Y-89678571D02*
X118821429Y-88178571D01*
X119392857Y-88178571D01*
X119535715Y-88250000D01*
X119607143Y-88321429D01*
X119678572Y-88464286D01*
X119678572Y-88678571D01*
X119607143Y-88821429D01*
X119535715Y-88892857D01*
X119392857Y-88964286D01*
X118821429Y-88964286D01*
X120321429Y-88178571D02*
X120321429Y-89392857D01*
X120392857Y-89535714D01*
X120464286Y-89607143D01*
X120607143Y-89678571D01*
X120892857Y-89678571D01*
X121035715Y-89607143D01*
X121107143Y-89535714D01*
X121178572Y-89392857D01*
X121178572Y-88178571D01*
X121821429Y-89607143D02*
X122035715Y-89678571D01*
X122392858Y-89678571D01*
X122535715Y-89607143D01*
X122607144Y-89535714D01*
X122678572Y-89392857D01*
X122678572Y-89250000D01*
X122607144Y-89107143D01*
X122535715Y-89035714D01*
X122392858Y-88964286D01*
X122107144Y-88892857D01*
X121964286Y-88821429D01*
X121892858Y-88750000D01*
X121821429Y-88607143D01*
X121821429Y-88464286D01*
X121892858Y-88321429D01*
X121964286Y-88250000D01*
X122107144Y-88178571D01*
X122464286Y-88178571D01*
X122678572Y-88250000D01*
X123321429Y-89678571D02*
X123321429Y-88178571D01*
X123321429Y-88892857D02*
X124178572Y-88892857D01*
X124178572Y-89678571D02*
X124178572Y-88178571D01*
X119035715Y-80107143D02*
X119250001Y-80178571D01*
X119607144Y-80178571D01*
X119750001Y-80107143D01*
X119821430Y-80035714D01*
X119892858Y-79892857D01*
X119892858Y-79750000D01*
X119821430Y-79607143D01*
X119750001Y-79535714D01*
X119607144Y-79464286D01*
X119321430Y-79392857D01*
X119178572Y-79321429D01*
X119107144Y-79250000D01*
X119035715Y-79107143D01*
X119035715Y-78964286D01*
X119107144Y-78821429D01*
X119178572Y-78750000D01*
X119321430Y-78678571D01*
X119678572Y-78678571D01*
X119892858Y-78750000D01*
X120535715Y-80178571D02*
X120535715Y-78678571D01*
X121107143Y-78678571D01*
X121250001Y-78750000D01*
X121321429Y-78821429D01*
X121392858Y-78964286D01*
X121392858Y-79178571D01*
X121321429Y-79321429D01*
X121250001Y-79392857D01*
X121107143Y-79464286D01*
X120535715Y-79464286D01*
X121964286Y-80107143D02*
X122178572Y-80178571D01*
X122535715Y-80178571D01*
X122678572Y-80107143D01*
X122750001Y-80035714D01*
X122821429Y-79892857D01*
X122821429Y-79750000D01*
X122750001Y-79607143D01*
X122678572Y-79535714D01*
X122535715Y-79464286D01*
X122250001Y-79392857D01*
X122107143Y-79321429D01*
X122035715Y-79250000D01*
X121964286Y-79107143D01*
X121964286Y-78964286D01*
X122035715Y-78821429D01*
X122107143Y-78750000D01*
X122250001Y-78678571D01*
X122607143Y-78678571D01*
X122821429Y-78750000D01*
X123250000Y-78678571D02*
X124107143Y-78678571D01*
X123678572Y-80178571D02*
X123678572Y-78678571D01*
X123678572Y-71892857D02*
X123892858Y-71964286D01*
X123964286Y-72035714D01*
X124035715Y-72178571D01*
X124035715Y-72392857D01*
X123964286Y-72535714D01*
X123892858Y-72607143D01*
X123750000Y-72678571D01*
X123178572Y-72678571D01*
X123178572Y-71178571D01*
X123678572Y-71178571D01*
X123821429Y-71250000D01*
X123892858Y-71321429D01*
X123964286Y-71464286D01*
X123964286Y-71607143D01*
X123892858Y-71750000D01*
X123821429Y-71821429D01*
X123678572Y-71892857D01*
X123178572Y-71892857D01*
X124678572Y-72107143D02*
X125821429Y-72107143D01*
X123678572Y-61892857D02*
X123892858Y-61964286D01*
X123964286Y-62035714D01*
X124035715Y-62178571D01*
X124035715Y-62392857D01*
X123964286Y-62535714D01*
X123892858Y-62607143D01*
X123750000Y-62678571D01*
X123178572Y-62678571D01*
X123178572Y-61178571D01*
X123678572Y-61178571D01*
X123821429Y-61250000D01*
X123892858Y-61321429D01*
X123964286Y-61464286D01*
X123964286Y-61607143D01*
X123892858Y-61750000D01*
X123821429Y-61821429D01*
X123678572Y-61892857D01*
X123178572Y-61892857D01*
X124678572Y-62107143D02*
X125821429Y-62107143D01*
X125250000Y-62678571D02*
X125250000Y-61535714D01*
X171285714Y-49678571D02*
X171285714Y-48178571D01*
X171785714Y-49250000D01*
X172285714Y-48178571D01*
X172285714Y-49678571D01*
X173642857Y-49678571D02*
X173642857Y-48892857D01*
X173571428Y-48750000D01*
X173428571Y-48678571D01*
X173142857Y-48678571D01*
X173000000Y-48750000D01*
X173642857Y-49607143D02*
X173500000Y-49678571D01*
X173142857Y-49678571D01*
X173000000Y-49607143D01*
X172928571Y-49464286D01*
X172928571Y-49321429D01*
X173000000Y-49178571D01*
X173142857Y-49107143D01*
X173500000Y-49107143D01*
X173642857Y-49035714D01*
X174357143Y-49678571D02*
X174357143Y-48678571D01*
X174357143Y-48178571D02*
X174285714Y-48250000D01*
X174357143Y-48321429D01*
X174428571Y-48250000D01*
X174357143Y-48178571D01*
X174357143Y-48321429D01*
X175071429Y-48678571D02*
X175071429Y-49678571D01*
X175071429Y-48821429D02*
X175142857Y-48750000D01*
X175285715Y-48678571D01*
X175500000Y-48678571D01*
X175642857Y-48750000D01*
X175714286Y-48892857D01*
X175714286Y-49678571D01*
X171678571Y-52678571D02*
X171678571Y-53750000D01*
X171607143Y-53964286D01*
X171464286Y-54107143D01*
X171250000Y-54178571D01*
X171107143Y-54178571D01*
X172392857Y-54178571D02*
X172392857Y-53178571D01*
X172392857Y-52678571D02*
X172321428Y-52750000D01*
X172392857Y-52821429D01*
X172464285Y-52750000D01*
X172392857Y-52678571D01*
X172392857Y-52821429D01*
X173107143Y-54178571D02*
X173107143Y-52678571D01*
X173107143Y-53250000D02*
X173250000Y-53178571D01*
X173535714Y-53178571D01*
X173678571Y-53250000D01*
X173750000Y-53321429D01*
X173821429Y-53464286D01*
X173821429Y-53892857D01*
X173750000Y-54035714D01*
X173678571Y-54107143D01*
X173535714Y-54178571D01*
X173250000Y-54178571D01*
X173107143Y-54107143D01*
X171821429Y-58678571D02*
X171321429Y-57964286D01*
X170964286Y-58678571D02*
X170964286Y-57178571D01*
X171535714Y-57178571D01*
X171678572Y-57250000D01*
X171750000Y-57321429D01*
X171821429Y-57464286D01*
X171821429Y-57678571D01*
X171750000Y-57821429D01*
X171678572Y-57892857D01*
X171535714Y-57964286D01*
X170964286Y-57964286D01*
X173107143Y-57678571D02*
X173107143Y-58678571D01*
X172464286Y-57678571D02*
X172464286Y-58464286D01*
X172535714Y-58607143D01*
X172678572Y-58678571D01*
X172892857Y-58678571D01*
X173035714Y-58607143D01*
X173107143Y-58535714D01*
X174464286Y-58678571D02*
X174464286Y-57178571D01*
X174464286Y-58607143D02*
X174321429Y-58678571D01*
X174035715Y-58678571D01*
X173892857Y-58607143D01*
X173821429Y-58535714D01*
X173750000Y-58392857D01*
X173750000Y-57964286D01*
X173821429Y-57821429D01*
X173892857Y-57750000D01*
X174035715Y-57678571D01*
X174321429Y-57678571D01*
X174464286Y-57750000D01*
X175821429Y-58678571D02*
X175821429Y-57178571D01*
X175821429Y-58607143D02*
X175678572Y-58678571D01*
X175392858Y-58678571D01*
X175250000Y-58607143D01*
X175178572Y-58535714D01*
X175107143Y-58392857D01*
X175107143Y-57964286D01*
X175178572Y-57821429D01*
X175250000Y-57750000D01*
X175392858Y-57678571D01*
X175678572Y-57678571D01*
X175821429Y-57750000D01*
X177107143Y-58607143D02*
X176964286Y-58678571D01*
X176678572Y-58678571D01*
X176535715Y-58607143D01*
X176464286Y-58464286D01*
X176464286Y-57892857D01*
X176535715Y-57750000D01*
X176678572Y-57678571D01*
X176964286Y-57678571D01*
X177107143Y-57750000D01*
X177178572Y-57892857D01*
X177178572Y-58035714D01*
X176464286Y-58178571D01*
X177821429Y-58678571D02*
X177821429Y-57678571D01*
X177821429Y-57964286D02*
X177892857Y-57821429D01*
X177964286Y-57750000D01*
X178107143Y-57678571D01*
X178250000Y-57678571D01*
D12*
X146850000Y-83000000D02*
X146850000Y-82000000D01*
X145150000Y-82000000D02*
X145150000Y-83000000D01*
X164000000Y-90650000D02*
X163000000Y-90650000D01*
X163000000Y-92350000D02*
X164000000Y-92350000D01*
X164000000Y-69650000D02*
X163000000Y-69650000D01*
X163000000Y-71350000D02*
X164000000Y-71350000D01*
X128500000Y-75650000D02*
X127500000Y-75650000D01*
X127500000Y-77350000D02*
X128500000Y-77350000D01*
X140750000Y-51100000D02*
X140750000Y-48400000D01*
X139250000Y-51100000D02*
X139250000Y-48400000D01*
X140150000Y-49600000D02*
X139900000Y-49600000D01*
X139900000Y-49600000D02*
X140050000Y-49750000D01*
X139650000Y-49850000D02*
X140350000Y-49850000D01*
X140000000Y-49500000D02*
X140000000Y-49150000D01*
X140000000Y-49850000D02*
X139650000Y-49500000D01*
X139650000Y-49500000D02*
X140350000Y-49500000D01*
X140350000Y-49500000D02*
X140000000Y-49850000D01*
X146750000Y-51100000D02*
X146750000Y-48400000D01*
X145250000Y-51100000D02*
X145250000Y-48400000D01*
X146150000Y-49600000D02*
X145900000Y-49600000D01*
X145900000Y-49600000D02*
X146050000Y-49750000D01*
X145650000Y-49850000D02*
X146350000Y-49850000D01*
X146000000Y-49500000D02*
X146000000Y-49150000D01*
X146000000Y-49850000D02*
X145650000Y-49500000D01*
X145650000Y-49500000D02*
X146350000Y-49500000D01*
X146350000Y-49500000D02*
X146000000Y-49850000D01*
X152750000Y-51100000D02*
X152750000Y-48400000D01*
X151250000Y-51100000D02*
X151250000Y-48400000D01*
X152150000Y-49600000D02*
X151900000Y-49600000D01*
X151900000Y-49600000D02*
X152050000Y-49750000D01*
X151650000Y-49850000D02*
X152350000Y-49850000D01*
X152000000Y-49500000D02*
X152000000Y-49150000D01*
X152000000Y-49850000D02*
X151650000Y-49500000D01*
X151650000Y-49500000D02*
X152350000Y-49500000D01*
X152350000Y-49500000D02*
X152000000Y-49850000D01*
X156625000Y-87125000D02*
X156625000Y-86800000D01*
X149375000Y-87125000D02*
X149375000Y-86800000D01*
X149375000Y-79875000D02*
X149375000Y-80200000D01*
X156625000Y-79875000D02*
X156625000Y-80200000D01*
X156625000Y-87125000D02*
X156300000Y-87125000D01*
X156625000Y-79875000D02*
X156300000Y-79875000D01*
X149375000Y-79875000D02*
X149700000Y-79875000D01*
X149375000Y-87125000D02*
X149700000Y-87125000D01*
X156625000Y-86800000D02*
X158050000Y-86800000D01*
X164770000Y-50270000D02*
X169850000Y-50270000D01*
X169850000Y-50270000D02*
X169850000Y-47730000D01*
X169850000Y-47730000D02*
X164770000Y-47730000D01*
X161950000Y-47450000D02*
X163500000Y-47450000D01*
X164770000Y-47730000D02*
X164770000Y-50270000D01*
X163500000Y-50550000D02*
X161950000Y-50550000D01*
X161950000Y-50550000D02*
X161950000Y-47450000D01*
X164770000Y-54770000D02*
X169850000Y-54770000D01*
X169850000Y-54770000D02*
X169850000Y-52230000D01*
X169850000Y-52230000D02*
X164770000Y-52230000D01*
X161950000Y-51950000D02*
X163500000Y-51950000D01*
X164770000Y-52230000D02*
X164770000Y-54770000D01*
X163500000Y-55050000D02*
X161950000Y-55050000D01*
X161950000Y-55050000D02*
X161950000Y-51950000D01*
X164770000Y-59270000D02*
X169850000Y-59270000D01*
X169850000Y-59270000D02*
X169850000Y-56730000D01*
X169850000Y-56730000D02*
X164770000Y-56730000D01*
X161950000Y-56450000D02*
X163500000Y-56450000D01*
X164770000Y-56730000D02*
X164770000Y-59270000D01*
X163500000Y-59550000D02*
X161950000Y-59550000D01*
X161950000Y-59550000D02*
X161950000Y-56450000D01*
X119730000Y-52270000D02*
X119730000Y-59890000D01*
X122270000Y-52270000D02*
X122270000Y-59890000D01*
X122550000Y-49450000D02*
X122550000Y-51000000D01*
X119730000Y-59890000D02*
X122270000Y-59890000D01*
X122270000Y-52270000D02*
X119730000Y-52270000D01*
X119450000Y-51000000D02*
X119450000Y-49450000D01*
X119450000Y-49450000D02*
X122550000Y-49450000D01*
X131625000Y-50100000D02*
X131625000Y-48900000D01*
X133375000Y-48900000D02*
X133375000Y-50100000D01*
X136875000Y-67400000D02*
X136875000Y-68600000D01*
X135125000Y-68600000D02*
X135125000Y-67400000D01*
X132125000Y-68600000D02*
X132125000Y-67400000D01*
X133875000Y-67400000D02*
X133875000Y-68600000D01*
X136125000Y-50100000D02*
X136125000Y-48900000D01*
X137875000Y-48900000D02*
X137875000Y-50100000D01*
X142125000Y-50100000D02*
X142125000Y-48900000D01*
X143875000Y-48900000D02*
X143875000Y-50100000D01*
X148125000Y-50100000D02*
X148125000Y-48900000D01*
X149875000Y-48900000D02*
X149875000Y-50100000D01*
X157125000Y-92600000D02*
X157125000Y-91400000D01*
X158875000Y-91400000D02*
X158875000Y-92600000D01*
X130875000Y-48900000D02*
X130875000Y-50100000D01*
X129125000Y-50100000D02*
X129125000Y-48900000D01*
X128375000Y-48900000D02*
X128375000Y-50100000D01*
X126625000Y-50100000D02*
X126625000Y-48900000D01*
X121270000Y-80730000D02*
X123810000Y-80730000D01*
X118450000Y-80450000D02*
X120000000Y-80450000D01*
X121270000Y-80730000D02*
X121270000Y-83270000D01*
X120000000Y-83550000D02*
X118450000Y-83550000D01*
X118450000Y-83550000D02*
X118450000Y-80450000D01*
X121270000Y-83270000D02*
X123810000Y-83270000D01*
X123810000Y-83270000D02*
X123810000Y-80730000D01*
X126500000Y-76500000D02*
X159500000Y-76500000D01*
X159500000Y-52500000D02*
X128500000Y-52500000D01*
X128500000Y-52500000D02*
X126500000Y-54500000D01*
X126500000Y-76500000D02*
X126500000Y-54500000D01*
X159500000Y-52500000D02*
X159500000Y-76500000D01*
X127000000Y-76500000D02*
G75*
G03X127000000Y-76500000I-1000000J0D01*
G01*
X127000000Y-94000000D02*
X127000000Y-94500000D01*
X127000000Y-94500000D02*
X143000000Y-94500000D01*
X143000000Y-94500000D02*
X143000000Y-94000000D01*
X127000000Y-78500000D02*
X127000000Y-78000000D01*
X127000000Y-78000000D02*
X143000000Y-78000000D01*
X143000000Y-78000000D02*
X143000000Y-78500000D01*
X165499360Y-86849620D02*
X165499360Y-75150380D01*
X160500640Y-75150380D02*
X160500640Y-86849620D01*
X165499360Y-75150380D02*
X164651000Y-75150380D01*
X160500640Y-75150380D02*
X161349000Y-75150380D01*
X165499360Y-86849620D02*
X164651000Y-86849620D01*
X160500640Y-86849620D02*
X161349000Y-86849620D01*
X150270000Y-94770000D02*
X155350000Y-94770000D01*
X147450000Y-95050000D02*
X147450000Y-93500000D01*
X147730000Y-92230000D02*
X150270000Y-92230000D01*
X150270000Y-92230000D02*
X150270000Y-94770000D01*
X155350000Y-94770000D02*
X155350000Y-89690000D01*
X155350000Y-89690000D02*
X150270000Y-89690000D01*
X147450000Y-95050000D02*
X149000000Y-95050000D01*
X147730000Y-89690000D02*
X147730000Y-92230000D01*
X150270000Y-89690000D02*
X147730000Y-89690000D01*
X121270000Y-84730000D02*
X123810000Y-84730000D01*
X118450000Y-84450000D02*
X120000000Y-84450000D01*
X121270000Y-84730000D02*
X121270000Y-87270000D01*
X120000000Y-87550000D02*
X118450000Y-87550000D01*
X118450000Y-87550000D02*
X118450000Y-84450000D01*
X121270000Y-87270000D02*
X123810000Y-87270000D01*
X123810000Y-87270000D02*
X123810000Y-84730000D01*
X172230000Y-80730000D02*
X172230000Y-65490000D01*
X172230000Y-65490000D02*
X174770000Y-65490000D01*
X174770000Y-65490000D02*
X174770000Y-80730000D01*
X171950000Y-83550000D02*
X171950000Y-82000000D01*
X172230000Y-80730000D02*
X174770000Y-80730000D01*
X175050000Y-82000000D02*
X175050000Y-83550000D01*
X175050000Y-83550000D02*
X171950000Y-83550000D01*
X134600000Y-57875000D02*
X133400000Y-57875000D01*
X133400000Y-56125000D02*
X134600000Y-56125000D01*
X134600000Y-60375000D02*
X133400000Y-60375000D01*
X133400000Y-58625000D02*
X134600000Y-58625000D01*
X134600000Y-62875000D02*
X133400000Y-62875000D01*
X133400000Y-61125000D02*
X134600000Y-61125000D01*
X138600000Y-62875000D02*
X137400000Y-62875000D01*
X137400000Y-61125000D02*
X138600000Y-61125000D01*
X131809524Y-71452381D02*
X132142857Y-72452381D01*
X132476191Y-71452381D01*
X132809524Y-72452381D02*
X132809524Y-71452381D01*
X133285714Y-72071429D02*
X134047619Y-72071429D01*
X131809524Y-56452381D02*
X132142857Y-57452381D01*
X132476191Y-56452381D01*
X132809524Y-57452381D02*
X132809524Y-56452381D01*
X133285714Y-57071429D02*
X134047619Y-57071429D01*
X133666667Y-57452381D02*
X133666667Y-56690476D01*
X151523810Y-56452381D02*
X151857143Y-57452381D01*
X152190477Y-56452381D01*
X152714286Y-56452381D02*
X152904763Y-56452381D01*
X153000001Y-56500000D01*
X153095239Y-56595238D01*
X153142858Y-56785714D01*
X153142858Y-57119048D01*
X153095239Y-57309524D01*
X153000001Y-57404762D01*
X152904763Y-57452381D01*
X152714286Y-57452381D01*
X152619048Y-57404762D01*
X152523810Y-57309524D01*
X152476191Y-57119048D01*
X152476191Y-56785714D01*
X152523810Y-56595238D01*
X152619048Y-56500000D01*
X152714286Y-56452381D01*
X153571429Y-57071429D02*
X154333334Y-57071429D01*
X153952382Y-57452381D02*
X153952382Y-56690476D01*
X148690476Y-60904762D02*
X148833333Y-60952381D01*
X149071429Y-60952381D01*
X149166667Y-60904762D01*
X149214286Y-60857143D01*
X149261905Y-60761905D01*
X149261905Y-60666667D01*
X149214286Y-60571429D01*
X149166667Y-60523810D01*
X149071429Y-60476190D01*
X148880952Y-60428571D01*
X148785714Y-60380952D01*
X148738095Y-60333333D01*
X148690476Y-60238095D01*
X148690476Y-60142857D01*
X148738095Y-60047619D01*
X148785714Y-60000000D01*
X148880952Y-59952381D01*
X149119048Y-59952381D01*
X149261905Y-60000000D01*
X149690476Y-60428571D02*
X150023810Y-60428571D01*
X150166667Y-60952381D02*
X149690476Y-60952381D01*
X149690476Y-59952381D01*
X150166667Y-59952381D01*
X150595238Y-60952381D02*
X150595238Y-59952381D01*
X151166667Y-60952381D01*
X151166667Y-59952381D01*
X151595238Y-60904762D02*
X151738095Y-60952381D01*
X151976191Y-60952381D01*
X152071429Y-60904762D01*
X152119048Y-60857143D01*
X152166667Y-60761905D01*
X152166667Y-60666667D01*
X152119048Y-60571429D01*
X152071429Y-60523810D01*
X151976191Y-60476190D01*
X151785714Y-60428571D01*
X151690476Y-60380952D01*
X151642857Y-60333333D01*
X151595238Y-60238095D01*
X151595238Y-60142857D01*
X151642857Y-60047619D01*
X151690476Y-60000000D01*
X151785714Y-59952381D01*
X152023810Y-59952381D01*
X152166667Y-60000000D01*
X152595238Y-60428571D02*
X152928572Y-60428571D01*
X153071429Y-60952381D02*
X152595238Y-60952381D01*
X152595238Y-59952381D01*
X153071429Y-59952381D01*
X153500000Y-60571429D02*
X154261905Y-60571429D01*
X153880953Y-60952381D02*
X153880953Y-60190476D01*
X151523810Y-71452381D02*
X151857143Y-72452381D01*
X152190477Y-71452381D01*
X152714286Y-71452381D02*
X152904763Y-71452381D01*
X153000001Y-71500000D01*
X153095239Y-71595238D01*
X153142858Y-71785714D01*
X153142858Y-72119048D01*
X153095239Y-72309524D01*
X153000001Y-72404762D01*
X152904763Y-72452381D01*
X152714286Y-72452381D01*
X152619048Y-72404762D01*
X152523810Y-72309524D01*
X152476191Y-72119048D01*
X152476191Y-71785714D01*
X152523810Y-71595238D01*
X152619048Y-71500000D01*
X152714286Y-71452381D01*
X153571429Y-72071429D02*
X154333334Y-72071429D01*
X148690476Y-68904762D02*
X148833333Y-68952381D01*
X149071429Y-68952381D01*
X149166667Y-68904762D01*
X149214286Y-68857143D01*
X149261905Y-68761905D01*
X149261905Y-68666667D01*
X149214286Y-68571429D01*
X149166667Y-68523810D01*
X149071429Y-68476190D01*
X148880952Y-68428571D01*
X148785714Y-68380952D01*
X148738095Y-68333333D01*
X148690476Y-68238095D01*
X148690476Y-68142857D01*
X148738095Y-68047619D01*
X148785714Y-68000000D01*
X148880952Y-67952381D01*
X149119048Y-67952381D01*
X149261905Y-68000000D01*
X149690476Y-68428571D02*
X150023810Y-68428571D01*
X150166667Y-68952381D02*
X149690476Y-68952381D01*
X149690476Y-67952381D01*
X150166667Y-67952381D01*
X150595238Y-68952381D02*
X150595238Y-67952381D01*
X151166667Y-68952381D01*
X151166667Y-67952381D01*
X151595238Y-68904762D02*
X151738095Y-68952381D01*
X151976191Y-68952381D01*
X152071429Y-68904762D01*
X152119048Y-68857143D01*
X152166667Y-68761905D01*
X152166667Y-68666667D01*
X152119048Y-68571429D01*
X152071429Y-68523810D01*
X151976191Y-68476190D01*
X151785714Y-68428571D01*
X151690476Y-68380952D01*
X151642857Y-68333333D01*
X151595238Y-68238095D01*
X151595238Y-68142857D01*
X151642857Y-68047619D01*
X151690476Y-68000000D01*
X151785714Y-67952381D01*
X152023810Y-67952381D01*
X152166667Y-68000000D01*
X152595238Y-68428571D02*
X152928572Y-68428571D01*
X153071429Y-68952381D02*
X152595238Y-68952381D01*
X152595238Y-67952381D01*
X153071429Y-67952381D01*
X153500000Y-68571429D02*
X154261905Y-68571429D01*
X131976190Y-63952381D02*
X132166667Y-63952381D01*
X132261905Y-64000000D01*
X132357143Y-64095238D01*
X132404762Y-64285714D01*
X132404762Y-64619048D01*
X132357143Y-64809524D01*
X132261905Y-64904762D01*
X132166667Y-64952381D01*
X131976190Y-64952381D01*
X131880952Y-64904762D01*
X131785714Y-64809524D01*
X131738095Y-64619048D01*
X131738095Y-64285714D01*
X131785714Y-64095238D01*
X131880952Y-64000000D01*
X131976190Y-63952381D01*
X132833333Y-64952381D02*
X132833333Y-63952381D01*
X133404762Y-64952381D01*
X133404762Y-63952381D01*
X134595238Y-63904762D02*
X133738095Y-65190476D01*
X135119047Y-63952381D02*
X135309524Y-63952381D01*
X135404762Y-64000000D01*
X135500000Y-64095238D01*
X135547619Y-64285714D01*
X135547619Y-64619048D01*
X135500000Y-64809524D01*
X135404762Y-64904762D01*
X135309524Y-64952381D01*
X135119047Y-64952381D01*
X135023809Y-64904762D01*
X134928571Y-64809524D01*
X134880952Y-64619048D01*
X134880952Y-64285714D01*
X134928571Y-64095238D01*
X135023809Y-64000000D01*
X135119047Y-63952381D01*
X136309524Y-64428571D02*
X135976190Y-64428571D01*
X135976190Y-64952381D02*
X135976190Y-63952381D01*
X136452381Y-63952381D01*
X137166667Y-64428571D02*
X136833333Y-64428571D01*
X136833333Y-64952381D02*
X136833333Y-63952381D01*
X137309524Y-63952381D01*
X150904762Y-63952381D02*
X151476191Y-63952381D01*
X151190476Y-64952381D02*
X151190476Y-63952381D01*
X152380953Y-64952381D02*
X152047619Y-64476190D01*
X151809524Y-64952381D02*
X151809524Y-63952381D01*
X152190477Y-63952381D01*
X152285715Y-64000000D01*
X152333334Y-64047619D01*
X152380953Y-64142857D01*
X152380953Y-64285714D01*
X152333334Y-64380952D01*
X152285715Y-64428571D01*
X152190477Y-64476190D01*
X151809524Y-64476190D01*
X152809524Y-64952381D02*
X152809524Y-63952381D01*
X153285714Y-64952381D02*
X153285714Y-63952381D01*
X153619048Y-64666667D01*
X153952381Y-63952381D01*
X153952381Y-64952381D01*
M02*
