M48
;DRILL file {KiCad (2015-09-20 BZR 6203, Git 66a9b04)-product} date Sat 13 Feb 2016 19:56:23 GMT
;FORMAT={-:-/ absolute / metric / decimal}
FMAT,2
METRIC,TZ
T1C0.400
T2C0.900
T3C1.000
T4C1.016
T5C1.600
T6C3.000
T7C3.200
%
G90
G05
M71
T1
X116.667Y-51.875
X123.245Y-41.344
X125.267Y-92.87
X126.329Y-48.491
X130.009Y-47.667
X131.258Y-50.852
X133.475Y-47.792
X135.16Y-51.25
X136.Y-62.
X137.7Y-47.663
X140.203Y-40.439
X142.84Y-47.672
X144.565Y-89.799
X144.667Y-46.74
X145.358Y-84.7
X146.677Y-85.8
X146.821Y-86.763
X149.175Y-79.864
X150.351Y-80.7
X151.285Y-80.65
X152.267Y-86.338
X152.278Y-85.426
X154.472Y-82.06
X154.889Y-81.33
X155.06Y-77.645
X155.189Y-84.801
T2
X129.Y-56.88
X129.Y-64.5
X129.Y-72.12
X157.Y-60.69
X157.Y-64.5
X157.Y-68.31
T3
X125.Y-42.46
X125.Y-45.
X127.54Y-42.46
X127.54Y-45.
X130.08Y-42.46
X130.08Y-45.
X132.62Y-42.46
X132.62Y-45.
X135.16Y-42.46
X135.16Y-45.
X137.7Y-42.46
X137.7Y-45.
X140.24Y-42.46
X140.24Y-45.
X142.78Y-42.46
X142.78Y-45.
X145.32Y-42.46
X145.32Y-45.
X147.86Y-42.46
X147.86Y-45.
X150.4Y-42.46
X150.4Y-45.
X152.94Y-42.46
X152.94Y-45.
X155.48Y-42.46
X155.48Y-45.
X158.02Y-42.46
X158.02Y-45.
X160.56Y-42.46
X160.56Y-45.
X163.1Y-42.46
X163.1Y-45.
X165.64Y-42.46
X165.64Y-45.
X168.18Y-42.46
X168.18Y-45.
X170.72Y-42.46
X170.72Y-45.
X173.26Y-42.46
X173.26Y-45.
T4
X120.Y-82.
X120.Y-86.
X121.Y-51.
X121.Y-53.54
X121.Y-56.08
X121.Y-58.62
X122.54Y-82.
X122.54Y-86.
X149.Y-90.96
X149.Y-93.5
X151.54Y-90.96
X151.54Y-93.5
X154.08Y-90.96
X154.08Y-93.5
X163.5Y-49.
X163.5Y-53.5
X163.5Y-58.
X166.04Y-49.
X166.04Y-53.5
X166.04Y-58.
X168.58Y-49.
X168.58Y-53.5
X168.58Y-58.
X173.5Y-66.76
X173.5Y-69.3
X173.5Y-71.84
X173.5Y-74.38
X173.5Y-76.92
X173.5Y-79.46
X173.5Y-82.
T5
X157.Y-56.88
X157.Y-72.12
T6
X120.5Y-65.
X120.5Y-75.
T7
X120.13Y-43.73
X120.13Y-92.73
X178.13Y-43.73
X178.13Y-92.73
T0
M30
