G04 #@! TF.FileFunction,Soldermask,Bot*
%FSLAX46Y46*%
G04 Gerber Fmt 4.6, Leading zero omitted, Abs format (unit mm)*
G04 Created by KiCad (PCBNEW (2015-09-20 BZR 6203, Git 66a9b04)-product) date Sat 13 Feb 2016 19:56:21 GMT*
%MOMM*%
G01*
G04 APERTURE LIST*
%ADD10C,0.100000*%
%ADD11C,6.400000*%
%ADD12R,2.127200X2.432000*%
%ADD13O,2.127200X2.432000*%
%ADD14R,2.432000X2.127200*%
%ADD15O,2.432000X2.127200*%
%ADD16R,2.432000X2.432000*%
%ADD17O,2.432000X2.432000*%
%ADD18O,4.400000X3.400000*%
%ADD19R,2.127200X2.127200*%
%ADD20O,2.127200X2.127200*%
%ADD21C,2.400000*%
G04 APERTURE END LIST*
D10*
D11*
X120500000Y-75000000D03*
X120500000Y-65000000D03*
D12*
X163500000Y-49000000D03*
D13*
X166040000Y-49000000D03*
X168580000Y-49000000D03*
D12*
X163500000Y-53500000D03*
D13*
X166040000Y-53500000D03*
X168580000Y-53500000D03*
D12*
X163500000Y-58000000D03*
D13*
X166040000Y-58000000D03*
X168580000Y-58000000D03*
D14*
X121000000Y-51000000D03*
D15*
X121000000Y-53540000D03*
X121000000Y-56080000D03*
X121000000Y-58620000D03*
D16*
X120000000Y-82000000D03*
D17*
X122540000Y-82000000D03*
D18*
X129000000Y-64500000D03*
X157000000Y-64500000D03*
X157000000Y-60690000D03*
X157000000Y-56880000D03*
X157000000Y-68310000D03*
X157000000Y-72120000D03*
X129000000Y-72120000D03*
X129000000Y-56880000D03*
D19*
X149000000Y-93500000D03*
D20*
X149000000Y-90960000D03*
X151540000Y-93500000D03*
X151540000Y-90960000D03*
X154080000Y-93500000D03*
X154080000Y-90960000D03*
D16*
X120000000Y-86000000D03*
D17*
X122540000Y-86000000D03*
D14*
X173500000Y-82000000D03*
D15*
X173500000Y-79460000D03*
X173500000Y-76920000D03*
X173500000Y-74380000D03*
X173500000Y-71840000D03*
X173500000Y-69300000D03*
X173500000Y-66760000D03*
D21*
X125000000Y-45000000D03*
X125000000Y-42460000D03*
X127540000Y-45000000D03*
X127540000Y-42460000D03*
X130080000Y-45000000D03*
X130080000Y-42460000D03*
X132620000Y-45000000D03*
X132620000Y-42460000D03*
X135160000Y-45000000D03*
X135160000Y-42460000D03*
X137700000Y-45000000D03*
X137700000Y-42460000D03*
X140240000Y-45000000D03*
X140240000Y-42460000D03*
X142780000Y-45000000D03*
X142780000Y-42460000D03*
X145320000Y-45000000D03*
X145320000Y-42460000D03*
X147860000Y-45000000D03*
X147860000Y-42460000D03*
X150400000Y-45000000D03*
X150400000Y-42460000D03*
X152940000Y-45000000D03*
X152940000Y-42460000D03*
X155480000Y-45000000D03*
X155480000Y-42460000D03*
X158020000Y-45000000D03*
X158020000Y-42460000D03*
X160560000Y-45000000D03*
X160560000Y-42460000D03*
X163100000Y-45000000D03*
X163100000Y-42460000D03*
X165640000Y-45000000D03*
X165640000Y-42460000D03*
X168180000Y-45000000D03*
X168180000Y-42460000D03*
X170720000Y-45000000D03*
X170720000Y-42460000D03*
X173260000Y-45000000D03*
X173260000Y-42460000D03*
D11*
X120130000Y-43730000D03*
X178130000Y-43730000D03*
X120130000Y-92730000D03*
X178130000Y-92730000D03*
M02*
