G04 #@! TF.FileFunction,Copper,L1,Top,Signal*
%FSLAX46Y46*%
G04 Gerber Fmt 4.6, Leading zero omitted, Abs format (unit mm)*
G04 Created by KiCad (PCBNEW (2015-09-20 BZR 6203, Git 66a9b04)-product) date Sat 13 Feb 2016 19:56:21 GMT*
%MOMM*%
G01*
G04 APERTURE LIST*
%ADD10C,0.100000*%
%ADD11R,1.250000X1.000000*%
%ADD12R,1.000000X1.250000*%
%ADD13R,1.198880X1.198880*%
%ADD14R,1.600000X0.550000*%
%ADD15R,0.550000X1.600000*%
%ADD16C,6.000000*%
%ADD17R,1.727200X2.032000*%
%ADD18O,1.727200X2.032000*%
%ADD19R,2.032000X1.727200*%
%ADD20O,2.032000X1.727200*%
%ADD21R,1.300000X0.700000*%
%ADD22R,2.032000X2.032000*%
%ADD23O,2.032000X2.032000*%
%ADD24O,4.000000X3.000000*%
%ADD25R,2.000000X1.000000*%
%ADD26R,2.100580X5.600700*%
%ADD27R,1.727200X1.727200*%
%ADD28O,1.727200X1.727200*%
%ADD29R,0.700000X1.300000*%
%ADD30C,2.000000*%
%ADD31C,0.600000*%
%ADD32C,0.500000*%
%ADD33C,0.250000*%
%ADD34C,2.000000*%
G04 APERTURE END LIST*
D10*
D11*
X146000000Y-81500000D03*
X146000000Y-83500000D03*
D12*
X162500000Y-91500000D03*
X164500000Y-91500000D03*
X162500000Y-70500000D03*
X164500000Y-70500000D03*
X127000000Y-76500000D03*
X129000000Y-76500000D03*
D13*
X140000000Y-48450980D03*
X140000000Y-50549020D03*
X146000000Y-48450980D03*
X146000000Y-50549020D03*
X152000000Y-48450980D03*
X152000000Y-50549020D03*
D14*
X157250000Y-86300000D03*
X157250000Y-85500000D03*
X157250000Y-84700000D03*
X157250000Y-83900000D03*
X157250000Y-83100000D03*
X157250000Y-82300000D03*
X157250000Y-81500000D03*
X157250000Y-80700000D03*
D15*
X155800000Y-79250000D03*
X155000000Y-79250000D03*
X154200000Y-79250000D03*
X153400000Y-79250000D03*
X152600000Y-79250000D03*
X151800000Y-79250000D03*
X151000000Y-79250000D03*
X150200000Y-79250000D03*
D14*
X148750000Y-80700000D03*
X148750000Y-81500000D03*
X148750000Y-82300000D03*
X148750000Y-83100000D03*
X148750000Y-83900000D03*
X148750000Y-84700000D03*
X148750000Y-85500000D03*
X148750000Y-86300000D03*
D15*
X150200000Y-87750000D03*
X151000000Y-87750000D03*
X151800000Y-87750000D03*
X152600000Y-87750000D03*
X153400000Y-87750000D03*
X154200000Y-87750000D03*
X155000000Y-87750000D03*
X155800000Y-87750000D03*
D16*
X120500000Y-75000000D03*
X120500000Y-65000000D03*
D17*
X163500000Y-49000000D03*
D18*
X166040000Y-49000000D03*
X168580000Y-49000000D03*
D17*
X163500000Y-53500000D03*
D18*
X166040000Y-53500000D03*
X168580000Y-53500000D03*
D17*
X163500000Y-58000000D03*
D18*
X166040000Y-58000000D03*
X168580000Y-58000000D03*
D19*
X121000000Y-51000000D03*
D20*
X121000000Y-53540000D03*
X121000000Y-56080000D03*
X121000000Y-58620000D03*
D21*
X132500000Y-48550000D03*
X132500000Y-50450000D03*
X136000000Y-68950000D03*
X136000000Y-67050000D03*
X133000000Y-67050000D03*
X133000000Y-68950000D03*
X137000000Y-48550000D03*
X137000000Y-50450000D03*
X143000000Y-48550000D03*
X143000000Y-50450000D03*
X149000000Y-48550000D03*
X149000000Y-50450000D03*
X158000000Y-91050000D03*
X158000000Y-92950000D03*
X130000000Y-50450000D03*
X130000000Y-48550000D03*
X127500000Y-50450000D03*
X127500000Y-48550000D03*
D22*
X120000000Y-82000000D03*
D23*
X122540000Y-82000000D03*
D24*
X129000000Y-64500000D03*
X157000000Y-64500000D03*
X157000000Y-60690000D03*
X157000000Y-56880000D03*
X157000000Y-68310000D03*
X157000000Y-72120000D03*
X129000000Y-72120000D03*
X129000000Y-56880000D03*
D25*
X127000000Y-79500000D03*
X143000000Y-79500000D03*
X127000000Y-81000000D03*
X143000000Y-81000000D03*
X127000000Y-82500000D03*
X143000000Y-82500000D03*
X127000000Y-84000000D03*
X143000000Y-84000000D03*
X127000000Y-85500000D03*
X143000000Y-85500000D03*
X127000000Y-87000000D03*
X143000000Y-87000000D03*
X127000000Y-88500000D03*
X143000000Y-88500000D03*
X127000000Y-90000000D03*
X143000000Y-90000000D03*
X127000000Y-91500000D03*
X143000000Y-91500000D03*
X127000000Y-93000000D03*
X143000000Y-93000000D03*
D26*
X163000000Y-85848860D03*
X163000000Y-76151140D03*
D27*
X149000000Y-93500000D03*
D28*
X149000000Y-90960000D03*
X151540000Y-93500000D03*
X151540000Y-90960000D03*
X154080000Y-93500000D03*
X154080000Y-90960000D03*
D22*
X120000000Y-86000000D03*
D23*
X122540000Y-86000000D03*
D19*
X173500000Y-82000000D03*
D20*
X173500000Y-79460000D03*
X173500000Y-76920000D03*
X173500000Y-74380000D03*
X173500000Y-71840000D03*
X173500000Y-69300000D03*
X173500000Y-66760000D03*
D29*
X133050000Y-57000000D03*
X134950000Y-57000000D03*
X133050000Y-59500000D03*
X134950000Y-59500000D03*
X133050000Y-62000000D03*
X134950000Y-62000000D03*
X137050000Y-62000000D03*
X138950000Y-62000000D03*
D30*
X125000000Y-45000000D03*
X125000000Y-42460000D03*
X127540000Y-45000000D03*
X127540000Y-42460000D03*
X130080000Y-45000000D03*
X130080000Y-42460000D03*
X132620000Y-45000000D03*
X132620000Y-42460000D03*
X135160000Y-45000000D03*
X135160000Y-42460000D03*
X137700000Y-45000000D03*
X137700000Y-42460000D03*
X140240000Y-45000000D03*
X140240000Y-42460000D03*
X142780000Y-45000000D03*
X142780000Y-42460000D03*
X145320000Y-45000000D03*
X145320000Y-42460000D03*
X147860000Y-45000000D03*
X147860000Y-42460000D03*
X150400000Y-45000000D03*
X150400000Y-42460000D03*
X152940000Y-45000000D03*
X152940000Y-42460000D03*
X155480000Y-45000000D03*
X155480000Y-42460000D03*
X158020000Y-45000000D03*
X158020000Y-42460000D03*
X160560000Y-45000000D03*
X160560000Y-42460000D03*
X163100000Y-45000000D03*
X163100000Y-42460000D03*
X165640000Y-45000000D03*
X165640000Y-42460000D03*
X168180000Y-45000000D03*
X168180000Y-42460000D03*
X170720000Y-45000000D03*
X170720000Y-42460000D03*
X173260000Y-45000000D03*
X173260000Y-42460000D03*
D16*
X120130000Y-43730000D03*
X178130000Y-43730000D03*
X120130000Y-92730000D03*
X178130000Y-92730000D03*
D31*
X154889100Y-81329600D03*
X135160000Y-51250300D03*
X155059600Y-77644800D03*
X151284900Y-80650000D03*
X149174600Y-79864300D03*
X150351100Y-80700000D03*
X154472400Y-82060300D03*
X155189500Y-84800600D03*
X152278500Y-85425900D03*
X152267500Y-86337900D03*
X146677500Y-85800100D03*
X126328700Y-48490700D03*
X130009400Y-47667400D03*
X146820600Y-86762900D03*
X123245200Y-41344400D03*
X116666800Y-51874900D03*
X133475300Y-47792500D03*
X131257800Y-50852400D03*
X137700000Y-47663400D03*
X142839700Y-47672000D03*
X144667500Y-46740000D03*
X125267500Y-92870000D03*
X140203100Y-40439400D03*
X144564800Y-89798700D03*
X136000000Y-62000000D03*
X145357900Y-84700000D03*
D32*
X124090000Y-50450000D02*
X121000000Y-53540000D01*
X126399700Y-50450000D02*
X124090000Y-50450000D01*
X127500000Y-50450000D02*
X126399700Y-50450000D01*
X148750000Y-81500000D02*
X146000000Y-81500000D01*
X127000000Y-79500000D02*
X126274900Y-79500000D01*
X127000000Y-78774900D02*
X127000000Y-76500000D01*
X126274900Y-79500000D02*
X127000000Y-78774900D01*
X125054200Y-80720700D02*
X126274900Y-79500000D01*
X125054200Y-81599700D02*
X125054200Y-80720700D01*
X122653900Y-84000000D02*
X125054200Y-81599700D01*
X122000000Y-84000000D02*
X122653900Y-84000000D01*
X120000000Y-86000000D02*
X122000000Y-84000000D01*
X130000000Y-50450000D02*
X130000000Y-49649700D01*
X148750000Y-81500000D02*
X150000300Y-81500000D01*
X155029300Y-81329600D02*
X154889100Y-81329600D01*
X155999700Y-82300000D02*
X155029300Y-81329600D01*
X153607000Y-81500000D02*
X150000300Y-81500000D01*
X153797000Y-81310000D02*
X153607000Y-81500000D01*
X154869500Y-81310000D02*
X153797000Y-81310000D01*
X154889100Y-81329600D02*
X154869500Y-81310000D01*
X129402900Y-49649700D02*
X130000000Y-49649700D01*
X128887600Y-49134400D02*
X129402900Y-49649700D01*
X128887600Y-47011100D02*
X128887600Y-49134400D01*
X129273900Y-46624800D02*
X128887600Y-47011100D01*
X143695200Y-46624800D02*
X129273900Y-46624800D01*
X145320000Y-45000000D02*
X143695200Y-46624800D01*
X127011100Y-47011100D02*
X125000000Y-45000000D01*
X128887600Y-47011100D02*
X127011100Y-47011100D01*
X156800000Y-82300000D02*
X155999700Y-82300000D01*
X156800000Y-82300000D02*
X157250000Y-82300000D01*
X158500300Y-82568200D02*
X158500300Y-83900000D01*
X158232100Y-82300000D02*
X158500300Y-82568200D01*
X157250000Y-82300000D02*
X158232100Y-82300000D01*
X157250000Y-83900000D02*
X158500300Y-83900000D01*
X158725600Y-83900000D02*
X158500300Y-83900000D01*
X159227200Y-84401600D02*
X158725600Y-83900000D01*
X159227200Y-89022500D02*
X159227200Y-84401600D01*
X158000000Y-90249700D02*
X159227200Y-89022500D01*
X158000000Y-91050000D02*
X158000000Y-90249700D01*
X140000000Y-50549000D02*
X138950300Y-50549000D01*
X141751100Y-51250400D02*
X141049700Y-50549000D01*
X144248900Y-51250400D02*
X141751100Y-51250400D01*
X144950300Y-50549000D02*
X144248900Y-51250400D01*
X146000000Y-50549000D02*
X144950300Y-50549000D01*
X140000000Y-50549000D02*
X141049700Y-50549000D01*
X147751100Y-51250400D02*
X147049700Y-50549000D01*
X150248900Y-51250400D02*
X147751100Y-51250400D01*
X150950300Y-50549000D02*
X150248900Y-51250400D01*
X152000000Y-50549000D02*
X150950300Y-50549000D01*
X146000000Y-50549000D02*
X147049700Y-50549000D01*
X162500000Y-91500000D02*
X161549700Y-91500000D01*
X162500000Y-91500000D02*
X163450300Y-91500000D01*
X127000000Y-82500000D02*
X128450300Y-82500000D01*
X128450300Y-90000000D02*
X128450300Y-82500000D01*
X127000000Y-90000000D02*
X128450300Y-90000000D01*
X147475300Y-83900000D02*
X148750000Y-83900000D01*
X147075300Y-83500000D02*
X147475300Y-83900000D01*
X148750000Y-83900000D02*
X150000300Y-83900000D01*
X121000000Y-51000000D02*
X121000000Y-49686100D01*
X138249000Y-51250300D02*
X135160000Y-51250300D01*
X138950300Y-50549000D02*
X138249000Y-51250300D01*
X135160000Y-51250300D02*
X132500000Y-51250300D01*
X132500000Y-50450000D02*
X132500000Y-51250300D01*
X127893400Y-40273400D02*
X130080000Y-42460000D01*
X118698700Y-40273400D02*
X127893400Y-40273400D01*
X116660000Y-42312100D02*
X118698700Y-40273400D01*
X116660000Y-45273100D02*
X116660000Y-42312100D01*
X121036500Y-49649600D02*
X116660000Y-45273100D01*
X121000000Y-49686100D02*
X121036500Y-49649600D01*
X154080000Y-90960000D02*
X155393900Y-90960000D01*
X146537700Y-83500000D02*
X147075300Y-83500000D01*
X146537700Y-83500000D02*
X146000000Y-83500000D01*
X156308900Y-91875000D02*
X155393900Y-90960000D01*
X161174700Y-91875000D02*
X156308900Y-91875000D01*
X161549700Y-91500000D02*
X161174700Y-91875000D01*
X146000000Y-83500000D02*
X144989900Y-83500000D01*
X143000000Y-91500000D02*
X144450300Y-91500000D01*
X157250000Y-83100000D02*
X155999700Y-83100000D01*
X159450300Y-68400600D02*
X161549700Y-70500000D01*
X159450300Y-68310000D02*
X159450300Y-68400600D01*
X162500000Y-70500000D02*
X161549700Y-70500000D01*
X157000000Y-68310000D02*
X159450300Y-68310000D01*
X159109600Y-41009600D02*
X160560000Y-42460000D01*
X149310400Y-41009600D02*
X159109600Y-41009600D01*
X147860000Y-42460000D02*
X149310400Y-41009600D01*
X162023300Y-40996700D02*
X160560000Y-42460000D01*
X164176700Y-40996700D02*
X162023300Y-40996700D01*
X165640000Y-42460000D02*
X164176700Y-40996700D01*
X152000000Y-50549000D02*
X153049700Y-50549000D01*
X165157100Y-47342900D02*
X163500000Y-49000000D01*
X170917100Y-47342900D02*
X165157100Y-47342900D01*
X173260000Y-45000000D02*
X170917100Y-47342900D01*
X155480000Y-49000000D02*
X155480000Y-45000000D01*
X163500000Y-49000000D02*
X155480000Y-49000000D01*
X154598700Y-49000000D02*
X153049700Y-50549000D01*
X155480000Y-49000000D02*
X154598700Y-49000000D01*
X158500300Y-87853600D02*
X155393900Y-90960000D01*
X158500300Y-84700000D02*
X158500300Y-87853600D01*
X157250000Y-84700000D02*
X158500300Y-84700000D01*
X163450300Y-92212700D02*
X163450300Y-91500000D01*
X163813000Y-92575400D02*
X163450300Y-92212700D01*
X165201200Y-92575400D02*
X163813000Y-92575400D01*
X173500000Y-84276600D02*
X165201200Y-92575400D01*
X173500000Y-82000000D02*
X173500000Y-84276600D01*
X131530400Y-41009600D02*
X130080000Y-42460000D01*
X138789600Y-41009600D02*
X131530400Y-41009600D01*
X140240000Y-42460000D02*
X138789600Y-41009600D01*
X146409600Y-41009600D02*
X147860000Y-42460000D01*
X141690400Y-41009600D02*
X146409600Y-41009600D01*
X140240000Y-42460000D02*
X141690400Y-41009600D01*
X155999700Y-83334600D02*
X155999700Y-83100000D01*
X155434300Y-83900000D02*
X155999700Y-83334600D01*
X150000300Y-83900000D02*
X155434300Y-83900000D01*
X155999700Y-84465400D02*
X155999700Y-84700000D01*
X155434300Y-83900000D02*
X155999700Y-84465400D01*
X157250000Y-84700000D02*
X155999700Y-84700000D01*
X129237600Y-81712700D02*
X128450300Y-82500000D01*
X129237600Y-76500000D02*
X129237600Y-81712700D01*
X148905000Y-72120000D02*
X145975000Y-75050000D01*
X157000000Y-72120000D02*
X148905000Y-72120000D01*
X145975000Y-79475300D02*
X144450300Y-81000000D01*
X145975000Y-75050000D02*
X145975000Y-79475300D01*
X143000000Y-81000000D02*
X144450300Y-81000000D01*
X144989900Y-83500000D02*
X144796000Y-83500000D01*
X144602000Y-83694000D02*
X144796000Y-83500000D01*
X144602000Y-88006300D02*
X144602000Y-83694000D01*
X145347100Y-88751400D02*
X144602000Y-88006300D01*
X145347100Y-90603200D02*
X145347100Y-88751400D01*
X144450300Y-91500000D02*
X145347100Y-90603200D01*
X144796000Y-81345700D02*
X144450300Y-81000000D01*
X144796000Y-83500000D02*
X144796000Y-81345700D01*
X133000000Y-68950000D02*
X133000000Y-69750300D01*
X138950000Y-69750300D02*
X133000000Y-69750300D01*
X140675300Y-69750300D02*
X138950000Y-69750300D01*
X145975000Y-75050000D02*
X140675300Y-69750300D01*
X138950000Y-69750300D02*
X138950000Y-62000000D01*
X131450300Y-71300000D02*
X133000000Y-69750300D01*
X131450300Y-72120000D02*
X131450300Y-71300000D01*
X129000000Y-72120000D02*
X131450300Y-72120000D01*
X129000000Y-76500000D02*
X129118800Y-76500000D01*
X129118800Y-76500000D02*
X129237600Y-76500000D01*
X129118800Y-74189100D02*
X129000000Y-74070300D01*
X129118800Y-76500000D02*
X129118800Y-74189100D01*
X129000000Y-72120000D02*
X129000000Y-74070300D01*
X132147600Y-51602700D02*
X132500000Y-51250300D01*
X129443600Y-51602700D02*
X132147600Y-51602700D01*
X128600400Y-50759500D02*
X129443600Y-51602700D01*
X128600400Y-49837700D02*
X128600400Y-50759500D01*
X128412300Y-49649600D02*
X128600400Y-49837700D01*
X121036500Y-49649600D02*
X128412300Y-49649600D01*
D33*
X161624400Y-84749100D02*
X158375300Y-81500000D01*
X161624400Y-85848900D02*
X161624400Y-84749100D01*
X157250000Y-81500000D02*
X158375300Y-81500000D01*
X162312200Y-85848900D02*
X161624400Y-85848900D01*
X162312200Y-85848900D02*
X163000000Y-85848900D01*
X164375600Y-90425300D02*
X164500000Y-90549700D01*
X164375600Y-85848900D02*
X164375600Y-90425300D01*
X163000000Y-85848900D02*
X164375600Y-85848900D01*
X164500000Y-91500000D02*
X164500000Y-90549700D01*
X164375600Y-71574700D02*
X164500000Y-71450300D01*
X164375600Y-76151100D02*
X164375600Y-71574700D01*
X163000000Y-76151100D02*
X164375600Y-76151100D01*
X164500000Y-70500000D02*
X164500000Y-71450300D01*
X158375300Y-79400200D02*
X161624400Y-76151100D01*
X158375300Y-80700000D02*
X158375300Y-79400200D01*
X163000000Y-76151100D02*
X161624400Y-76151100D01*
X157250000Y-80700000D02*
X158375300Y-80700000D01*
X137975300Y-49551000D02*
X139075300Y-48451000D01*
X137975300Y-50450000D02*
X137975300Y-49551000D01*
X140000000Y-48451000D02*
X139075300Y-48451000D01*
X137000000Y-50450000D02*
X137975300Y-50450000D01*
X143975300Y-49551000D02*
X145075300Y-48451000D01*
X143975300Y-50450000D02*
X143975300Y-49551000D01*
X146000000Y-48451000D02*
X145075300Y-48451000D01*
X143000000Y-50450000D02*
X143975300Y-50450000D01*
X149975300Y-49551000D02*
X151075300Y-48451000D01*
X149975300Y-50450000D02*
X149975300Y-49551000D01*
X152000000Y-48451000D02*
X151075300Y-48451000D01*
X149000000Y-50450000D02*
X149975300Y-50450000D01*
X156474200Y-78124700D02*
X155800000Y-78124700D01*
X163331200Y-71267700D02*
X156474200Y-78124700D01*
X163331200Y-68231500D02*
X163331200Y-71267700D01*
X169768900Y-61793800D02*
X163331200Y-68231500D01*
X169768900Y-49000000D02*
X169768900Y-61793800D01*
X168580000Y-49000000D02*
X169768900Y-49000000D01*
X155800000Y-79250000D02*
X155800000Y-78124700D01*
X155059600Y-78065100D02*
X155000000Y-78124700D01*
X155059600Y-77644800D02*
X155059600Y-78065100D01*
X155000000Y-79250000D02*
X155000000Y-78124700D01*
X168580000Y-58000000D02*
X168580000Y-59341300D01*
X154200000Y-77620100D02*
X154200000Y-79250000D01*
X154800600Y-77019500D02*
X154200000Y-77620100D01*
X155210400Y-77019500D02*
X154800600Y-77019500D01*
X159365400Y-72864500D02*
X155210400Y-77019500D01*
X159365400Y-71330400D02*
X159365400Y-72864500D01*
X158170400Y-70135400D02*
X159365400Y-71330400D01*
X155661900Y-70135400D02*
X158170400Y-70135400D01*
X154634400Y-69107900D02*
X155661900Y-70135400D01*
X154634400Y-67547400D02*
X154634400Y-69107900D01*
X155776800Y-66405000D02*
X154634400Y-67547400D01*
X161516300Y-66405000D02*
X155776800Y-66405000D01*
X168580000Y-59341300D02*
X161516300Y-66405000D01*
X151000000Y-79250000D02*
X151000000Y-80375300D01*
X151274700Y-80650000D02*
X151284900Y-80650000D01*
X151000000Y-80375300D02*
X151274700Y-80650000D01*
X149585700Y-79864300D02*
X150200000Y-79250000D01*
X149174600Y-79864300D02*
X149585700Y-79864300D01*
X148750000Y-80700000D02*
X150351100Y-80700000D01*
X148750000Y-82300000D02*
X149875300Y-82300000D01*
X154232700Y-82300000D02*
X154472400Y-82060300D01*
X149875300Y-82300000D02*
X154232700Y-82300000D01*
X173500000Y-79460000D02*
X173500000Y-80648900D01*
X147261800Y-85500000D02*
X148750000Y-85500000D01*
X146936600Y-85174800D02*
X147261800Y-85500000D01*
X146371800Y-85174800D02*
X146936600Y-85174800D01*
X146009300Y-85537300D02*
X146371800Y-85174800D01*
X146009300Y-89691200D02*
X146009300Y-85537300D01*
X148629100Y-92311000D02*
X146009300Y-89691200D01*
X150038900Y-92311000D02*
X148629100Y-92311000D01*
X150189000Y-92461100D02*
X150038900Y-92311000D01*
X150189000Y-93888800D02*
X150189000Y-92461100D01*
X150989200Y-94689000D02*
X150189000Y-93888800D01*
X163946700Y-94689000D02*
X150989200Y-94689000D01*
X174884900Y-83750800D02*
X163946700Y-94689000D01*
X174884900Y-80993500D02*
X174884900Y-83750800D01*
X174540300Y-80648900D02*
X174884900Y-80993500D01*
X173500000Y-80648900D02*
X174540300Y-80648900D01*
X148750000Y-86300000D02*
X149875300Y-86300000D01*
X151374700Y-84800600D02*
X149875300Y-86300000D01*
X155189500Y-84800600D02*
X151374700Y-84800600D01*
X151398800Y-85425900D02*
X150200000Y-86624700D01*
X152278500Y-85425900D02*
X151398800Y-85425900D01*
X150200000Y-87750000D02*
X150200000Y-86624700D01*
X151286800Y-86337900D02*
X151000000Y-86624700D01*
X152267500Y-86337900D02*
X151286800Y-86337900D01*
X151000000Y-87750000D02*
X151000000Y-86624700D01*
X151800000Y-87750000D02*
X151800000Y-88875300D01*
X146790600Y-85800100D02*
X146677500Y-85800100D01*
X147445900Y-86455400D02*
X146790600Y-85800100D01*
X147445900Y-86568500D02*
X147445900Y-86455400D01*
X149752700Y-88875300D02*
X147445900Y-86568500D01*
X151800000Y-88875300D02*
X149752700Y-88875300D01*
X127500000Y-48550000D02*
X126524700Y-48550000D01*
X126465400Y-48490700D02*
X126328700Y-48490700D01*
X126524700Y-48550000D02*
X126465400Y-48490700D01*
X130000000Y-48550000D02*
X130000000Y-47874700D01*
X130009400Y-47865300D02*
X130009400Y-47667400D01*
X130000000Y-47874700D02*
X130009400Y-47865300D01*
X152149600Y-89325700D02*
X152600000Y-88875300D01*
X149383400Y-89325700D02*
X152149600Y-89325700D01*
X146820600Y-86762900D02*
X149383400Y-89325700D01*
X152600000Y-87750000D02*
X152600000Y-88875300D01*
X153400000Y-89674700D02*
X153400000Y-87750000D01*
X152887600Y-90187100D02*
X153400000Y-89674700D01*
X152887600Y-91490200D02*
X152887600Y-90187100D01*
X153708500Y-92311100D02*
X152887600Y-91490200D01*
X154080000Y-92311100D02*
X153708500Y-92311100D01*
X154080000Y-93500000D02*
X154080000Y-92905500D01*
X154080000Y-92905500D02*
X154080000Y-92311100D01*
X156980200Y-92905500D02*
X157024700Y-92950000D01*
X154080000Y-92905500D02*
X156980200Y-92905500D01*
X158000000Y-92950000D02*
X157024700Y-92950000D01*
D32*
X132129700Y-56880000D02*
X132249700Y-57000000D01*
X129000000Y-56880000D02*
X132129700Y-56880000D01*
X133050000Y-57000000D02*
X132249700Y-57000000D01*
X116998500Y-77532200D02*
X120000000Y-80533700D01*
X116998500Y-68501500D02*
X116998500Y-77532200D01*
X120500000Y-65000000D02*
X116998500Y-68501500D01*
X120000000Y-82000000D02*
X120000000Y-80533700D01*
D34*
X166040000Y-53500000D02*
X166040000Y-49000000D01*
X166040000Y-58000000D02*
X166040000Y-53500000D01*
X166040000Y-59460000D02*
X166040000Y-58000000D01*
X164810000Y-60690000D02*
X166040000Y-59460000D01*
X157000000Y-60690000D02*
X164810000Y-60690000D01*
D32*
X157000000Y-56880000D02*
X154549700Y-56880000D01*
X153569300Y-55899600D02*
X154549700Y-56880000D01*
X134325400Y-55899600D02*
X153569300Y-55899600D01*
X133850400Y-56374600D02*
X134325400Y-55899600D01*
X133850400Y-57862200D02*
X133850400Y-56374600D01*
X133313000Y-58399600D02*
X133850400Y-57862200D01*
X131246400Y-58399600D02*
X133313000Y-58399600D01*
X129688400Y-59957600D02*
X131246400Y-58399600D01*
X120263100Y-59957600D02*
X129688400Y-59957600D01*
X116666800Y-56361300D02*
X120263100Y-59957600D01*
X116666800Y-51874900D02*
X116666800Y-56361300D01*
X124360800Y-42460000D02*
X125000000Y-42460000D01*
X123245200Y-41344400D02*
X124360800Y-42460000D01*
X125000000Y-42460000D02*
X127540000Y-42460000D01*
D33*
X133475300Y-47792500D02*
X133475300Y-48550000D01*
X132987700Y-48550000D02*
X133475300Y-48550000D01*
X132987700Y-48550000D02*
X132500000Y-48550000D01*
X131257800Y-50214300D02*
X131257800Y-50852400D01*
X132246800Y-49225300D02*
X131257800Y-50214300D01*
X132500000Y-49225300D02*
X132246800Y-49225300D01*
X132500000Y-48550000D02*
X132500000Y-49225300D01*
X137000000Y-48550000D02*
X137000000Y-47874700D01*
X137211300Y-47663400D02*
X137700000Y-47663400D01*
X137000000Y-47874700D02*
X137211300Y-47663400D01*
X143000000Y-48550000D02*
X143000000Y-47874700D01*
X142839700Y-47714400D02*
X143000000Y-47874700D01*
X142839700Y-47672000D02*
X142839700Y-47714400D01*
X149000000Y-48550000D02*
X149000000Y-47874700D01*
X147865300Y-46740000D02*
X144667500Y-46740000D01*
X149000000Y-47874700D02*
X147865300Y-46740000D01*
X131325300Y-64700000D02*
X133000000Y-66374700D01*
X131325300Y-64500000D02*
X131325300Y-64700000D01*
X129000000Y-64500000D02*
X131325300Y-64500000D01*
X133000000Y-67050000D02*
X133000000Y-66712300D01*
X133000000Y-66712300D02*
X133000000Y-66374700D01*
X134687000Y-66712300D02*
X135024700Y-67050000D01*
X133000000Y-66712300D02*
X134687000Y-66712300D01*
X136000000Y-67050000D02*
X135024700Y-67050000D01*
X125544700Y-92870000D02*
X125674700Y-93000000D01*
X125267500Y-92870000D02*
X125544700Y-92870000D01*
X127000000Y-93000000D02*
X125674700Y-93000000D01*
X131464900Y-91500000D02*
X127000000Y-91500000D01*
X135118000Y-95153100D02*
X131464900Y-91500000D01*
X164119500Y-95153100D02*
X135118000Y-95153100D01*
X175335300Y-83937300D02*
X164119500Y-95153100D01*
X175335300Y-55974400D02*
X175335300Y-83937300D01*
X174719500Y-55358600D02*
X175335300Y-55974400D01*
X174719500Y-41962200D02*
X174719500Y-55358600D01*
X173105800Y-40348500D02*
X174719500Y-41962200D01*
X140294000Y-40348500D02*
X173105800Y-40348500D01*
X140203100Y-40439400D02*
X140294000Y-40348500D01*
X143000000Y-90000000D02*
X144325300Y-90000000D01*
X144526600Y-89798700D02*
X144564800Y-89798700D01*
X144325300Y-90000000D02*
X144526600Y-89798700D01*
X129741900Y-68274700D02*
X136000000Y-68274700D01*
X123881300Y-74135300D02*
X129741900Y-68274700D01*
X123881300Y-79317400D02*
X123881300Y-74135300D01*
X122540000Y-80658700D02*
X123881300Y-79317400D01*
X122540000Y-82000000D02*
X122540000Y-80658700D01*
X136000000Y-68950000D02*
X136000000Y-68274700D01*
X137050000Y-62000000D02*
X136000000Y-62000000D01*
X136000000Y-62000000D02*
X134950000Y-62000000D01*
X148750000Y-84700000D02*
X147624700Y-84700000D01*
X147624700Y-84700000D02*
X145357900Y-84700000D01*
X134950000Y-59500000D02*
X134950000Y-57000000D01*
X133050000Y-62000000D02*
X133050000Y-59500000D01*
M02*
