G04 (created by PCBNEW (2013-dec-23)-stable) date Mon 23 Jun 2014 14:09:51 BST*
%MOIN*%
G04 Gerber Fmt 3.4, Leading zero omitted, Abs format*
%FSLAX34Y34*%
G01*
G70*
G90*
G04 APERTURE LIST*
%ADD10C,0.00590551*%
%ADD11C,0.011811*%
%ADD12C,0.0031*%
%ADD13C,0.0039*%
%ADD14C,0.0047*%
%ADD15C,0.0043*%
G04 APERTURE END LIST*
G54D10*
G54D11*
X78427Y-61339D02*
X78427Y-60748D01*
X78764Y-61339D01*
X78764Y-60748D01*
X79130Y-61001D02*
X79074Y-60973D01*
X79045Y-60945D01*
X79017Y-60889D01*
X79017Y-60860D01*
X79045Y-60804D01*
X79074Y-60776D01*
X79130Y-60748D01*
X79242Y-60748D01*
X79298Y-60776D01*
X79327Y-60804D01*
X79355Y-60860D01*
X79355Y-60889D01*
X79327Y-60945D01*
X79298Y-60973D01*
X79242Y-61001D01*
X79130Y-61001D01*
X79074Y-61029D01*
X79045Y-61057D01*
X79017Y-61114D01*
X79017Y-61226D01*
X79045Y-61282D01*
X79074Y-61310D01*
X79130Y-61339D01*
X79242Y-61339D01*
X79298Y-61310D01*
X79327Y-61282D01*
X79355Y-61226D01*
X79355Y-61114D01*
X79327Y-61057D01*
X79298Y-61029D01*
X79242Y-61001D01*
X79917Y-61339D02*
X79580Y-61339D01*
X79748Y-61339D02*
X79748Y-60748D01*
X79692Y-60832D01*
X79636Y-60889D01*
X79580Y-60917D01*
X80170Y-61339D02*
X80170Y-60748D01*
X80508Y-61339D01*
X80508Y-60748D01*
X80986Y-61029D02*
X80789Y-61029D01*
X80789Y-61339D02*
X80789Y-60748D01*
X81070Y-60748D01*
X81295Y-61114D02*
X81745Y-61114D01*
X82026Y-60748D02*
X82026Y-61226D01*
X82054Y-61282D01*
X82083Y-61310D01*
X82139Y-61339D01*
X82251Y-61339D01*
X82307Y-61310D01*
X82336Y-61282D01*
X82364Y-61226D01*
X82364Y-60748D01*
X82645Y-60945D02*
X82645Y-61535D01*
X82645Y-60973D02*
X82701Y-60945D01*
X82814Y-60945D01*
X82870Y-60973D01*
X82898Y-61001D01*
X82926Y-61057D01*
X82926Y-61226D01*
X82898Y-61282D01*
X82870Y-61310D01*
X82814Y-61339D01*
X82701Y-61339D01*
X82645Y-61310D01*
X83432Y-60945D02*
X83432Y-61423D01*
X83404Y-61479D01*
X83376Y-61507D01*
X83320Y-61535D01*
X83235Y-61535D01*
X83179Y-61507D01*
X83432Y-61310D02*
X83376Y-61339D01*
X83264Y-61339D01*
X83207Y-61310D01*
X83179Y-61282D01*
X83151Y-61226D01*
X83151Y-61057D01*
X83179Y-61001D01*
X83207Y-60973D01*
X83264Y-60945D01*
X83376Y-60945D01*
X83432Y-60973D01*
X83714Y-61339D02*
X83714Y-60945D01*
X83714Y-61057D02*
X83742Y-61001D01*
X83770Y-60973D01*
X83826Y-60945D01*
X83882Y-60945D01*
X84332Y-61339D02*
X84332Y-61029D01*
X84304Y-60973D01*
X84248Y-60945D01*
X84135Y-60945D01*
X84079Y-60973D01*
X84332Y-61310D02*
X84276Y-61339D01*
X84135Y-61339D01*
X84079Y-61310D01*
X84051Y-61254D01*
X84051Y-61198D01*
X84079Y-61142D01*
X84135Y-61114D01*
X84276Y-61114D01*
X84332Y-61085D01*
X84867Y-61339D02*
X84867Y-60748D01*
X84867Y-61310D02*
X84810Y-61339D01*
X84698Y-61339D01*
X84642Y-61310D01*
X84613Y-61282D01*
X84585Y-61226D01*
X84585Y-61057D01*
X84613Y-61001D01*
X84642Y-60973D01*
X84698Y-60945D01*
X84810Y-60945D01*
X84867Y-60973D01*
X85373Y-61310D02*
X85316Y-61339D01*
X85204Y-61339D01*
X85148Y-61310D01*
X85120Y-61254D01*
X85120Y-61029D01*
X85148Y-60973D01*
X85204Y-60945D01*
X85316Y-60945D01*
X85373Y-60973D01*
X85401Y-61029D01*
X85401Y-61085D01*
X85120Y-61142D01*
X86048Y-60945D02*
X86188Y-61339D01*
X86329Y-60945D01*
X86863Y-61339D02*
X86526Y-61339D01*
X86694Y-61339D02*
X86694Y-60748D01*
X86638Y-60832D01*
X86582Y-60889D01*
X86526Y-60917D01*
X87116Y-61282D02*
X87144Y-61310D01*
X87116Y-61339D01*
X87088Y-61310D01*
X87116Y-61282D01*
X87116Y-61339D01*
X87510Y-60748D02*
X87566Y-60748D01*
X87622Y-60776D01*
X87651Y-60804D01*
X87679Y-60860D01*
X87707Y-60973D01*
X87707Y-61114D01*
X87679Y-61226D01*
X87651Y-61282D01*
X87622Y-61310D01*
X87566Y-61339D01*
X87510Y-61339D01*
X87454Y-61310D01*
X87426Y-61282D01*
X87397Y-61226D01*
X87369Y-61114D01*
X87369Y-60973D01*
X87397Y-60860D01*
X87426Y-60804D01*
X87454Y-60776D01*
X87510Y-60748D01*
X87960Y-61114D02*
X88410Y-61114D01*
X88804Y-60748D02*
X88860Y-60748D01*
X88916Y-60776D01*
X88944Y-60804D01*
X88972Y-60860D01*
X89000Y-60973D01*
X89000Y-61114D01*
X88972Y-61226D01*
X88944Y-61282D01*
X88916Y-61310D01*
X88860Y-61339D01*
X88804Y-61339D01*
X88747Y-61310D01*
X88719Y-61282D01*
X88691Y-61226D01*
X88663Y-61114D01*
X88663Y-60973D01*
X88691Y-60860D01*
X88719Y-60804D01*
X88747Y-60776D01*
X88804Y-60748D01*
X80930Y-62115D02*
X81211Y-62115D01*
X80873Y-62283D02*
X81070Y-61693D01*
X81267Y-62283D01*
X81576Y-62002D02*
X81576Y-62283D01*
X81379Y-61693D02*
X81576Y-62002D01*
X81773Y-61693D01*
X81970Y-62283D02*
X81970Y-61693D01*
X82111Y-61693D01*
X82195Y-61721D01*
X82251Y-61777D01*
X82279Y-61833D01*
X82307Y-61946D01*
X82307Y-62030D01*
X82279Y-62143D01*
X82251Y-62199D01*
X82195Y-62255D01*
X82111Y-62283D01*
X81970Y-62283D01*
X82561Y-62283D02*
X82561Y-61693D01*
X82786Y-61693D01*
X82842Y-61721D01*
X82870Y-61749D01*
X82898Y-61805D01*
X82898Y-61890D01*
X82870Y-61946D01*
X82842Y-61974D01*
X82786Y-62002D01*
X82561Y-62002D01*
X83601Y-62283D02*
X83601Y-61693D01*
X83826Y-61693D01*
X83882Y-61721D01*
X83910Y-61749D01*
X83939Y-61805D01*
X83939Y-61890D01*
X83910Y-61946D01*
X83882Y-61974D01*
X83826Y-62002D01*
X83601Y-62002D01*
X84192Y-62283D02*
X84192Y-61890D01*
X84192Y-62002D02*
X84220Y-61946D01*
X84248Y-61918D01*
X84304Y-61890D01*
X84360Y-61890D01*
X84642Y-62283D02*
X84585Y-62255D01*
X84557Y-62227D01*
X84529Y-62171D01*
X84529Y-62002D01*
X84557Y-61946D01*
X84585Y-61918D01*
X84642Y-61890D01*
X84726Y-61890D01*
X84782Y-61918D01*
X84810Y-61946D01*
X84838Y-62002D01*
X84838Y-62171D01*
X84810Y-62227D01*
X84782Y-62255D01*
X84726Y-62283D01*
X84642Y-62283D01*
X85092Y-61890D02*
X85092Y-62396D01*
X85063Y-62452D01*
X85007Y-62480D01*
X84979Y-62480D01*
X85092Y-61693D02*
X85063Y-61721D01*
X85092Y-61749D01*
X85120Y-61721D01*
X85092Y-61693D01*
X85092Y-61749D01*
X85598Y-62255D02*
X85541Y-62283D01*
X85429Y-62283D01*
X85373Y-62255D01*
X85345Y-62199D01*
X85345Y-61974D01*
X85373Y-61918D01*
X85429Y-61890D01*
X85541Y-61890D01*
X85598Y-61918D01*
X85626Y-61974D01*
X85626Y-62030D01*
X85345Y-62087D01*
X86132Y-62255D02*
X86076Y-62283D01*
X85963Y-62283D01*
X85907Y-62255D01*
X85879Y-62227D01*
X85851Y-62171D01*
X85851Y-62002D01*
X85879Y-61946D01*
X85907Y-61918D01*
X85963Y-61890D01*
X86076Y-61890D01*
X86132Y-61918D01*
X86301Y-61890D02*
X86526Y-61890D01*
X86385Y-61693D02*
X86385Y-62199D01*
X86413Y-62255D01*
X86469Y-62283D01*
X86526Y-62283D01*
X81647Y-62638D02*
X81647Y-63060D01*
X81619Y-63144D01*
X81562Y-63200D01*
X81478Y-63228D01*
X81422Y-63228D01*
X82181Y-62835D02*
X82181Y-63228D01*
X81928Y-62835D02*
X81928Y-63144D01*
X81956Y-63200D01*
X82012Y-63228D01*
X82097Y-63228D01*
X82153Y-63200D01*
X82181Y-63172D01*
X82462Y-62835D02*
X82462Y-63228D01*
X82462Y-62891D02*
X82490Y-62863D01*
X82547Y-62835D01*
X82631Y-62835D01*
X82687Y-62863D01*
X82715Y-62919D01*
X82715Y-63228D01*
X83221Y-63200D02*
X83165Y-63228D01*
X83053Y-63228D01*
X82996Y-63200D01*
X82968Y-63144D01*
X82968Y-62919D01*
X82996Y-62863D01*
X83053Y-62835D01*
X83165Y-62835D01*
X83221Y-62863D01*
X83250Y-62919D01*
X83250Y-62975D01*
X82968Y-63031D01*
X83924Y-62694D02*
X83953Y-62666D01*
X84009Y-62638D01*
X84149Y-62638D01*
X84206Y-62666D01*
X84234Y-62694D01*
X84262Y-62750D01*
X84262Y-62806D01*
X84234Y-62891D01*
X83896Y-63228D01*
X84262Y-63228D01*
X84628Y-62638D02*
X84684Y-62638D01*
X84740Y-62666D01*
X84768Y-62694D01*
X84796Y-62750D01*
X84824Y-62863D01*
X84824Y-63003D01*
X84796Y-63116D01*
X84768Y-63172D01*
X84740Y-63200D01*
X84684Y-63228D01*
X84628Y-63228D01*
X84571Y-63200D01*
X84543Y-63172D01*
X84515Y-63116D01*
X84487Y-63003D01*
X84487Y-62863D01*
X84515Y-62750D01*
X84543Y-62694D01*
X84571Y-62666D01*
X84628Y-62638D01*
X85387Y-63228D02*
X85049Y-63228D01*
X85218Y-63228D02*
X85218Y-62638D01*
X85162Y-62722D01*
X85106Y-62778D01*
X85049Y-62806D01*
X85893Y-62835D02*
X85893Y-63228D01*
X85752Y-62610D02*
X85612Y-63031D01*
X85977Y-63031D01*
X80002Y-63583D02*
X80339Y-63583D01*
X80170Y-64173D02*
X80170Y-63583D01*
X80536Y-64173D02*
X80536Y-63779D01*
X80536Y-63583D02*
X80508Y-63611D01*
X80536Y-63639D01*
X80564Y-63611D01*
X80536Y-63583D01*
X80536Y-63639D01*
X80817Y-64173D02*
X80817Y-63779D01*
X80817Y-63836D02*
X80845Y-63808D01*
X80901Y-63779D01*
X80986Y-63779D01*
X81042Y-63808D01*
X81070Y-63864D01*
X81070Y-64173D01*
X81070Y-63864D02*
X81098Y-63808D01*
X81155Y-63779D01*
X81239Y-63779D01*
X81295Y-63808D01*
X81323Y-63864D01*
X81323Y-64173D01*
X82251Y-63864D02*
X82336Y-63892D01*
X82364Y-63920D01*
X82392Y-63976D01*
X82392Y-64061D01*
X82364Y-64117D01*
X82336Y-64145D01*
X82279Y-64173D01*
X82054Y-64173D01*
X82054Y-63583D01*
X82251Y-63583D01*
X82307Y-63611D01*
X82336Y-63639D01*
X82364Y-63695D01*
X82364Y-63751D01*
X82336Y-63808D01*
X82307Y-63836D01*
X82251Y-63864D01*
X82054Y-63864D01*
X82645Y-64173D02*
X82645Y-63779D01*
X82645Y-63892D02*
X82673Y-63836D01*
X82701Y-63808D01*
X82757Y-63779D01*
X82814Y-63779D01*
X83095Y-64173D02*
X83039Y-64145D01*
X83011Y-64117D01*
X82982Y-64061D01*
X82982Y-63892D01*
X83011Y-63836D01*
X83039Y-63808D01*
X83095Y-63779D01*
X83179Y-63779D01*
X83235Y-63808D01*
X83264Y-63836D01*
X83292Y-63892D01*
X83292Y-64061D01*
X83264Y-64117D01*
X83235Y-64145D01*
X83179Y-64173D01*
X83095Y-64173D01*
X83798Y-64145D02*
X83742Y-64173D01*
X83629Y-64173D01*
X83573Y-64145D01*
X83545Y-64117D01*
X83517Y-64061D01*
X83517Y-63892D01*
X83545Y-63836D01*
X83573Y-63808D01*
X83629Y-63779D01*
X83742Y-63779D01*
X83798Y-63808D01*
X84051Y-64173D02*
X84051Y-63583D01*
X84107Y-63948D02*
X84276Y-64173D01*
X84276Y-63779D02*
X84051Y-64004D01*
X84613Y-64173D02*
X84557Y-64145D01*
X84529Y-64089D01*
X84529Y-63583D01*
X85063Y-64145D02*
X85007Y-64173D01*
X84895Y-64173D01*
X84838Y-64145D01*
X84810Y-64089D01*
X84810Y-63864D01*
X84838Y-63808D01*
X84895Y-63779D01*
X85007Y-63779D01*
X85063Y-63808D01*
X85092Y-63864D01*
X85092Y-63920D01*
X84810Y-63976D01*
X85345Y-64173D02*
X85345Y-63583D01*
X85598Y-64173D02*
X85598Y-63864D01*
X85570Y-63808D01*
X85513Y-63779D01*
X85429Y-63779D01*
X85373Y-63808D01*
X85345Y-63836D01*
X86132Y-63779D02*
X86132Y-64173D01*
X85879Y-63779D02*
X85879Y-64089D01*
X85907Y-64145D01*
X85963Y-64173D01*
X86048Y-64173D01*
X86104Y-64145D01*
X86132Y-64117D01*
X86413Y-64173D02*
X86413Y-63779D01*
X86413Y-63892D02*
X86441Y-63836D01*
X86469Y-63808D01*
X86526Y-63779D01*
X86582Y-63779D01*
X86751Y-64145D02*
X86807Y-64173D01*
X86919Y-64173D01*
X86976Y-64145D01*
X87004Y-64089D01*
X87004Y-64061D01*
X86976Y-64004D01*
X86919Y-63976D01*
X86835Y-63976D01*
X86779Y-63948D01*
X86751Y-63892D01*
X86751Y-63864D01*
X86779Y-63808D01*
X86835Y-63779D01*
X86919Y-63779D01*
X86976Y-63808D01*
X87173Y-63779D02*
X87397Y-63779D01*
X87257Y-63583D02*
X87257Y-64089D01*
X87285Y-64145D01*
X87341Y-64173D01*
X87397Y-64173D01*
G54D12*
X84000Y-62248D02*
G75*
G03X84000Y-62248I-62J0D01*
G74*
G01*
X83600Y-63211D02*
X84000Y-63211D01*
X83600Y-62186D02*
X84000Y-62186D01*
X84000Y-63211D02*
X84000Y-62186D01*
X83600Y-62186D02*
X83600Y-63211D01*
X87569Y-60613D02*
G75*
G03X87569Y-60613I-62J0D01*
G74*
G01*
X87949Y-61533D02*
X88231Y-61250D01*
X87224Y-60808D02*
X87507Y-60525D01*
X88231Y-61250D02*
X87507Y-60525D01*
X87224Y-60808D02*
X87949Y-61533D01*
X80449Y-60907D02*
G75*
G03X80449Y-60907I-62J0D01*
G74*
G01*
X79466Y-61349D02*
X79749Y-61631D01*
X80191Y-60624D02*
X80474Y-60907D01*
X79749Y-61631D02*
X80474Y-60907D01*
X80191Y-60624D02*
X79466Y-61349D01*
X78813Y-57338D02*
G75*
G03X78813Y-57338I-62J0D01*
G74*
G01*
X77788Y-57000D02*
X77788Y-57400D01*
X78813Y-57000D02*
X78813Y-57400D01*
X77788Y-57400D02*
X78813Y-57400D01*
X78813Y-57000D02*
X77788Y-57000D01*
X80253Y-53687D02*
G75*
G03X80253Y-53687I-62J0D01*
G74*
G01*
X79749Y-52768D02*
X79466Y-53050D01*
X80474Y-53492D02*
X80191Y-53775D01*
X79466Y-53050D02*
X80191Y-53775D01*
X80474Y-53492D02*
X79749Y-52768D01*
X83724Y-52151D02*
G75*
G03X83724Y-52151I-62J0D01*
G74*
G01*
X84000Y-51188D02*
X83600Y-51188D01*
X84000Y-52213D02*
X83600Y-52213D01*
X83600Y-51188D02*
X83600Y-52213D01*
X84000Y-52213D02*
X84000Y-51188D01*
X87374Y-53492D02*
G75*
G03X87374Y-53492I-62J0D01*
G74*
G01*
X88231Y-53050D02*
X87949Y-52768D01*
X87507Y-53775D02*
X87224Y-53492D01*
X87949Y-52768D02*
X87224Y-53492D01*
X87507Y-53775D02*
X88231Y-53050D01*
X88911Y-57062D02*
G75*
G03X88911Y-57062I-62J0D01*
G74*
G01*
X89811Y-57400D02*
X89811Y-57000D01*
X88786Y-57400D02*
X88786Y-57000D01*
X89811Y-57000D02*
X88786Y-57000D01*
X88786Y-57400D02*
X89811Y-57400D01*
G54D13*
X86113Y-54616D02*
G75*
G03X86113Y-54616I-50J0D01*
G74*
G01*
X86513Y-54616D02*
X86113Y-54616D01*
X86113Y-54616D02*
X86113Y-55216D01*
X86113Y-55216D02*
X86513Y-55216D01*
X86913Y-55216D02*
X87313Y-55216D01*
X87313Y-55216D02*
X87313Y-54616D01*
X87313Y-54616D02*
X86913Y-54616D01*
X81148Y-60487D02*
G75*
G03X81148Y-60487I-50J0D01*
G74*
G01*
X81098Y-60037D02*
X81098Y-60437D01*
X81098Y-60437D02*
X81698Y-60437D01*
X81698Y-60437D02*
X81698Y-60037D01*
X81698Y-59637D02*
X81698Y-59237D01*
X81698Y-59237D02*
X81098Y-59237D01*
X81098Y-59237D02*
X81098Y-59637D01*
X86113Y-53829D02*
G75*
G03X86113Y-53829I-50J0D01*
G74*
G01*
X86513Y-53829D02*
X86113Y-53829D01*
X86113Y-53829D02*
X86113Y-54429D01*
X86113Y-54429D02*
X86513Y-54429D01*
X86913Y-54429D02*
X87313Y-54429D01*
X87313Y-54429D02*
X87313Y-53829D01*
X87313Y-53829D02*
X86913Y-53829D01*
X86148Y-60487D02*
G75*
G03X86148Y-60487I-50J0D01*
G74*
G01*
X86098Y-60037D02*
X86098Y-60437D01*
X86098Y-60437D02*
X86698Y-60437D01*
X86698Y-60437D02*
X86698Y-60037D01*
X86698Y-59637D02*
X86698Y-59237D01*
X86698Y-59237D02*
X86098Y-59237D01*
X86098Y-59237D02*
X86098Y-59637D01*
X86148Y-58125D02*
G75*
G03X86148Y-58125I-50J0D01*
G74*
G01*
X86098Y-57675D02*
X86098Y-58075D01*
X86098Y-58075D02*
X86698Y-58075D01*
X86698Y-58075D02*
X86698Y-57675D01*
X86698Y-57275D02*
X86698Y-56875D01*
X86698Y-56875D02*
X86098Y-56875D01*
X86098Y-56875D02*
X86098Y-57275D01*
X85124Y-60487D02*
G75*
G03X85124Y-60487I-50J0D01*
G74*
G01*
X85074Y-60037D02*
X85074Y-60437D01*
X85074Y-60437D02*
X85674Y-60437D01*
X85674Y-60437D02*
X85674Y-60037D01*
X85674Y-59637D02*
X85674Y-59237D01*
X85674Y-59237D02*
X85074Y-59237D01*
X85074Y-59237D02*
X85074Y-59637D01*
X85164Y-58125D02*
G75*
G03X85164Y-58125I-50J0D01*
G74*
G01*
X85114Y-57675D02*
X85114Y-58075D01*
X85114Y-58075D02*
X85714Y-58075D01*
X85714Y-58075D02*
X85714Y-57675D01*
X85714Y-57275D02*
X85714Y-56875D01*
X85714Y-56875D02*
X85114Y-56875D01*
X85114Y-56875D02*
X85114Y-57275D01*
X83156Y-60487D02*
G75*
G03X83156Y-60487I-50J0D01*
G74*
G01*
X83106Y-60037D02*
X83106Y-60437D01*
X83106Y-60437D02*
X83706Y-60437D01*
X83706Y-60437D02*
X83706Y-60037D01*
X83706Y-59637D02*
X83706Y-59237D01*
X83706Y-59237D02*
X83106Y-59237D01*
X83106Y-59237D02*
X83106Y-59637D01*
X83156Y-58125D02*
G75*
G03X83156Y-58125I-50J0D01*
G74*
G01*
X83106Y-57675D02*
X83106Y-58075D01*
X83106Y-58075D02*
X83706Y-58075D01*
X83706Y-58075D02*
X83706Y-57675D01*
X83706Y-57275D02*
X83706Y-56875D01*
X83706Y-56875D02*
X83106Y-56875D01*
X83106Y-56875D02*
X83106Y-57275D01*
X84140Y-60487D02*
G75*
G03X84140Y-60487I-50J0D01*
G74*
G01*
X84090Y-60037D02*
X84090Y-60437D01*
X84090Y-60437D02*
X84690Y-60437D01*
X84690Y-60437D02*
X84690Y-60037D01*
X84690Y-59637D02*
X84690Y-59237D01*
X84690Y-59237D02*
X84090Y-59237D01*
X84090Y-59237D02*
X84090Y-59637D01*
X84140Y-58125D02*
G75*
G03X84140Y-58125I-50J0D01*
G74*
G01*
X84090Y-57675D02*
X84090Y-58075D01*
X84090Y-58075D02*
X84690Y-58075D01*
X84690Y-58075D02*
X84690Y-57675D01*
X84690Y-57275D02*
X84690Y-56875D01*
X84690Y-56875D02*
X84090Y-56875D01*
X84090Y-56875D02*
X84090Y-57275D01*
X82172Y-60487D02*
G75*
G03X82172Y-60487I-50J0D01*
G74*
G01*
X82122Y-60037D02*
X82122Y-60437D01*
X82122Y-60437D02*
X82722Y-60437D01*
X82722Y-60437D02*
X82722Y-60037D01*
X82722Y-59637D02*
X82722Y-59237D01*
X82722Y-59237D02*
X82122Y-59237D01*
X82122Y-59237D02*
X82122Y-59637D01*
X82172Y-58125D02*
G75*
G03X82172Y-58125I-50J0D01*
G74*
G01*
X82122Y-57675D02*
X82122Y-58075D01*
X82122Y-58075D02*
X82722Y-58075D01*
X82722Y-58075D02*
X82722Y-57675D01*
X82722Y-57275D02*
X82722Y-56875D01*
X82722Y-56875D02*
X82122Y-56875D01*
X82122Y-56875D02*
X82122Y-57275D01*
X81148Y-58125D02*
G75*
G03X81148Y-58125I-50J0D01*
G74*
G01*
X81098Y-57675D02*
X81098Y-58075D01*
X81098Y-58075D02*
X81698Y-58075D01*
X81698Y-58075D02*
X81698Y-57675D01*
X81698Y-57275D02*
X81698Y-56875D01*
X81698Y-56875D02*
X81098Y-56875D01*
X81098Y-56875D02*
X81098Y-57275D01*
X79140Y-60409D02*
G75*
G03X79140Y-60409I-50J0D01*
G74*
G01*
X79090Y-59959D02*
X79090Y-60359D01*
X79090Y-60359D02*
X79690Y-60359D01*
X79690Y-60359D02*
X79690Y-59959D01*
X79690Y-59559D02*
X79690Y-59159D01*
X79690Y-59159D02*
X79090Y-59159D01*
X79090Y-59159D02*
X79090Y-59559D01*
X79179Y-58125D02*
G75*
G03X79179Y-58125I-50J0D01*
G74*
G01*
X79129Y-57675D02*
X79129Y-58075D01*
X79129Y-58075D02*
X79729Y-58075D01*
X79729Y-58075D02*
X79729Y-57675D01*
X79729Y-57275D02*
X79729Y-56875D01*
X79729Y-56875D02*
X79129Y-56875D01*
X79129Y-56875D02*
X79129Y-57275D01*
X80164Y-60487D02*
G75*
G03X80164Y-60487I-50J0D01*
G74*
G01*
X80114Y-60037D02*
X80114Y-60437D01*
X80114Y-60437D02*
X80714Y-60437D01*
X80714Y-60437D02*
X80714Y-60037D01*
X80714Y-59637D02*
X80714Y-59237D01*
X80714Y-59237D02*
X80114Y-59237D01*
X80114Y-59237D02*
X80114Y-59637D01*
X80164Y-58125D02*
G75*
G03X80164Y-58125I-50J0D01*
G74*
G01*
X80114Y-57675D02*
X80114Y-58075D01*
X80114Y-58075D02*
X80714Y-58075D01*
X80714Y-58075D02*
X80714Y-57675D01*
X80714Y-57275D02*
X80714Y-56875D01*
X80714Y-56875D02*
X80114Y-56875D01*
X80114Y-56875D02*
X80114Y-57275D01*
X80321Y-50468D02*
G75*
G03X80321Y-50468I-50J0D01*
G74*
G01*
X80271Y-50018D02*
X80271Y-50418D01*
X80271Y-50418D02*
X80871Y-50418D01*
X80871Y-50418D02*
X80871Y-50018D01*
X80871Y-49618D02*
X80871Y-49218D01*
X80871Y-49218D02*
X80271Y-49218D01*
X80271Y-49218D02*
X80271Y-49618D01*
G54D12*
X82514Y-49897D02*
G75*
G03X82514Y-49897I-62J0D01*
G74*
G01*
X81488Y-49559D02*
X81488Y-49959D01*
X82513Y-49559D02*
X82513Y-49959D01*
X81488Y-49959D02*
X82513Y-49959D01*
X82513Y-49559D02*
X81488Y-49559D01*
G54D14*
X84275Y-63320D02*
X84275Y-63563D01*
X84261Y-63591D01*
X84246Y-63605D01*
X84218Y-63620D01*
X84161Y-63620D01*
X84132Y-63605D01*
X84118Y-63591D01*
X84103Y-63563D01*
X84103Y-63320D01*
X83803Y-63620D02*
X83975Y-63620D01*
X83889Y-63620D02*
X83889Y-63320D01*
X83918Y-63363D01*
X83946Y-63391D01*
X83975Y-63405D01*
X83618Y-63320D02*
X83589Y-63320D01*
X83561Y-63334D01*
X83546Y-63348D01*
X83532Y-63377D01*
X83518Y-63434D01*
X83518Y-63505D01*
X83532Y-63563D01*
X83546Y-63591D01*
X83561Y-63605D01*
X83589Y-63620D01*
X83618Y-63620D01*
X83646Y-63605D01*
X83661Y-63591D01*
X83675Y-63563D01*
X83689Y-63505D01*
X83689Y-63434D01*
X83675Y-63377D01*
X83661Y-63348D01*
X83646Y-63334D01*
X83618Y-63320D01*
X83418Y-63320D02*
X83218Y-63320D01*
X83346Y-63620D01*
X88503Y-61132D02*
X88675Y-61304D01*
X88685Y-61334D01*
X88685Y-61354D01*
X88675Y-61385D01*
X88634Y-61425D01*
X88604Y-61435D01*
X88584Y-61435D01*
X88553Y-61425D01*
X88382Y-61253D01*
X88382Y-61678D02*
X88503Y-61556D01*
X88442Y-61617D02*
X88230Y-61405D01*
X88281Y-61415D01*
X88321Y-61415D01*
X88351Y-61405D01*
X88038Y-61597D02*
X88018Y-61617D01*
X88008Y-61647D01*
X88008Y-61668D01*
X88018Y-61698D01*
X88048Y-61748D01*
X88099Y-61799D01*
X88149Y-61829D01*
X88180Y-61839D01*
X88200Y-61839D01*
X88230Y-61829D01*
X88250Y-61809D01*
X88260Y-61779D01*
X88260Y-61759D01*
X88250Y-61728D01*
X88220Y-61678D01*
X88169Y-61627D01*
X88119Y-61597D01*
X88089Y-61587D01*
X88068Y-61587D01*
X88038Y-61597D01*
X87937Y-61880D02*
X87947Y-61849D01*
X87947Y-61829D01*
X87937Y-61799D01*
X87927Y-61789D01*
X87897Y-61779D01*
X87877Y-61779D01*
X87846Y-61789D01*
X87806Y-61829D01*
X87796Y-61860D01*
X87796Y-61880D01*
X87806Y-61910D01*
X87816Y-61920D01*
X87846Y-61930D01*
X87866Y-61930D01*
X87897Y-61920D01*
X87937Y-61880D01*
X87967Y-61870D01*
X87988Y-61870D01*
X88018Y-61880D01*
X88058Y-61920D01*
X88068Y-61950D01*
X88068Y-61971D01*
X88058Y-62001D01*
X88018Y-62041D01*
X87988Y-62051D01*
X87967Y-62051D01*
X87937Y-62041D01*
X87897Y-62001D01*
X87887Y-61971D01*
X87887Y-61950D01*
X87897Y-61920D01*
X79867Y-61903D02*
X79695Y-62075D01*
X79665Y-62085D01*
X79645Y-62085D01*
X79614Y-62075D01*
X79574Y-62034D01*
X79564Y-62004D01*
X79564Y-61984D01*
X79574Y-61953D01*
X79746Y-61782D01*
X79321Y-61782D02*
X79443Y-61903D01*
X79382Y-61842D02*
X79594Y-61630D01*
X79584Y-61681D01*
X79584Y-61721D01*
X79594Y-61751D01*
X79402Y-61438D02*
X79382Y-61418D01*
X79352Y-61408D01*
X79331Y-61408D01*
X79301Y-61418D01*
X79251Y-61448D01*
X79200Y-61499D01*
X79170Y-61549D01*
X79160Y-61580D01*
X79160Y-61600D01*
X79170Y-61630D01*
X79190Y-61650D01*
X79220Y-61660D01*
X79240Y-61660D01*
X79271Y-61650D01*
X79321Y-61620D01*
X79372Y-61569D01*
X79402Y-61519D01*
X79412Y-61489D01*
X79412Y-61468D01*
X79402Y-61438D01*
X79150Y-61186D02*
X79190Y-61226D01*
X79200Y-61256D01*
X79200Y-61277D01*
X79190Y-61327D01*
X79160Y-61378D01*
X79079Y-61458D01*
X79049Y-61468D01*
X79028Y-61468D01*
X78998Y-61458D01*
X78958Y-61418D01*
X78948Y-61388D01*
X78948Y-61367D01*
X78958Y-61337D01*
X79008Y-61287D01*
X79038Y-61277D01*
X79059Y-61277D01*
X79089Y-61287D01*
X79129Y-61327D01*
X79139Y-61357D01*
X79139Y-61378D01*
X79129Y-61408D01*
X77414Y-57021D02*
X77414Y-57264D01*
X77400Y-57292D01*
X77385Y-57307D01*
X77357Y-57321D01*
X77300Y-57321D01*
X77271Y-57307D01*
X77257Y-57292D01*
X77242Y-57264D01*
X77242Y-57021D01*
X76942Y-57321D02*
X77114Y-57321D01*
X77028Y-57321D02*
X77028Y-57021D01*
X77057Y-57064D01*
X77085Y-57092D01*
X77114Y-57107D01*
X76757Y-57021D02*
X76728Y-57021D01*
X76700Y-57035D01*
X76685Y-57050D01*
X76671Y-57078D01*
X76657Y-57135D01*
X76657Y-57207D01*
X76671Y-57264D01*
X76685Y-57292D01*
X76700Y-57307D01*
X76728Y-57321D01*
X76757Y-57321D01*
X76785Y-57307D01*
X76800Y-57292D01*
X76814Y-57264D01*
X76828Y-57207D01*
X76828Y-57135D01*
X76814Y-57078D01*
X76800Y-57050D01*
X76785Y-57035D01*
X76757Y-57021D01*
X76385Y-57021D02*
X76528Y-57021D01*
X76542Y-57164D01*
X76528Y-57150D01*
X76500Y-57135D01*
X76428Y-57135D01*
X76400Y-57150D01*
X76385Y-57164D01*
X76371Y-57192D01*
X76371Y-57264D01*
X76385Y-57292D01*
X76400Y-57307D01*
X76428Y-57321D01*
X76500Y-57321D01*
X76528Y-57307D01*
X76542Y-57292D01*
X79669Y-52188D02*
X79841Y-52360D01*
X79851Y-52391D01*
X79851Y-52411D01*
X79841Y-52441D01*
X79801Y-52481D01*
X79770Y-52492D01*
X79750Y-52492D01*
X79720Y-52481D01*
X79548Y-52310D01*
X79548Y-52734D02*
X79669Y-52613D01*
X79609Y-52673D02*
X79397Y-52461D01*
X79447Y-52471D01*
X79488Y-52471D01*
X79518Y-52461D01*
X79205Y-52653D02*
X79185Y-52673D01*
X79174Y-52704D01*
X79174Y-52724D01*
X79185Y-52754D01*
X79215Y-52805D01*
X79265Y-52855D01*
X79316Y-52886D01*
X79346Y-52896D01*
X79366Y-52896D01*
X79397Y-52886D01*
X79417Y-52865D01*
X79427Y-52835D01*
X79427Y-52815D01*
X79417Y-52784D01*
X79387Y-52734D01*
X79336Y-52683D01*
X79286Y-52653D01*
X79255Y-52643D01*
X79235Y-52643D01*
X79205Y-52653D01*
X79023Y-52976D02*
X79164Y-53118D01*
X78993Y-52845D02*
X79195Y-52946D01*
X79063Y-53077D01*
X84214Y-50621D02*
X84214Y-50864D01*
X84200Y-50892D01*
X84185Y-50907D01*
X84157Y-50921D01*
X84100Y-50921D01*
X84071Y-50907D01*
X84057Y-50892D01*
X84042Y-50864D01*
X84042Y-50621D01*
X83742Y-50921D02*
X83914Y-50921D01*
X83828Y-50921D02*
X83828Y-50621D01*
X83857Y-50664D01*
X83885Y-50692D01*
X83914Y-50707D01*
X83557Y-50621D02*
X83528Y-50621D01*
X83500Y-50635D01*
X83485Y-50650D01*
X83471Y-50678D01*
X83457Y-50735D01*
X83457Y-50807D01*
X83471Y-50864D01*
X83485Y-50892D01*
X83500Y-50907D01*
X83528Y-50921D01*
X83557Y-50921D01*
X83585Y-50907D01*
X83600Y-50892D01*
X83614Y-50864D01*
X83628Y-50807D01*
X83628Y-50735D01*
X83614Y-50678D01*
X83600Y-50650D01*
X83585Y-50635D01*
X83557Y-50621D01*
X83357Y-50621D02*
X83171Y-50621D01*
X83271Y-50735D01*
X83228Y-50735D01*
X83200Y-50750D01*
X83185Y-50764D01*
X83171Y-50792D01*
X83171Y-50864D01*
X83185Y-50892D01*
X83200Y-50907D01*
X83228Y-50921D01*
X83314Y-50921D01*
X83342Y-50907D01*
X83357Y-50892D01*
X88811Y-52971D02*
X88639Y-53143D01*
X88608Y-53153D01*
X88588Y-53153D01*
X88558Y-53143D01*
X88518Y-53102D01*
X88507Y-53072D01*
X88507Y-53052D01*
X88518Y-53021D01*
X88689Y-52850D01*
X88265Y-52850D02*
X88386Y-52971D01*
X88326Y-52910D02*
X88538Y-52698D01*
X88528Y-52749D01*
X88528Y-52789D01*
X88538Y-52819D01*
X88346Y-52506D02*
X88326Y-52486D01*
X88295Y-52476D01*
X88275Y-52476D01*
X88245Y-52486D01*
X88194Y-52516D01*
X88144Y-52567D01*
X88113Y-52617D01*
X88103Y-52648D01*
X88103Y-52668D01*
X88113Y-52698D01*
X88134Y-52718D01*
X88164Y-52729D01*
X88184Y-52729D01*
X88215Y-52718D01*
X88265Y-52688D01*
X88316Y-52638D01*
X88346Y-52587D01*
X88356Y-52557D01*
X88356Y-52537D01*
X88346Y-52506D01*
X88174Y-52375D02*
X88174Y-52355D01*
X88164Y-52324D01*
X88113Y-52274D01*
X88083Y-52264D01*
X88063Y-52264D01*
X88033Y-52274D01*
X88012Y-52294D01*
X87992Y-52335D01*
X87992Y-52577D01*
X87861Y-52446D01*
X91114Y-57021D02*
X91114Y-57264D01*
X91100Y-57292D01*
X91085Y-57307D01*
X91057Y-57321D01*
X91000Y-57321D01*
X90971Y-57307D01*
X90957Y-57292D01*
X90942Y-57264D01*
X90942Y-57021D01*
X90642Y-57321D02*
X90814Y-57321D01*
X90728Y-57321D02*
X90728Y-57021D01*
X90757Y-57064D01*
X90785Y-57092D01*
X90814Y-57107D01*
X90457Y-57021D02*
X90428Y-57021D01*
X90400Y-57035D01*
X90385Y-57050D01*
X90371Y-57078D01*
X90357Y-57135D01*
X90357Y-57207D01*
X90371Y-57264D01*
X90385Y-57292D01*
X90400Y-57307D01*
X90428Y-57321D01*
X90457Y-57321D01*
X90485Y-57307D01*
X90500Y-57292D01*
X90514Y-57264D01*
X90528Y-57207D01*
X90528Y-57135D01*
X90514Y-57078D01*
X90500Y-57050D01*
X90485Y-57035D01*
X90457Y-57021D01*
X90071Y-57321D02*
X90242Y-57321D01*
X90157Y-57321D02*
X90157Y-57021D01*
X90185Y-57064D01*
X90214Y-57092D01*
X90242Y-57107D01*
G54D15*
X85960Y-54679D02*
X85970Y-54670D01*
X85979Y-54642D01*
X85979Y-54623D01*
X85970Y-54595D01*
X85951Y-54576D01*
X85932Y-54566D01*
X85895Y-54557D01*
X85867Y-54557D01*
X85829Y-54566D01*
X85810Y-54576D01*
X85792Y-54595D01*
X85782Y-54623D01*
X85782Y-54642D01*
X85792Y-54670D01*
X85801Y-54679D01*
X85979Y-54867D02*
X85979Y-54754D01*
X85979Y-54810D02*
X85782Y-54810D01*
X85810Y-54792D01*
X85829Y-54773D01*
X85839Y-54754D01*
X85979Y-55054D02*
X85979Y-54942D01*
X85979Y-54998D02*
X85782Y-54998D01*
X85810Y-54979D01*
X85829Y-54960D01*
X85839Y-54942D01*
X85782Y-55176D02*
X85782Y-55195D01*
X85792Y-55214D01*
X85801Y-55223D01*
X85820Y-55233D01*
X85857Y-55242D01*
X85904Y-55242D01*
X85942Y-55233D01*
X85960Y-55223D01*
X85970Y-55214D01*
X85979Y-55195D01*
X85979Y-55176D01*
X85970Y-55157D01*
X85960Y-55148D01*
X85942Y-55139D01*
X85904Y-55129D01*
X85857Y-55129D01*
X85820Y-55139D01*
X85801Y-55148D01*
X85792Y-55157D01*
X85782Y-55176D01*
X81620Y-60779D02*
X81686Y-60685D01*
X81733Y-60779D02*
X81733Y-60582D01*
X81657Y-60582D01*
X81639Y-60592D01*
X81629Y-60601D01*
X81620Y-60620D01*
X81620Y-60648D01*
X81629Y-60667D01*
X81639Y-60676D01*
X81657Y-60685D01*
X81733Y-60685D01*
X81432Y-60779D02*
X81545Y-60779D01*
X81489Y-60779D02*
X81489Y-60582D01*
X81507Y-60610D01*
X81526Y-60629D01*
X81545Y-60639D01*
X81310Y-60582D02*
X81292Y-60582D01*
X81273Y-60592D01*
X81263Y-60601D01*
X81254Y-60620D01*
X81245Y-60657D01*
X81245Y-60704D01*
X81254Y-60742D01*
X81263Y-60760D01*
X81273Y-60770D01*
X81292Y-60779D01*
X81310Y-60779D01*
X81329Y-60770D01*
X81339Y-60760D01*
X81348Y-60742D01*
X81357Y-60704D01*
X81357Y-60657D01*
X81348Y-60620D01*
X81339Y-60601D01*
X81329Y-60592D01*
X81310Y-60582D01*
X81179Y-60582D02*
X81057Y-60582D01*
X81123Y-60657D01*
X81095Y-60657D01*
X81076Y-60667D01*
X81066Y-60676D01*
X81057Y-60695D01*
X81057Y-60742D01*
X81066Y-60760D01*
X81076Y-60770D01*
X81095Y-60779D01*
X81151Y-60779D01*
X81170Y-60770D01*
X81179Y-60760D01*
X85960Y-53879D02*
X85970Y-53870D01*
X85979Y-53842D01*
X85979Y-53823D01*
X85970Y-53795D01*
X85951Y-53776D01*
X85932Y-53766D01*
X85895Y-53757D01*
X85867Y-53757D01*
X85829Y-53766D01*
X85810Y-53776D01*
X85792Y-53795D01*
X85782Y-53823D01*
X85782Y-53842D01*
X85792Y-53870D01*
X85801Y-53879D01*
X85979Y-54067D02*
X85979Y-53954D01*
X85979Y-54010D02*
X85782Y-54010D01*
X85810Y-53992D01*
X85829Y-53973D01*
X85839Y-53954D01*
X85979Y-54254D02*
X85979Y-54142D01*
X85979Y-54198D02*
X85782Y-54198D01*
X85810Y-54179D01*
X85829Y-54160D01*
X85839Y-54142D01*
X85979Y-54442D02*
X85979Y-54329D01*
X85979Y-54386D02*
X85782Y-54386D01*
X85810Y-54367D01*
X85829Y-54348D01*
X85839Y-54329D01*
X86620Y-60779D02*
X86686Y-60685D01*
X86733Y-60779D02*
X86733Y-60582D01*
X86657Y-60582D01*
X86639Y-60592D01*
X86629Y-60601D01*
X86620Y-60620D01*
X86620Y-60648D01*
X86629Y-60667D01*
X86639Y-60676D01*
X86657Y-60685D01*
X86733Y-60685D01*
X86432Y-60779D02*
X86545Y-60779D01*
X86489Y-60779D02*
X86489Y-60582D01*
X86507Y-60610D01*
X86526Y-60629D01*
X86545Y-60639D01*
X86310Y-60582D02*
X86292Y-60582D01*
X86273Y-60592D01*
X86263Y-60601D01*
X86254Y-60620D01*
X86245Y-60657D01*
X86245Y-60704D01*
X86254Y-60742D01*
X86263Y-60760D01*
X86273Y-60770D01*
X86292Y-60779D01*
X86310Y-60779D01*
X86329Y-60770D01*
X86339Y-60760D01*
X86348Y-60742D01*
X86357Y-60704D01*
X86357Y-60657D01*
X86348Y-60620D01*
X86339Y-60601D01*
X86329Y-60592D01*
X86310Y-60582D01*
X86132Y-60667D02*
X86151Y-60657D01*
X86160Y-60648D01*
X86170Y-60629D01*
X86170Y-60620D01*
X86160Y-60601D01*
X86151Y-60592D01*
X86132Y-60582D01*
X86095Y-60582D01*
X86076Y-60592D01*
X86066Y-60601D01*
X86057Y-60620D01*
X86057Y-60629D01*
X86066Y-60648D01*
X86076Y-60657D01*
X86095Y-60667D01*
X86132Y-60667D01*
X86151Y-60676D01*
X86160Y-60685D01*
X86170Y-60704D01*
X86170Y-60742D01*
X86160Y-60760D01*
X86151Y-60770D01*
X86132Y-60779D01*
X86095Y-60779D01*
X86076Y-60770D01*
X86066Y-60760D01*
X86057Y-60742D01*
X86057Y-60704D01*
X86066Y-60685D01*
X86076Y-60676D01*
X86095Y-60667D01*
X86620Y-56760D02*
X86629Y-56770D01*
X86657Y-56779D01*
X86676Y-56779D01*
X86704Y-56770D01*
X86723Y-56751D01*
X86733Y-56732D01*
X86742Y-56695D01*
X86742Y-56667D01*
X86733Y-56629D01*
X86723Y-56610D01*
X86704Y-56592D01*
X86676Y-56582D01*
X86657Y-56582D01*
X86629Y-56592D01*
X86620Y-56601D01*
X86432Y-56779D02*
X86545Y-56779D01*
X86489Y-56779D02*
X86489Y-56582D01*
X86507Y-56610D01*
X86526Y-56629D01*
X86545Y-56639D01*
X86310Y-56582D02*
X86292Y-56582D01*
X86273Y-56592D01*
X86263Y-56601D01*
X86254Y-56620D01*
X86245Y-56657D01*
X86245Y-56704D01*
X86254Y-56742D01*
X86263Y-56760D01*
X86273Y-56770D01*
X86292Y-56779D01*
X86310Y-56779D01*
X86329Y-56770D01*
X86339Y-56760D01*
X86348Y-56742D01*
X86357Y-56704D01*
X86357Y-56657D01*
X86348Y-56620D01*
X86339Y-56601D01*
X86329Y-56592D01*
X86310Y-56582D01*
X86132Y-56667D02*
X86151Y-56657D01*
X86160Y-56648D01*
X86170Y-56629D01*
X86170Y-56620D01*
X86160Y-56601D01*
X86151Y-56592D01*
X86132Y-56582D01*
X86095Y-56582D01*
X86076Y-56592D01*
X86066Y-56601D01*
X86057Y-56620D01*
X86057Y-56629D01*
X86066Y-56648D01*
X86076Y-56657D01*
X86095Y-56667D01*
X86132Y-56667D01*
X86151Y-56676D01*
X86160Y-56685D01*
X86170Y-56704D01*
X86170Y-56742D01*
X86160Y-56760D01*
X86151Y-56770D01*
X86132Y-56779D01*
X86095Y-56779D01*
X86076Y-56770D01*
X86066Y-56760D01*
X86057Y-56742D01*
X86057Y-56704D01*
X86066Y-56685D01*
X86076Y-56676D01*
X86095Y-56667D01*
X85620Y-60779D02*
X85686Y-60685D01*
X85733Y-60779D02*
X85733Y-60582D01*
X85657Y-60582D01*
X85639Y-60592D01*
X85629Y-60601D01*
X85620Y-60620D01*
X85620Y-60648D01*
X85629Y-60667D01*
X85639Y-60676D01*
X85657Y-60685D01*
X85733Y-60685D01*
X85432Y-60779D02*
X85545Y-60779D01*
X85489Y-60779D02*
X85489Y-60582D01*
X85507Y-60610D01*
X85526Y-60629D01*
X85545Y-60639D01*
X85310Y-60582D02*
X85292Y-60582D01*
X85273Y-60592D01*
X85263Y-60601D01*
X85254Y-60620D01*
X85245Y-60657D01*
X85245Y-60704D01*
X85254Y-60742D01*
X85263Y-60760D01*
X85273Y-60770D01*
X85292Y-60779D01*
X85310Y-60779D01*
X85329Y-60770D01*
X85339Y-60760D01*
X85348Y-60742D01*
X85357Y-60704D01*
X85357Y-60657D01*
X85348Y-60620D01*
X85339Y-60601D01*
X85329Y-60592D01*
X85310Y-60582D01*
X85179Y-60582D02*
X85048Y-60582D01*
X85132Y-60779D01*
X85620Y-56760D02*
X85629Y-56770D01*
X85657Y-56779D01*
X85676Y-56779D01*
X85704Y-56770D01*
X85723Y-56751D01*
X85733Y-56732D01*
X85742Y-56695D01*
X85742Y-56667D01*
X85733Y-56629D01*
X85723Y-56610D01*
X85704Y-56592D01*
X85676Y-56582D01*
X85657Y-56582D01*
X85629Y-56592D01*
X85620Y-56601D01*
X85432Y-56779D02*
X85545Y-56779D01*
X85489Y-56779D02*
X85489Y-56582D01*
X85507Y-56610D01*
X85526Y-56629D01*
X85545Y-56639D01*
X85310Y-56582D02*
X85292Y-56582D01*
X85273Y-56592D01*
X85263Y-56601D01*
X85254Y-56620D01*
X85245Y-56657D01*
X85245Y-56704D01*
X85254Y-56742D01*
X85263Y-56760D01*
X85273Y-56770D01*
X85292Y-56779D01*
X85310Y-56779D01*
X85329Y-56770D01*
X85339Y-56760D01*
X85348Y-56742D01*
X85357Y-56704D01*
X85357Y-56657D01*
X85348Y-56620D01*
X85339Y-56601D01*
X85329Y-56592D01*
X85310Y-56582D01*
X85179Y-56582D02*
X85048Y-56582D01*
X85132Y-56779D01*
X83620Y-60779D02*
X83686Y-60685D01*
X83733Y-60779D02*
X83733Y-60582D01*
X83657Y-60582D01*
X83639Y-60592D01*
X83629Y-60601D01*
X83620Y-60620D01*
X83620Y-60648D01*
X83629Y-60667D01*
X83639Y-60676D01*
X83657Y-60685D01*
X83733Y-60685D01*
X83432Y-60779D02*
X83545Y-60779D01*
X83489Y-60779D02*
X83489Y-60582D01*
X83507Y-60610D01*
X83526Y-60629D01*
X83545Y-60639D01*
X83310Y-60582D02*
X83292Y-60582D01*
X83273Y-60592D01*
X83263Y-60601D01*
X83254Y-60620D01*
X83245Y-60657D01*
X83245Y-60704D01*
X83254Y-60742D01*
X83263Y-60760D01*
X83273Y-60770D01*
X83292Y-60779D01*
X83310Y-60779D01*
X83329Y-60770D01*
X83339Y-60760D01*
X83348Y-60742D01*
X83357Y-60704D01*
X83357Y-60657D01*
X83348Y-60620D01*
X83339Y-60601D01*
X83329Y-60592D01*
X83310Y-60582D01*
X83066Y-60582D02*
X83160Y-60582D01*
X83170Y-60676D01*
X83160Y-60667D01*
X83142Y-60657D01*
X83095Y-60657D01*
X83076Y-60667D01*
X83066Y-60676D01*
X83057Y-60695D01*
X83057Y-60742D01*
X83066Y-60760D01*
X83076Y-60770D01*
X83095Y-60779D01*
X83142Y-60779D01*
X83160Y-60770D01*
X83170Y-60760D01*
X83620Y-56760D02*
X83629Y-56770D01*
X83657Y-56779D01*
X83676Y-56779D01*
X83704Y-56770D01*
X83723Y-56751D01*
X83733Y-56732D01*
X83742Y-56695D01*
X83742Y-56667D01*
X83733Y-56629D01*
X83723Y-56610D01*
X83704Y-56592D01*
X83676Y-56582D01*
X83657Y-56582D01*
X83629Y-56592D01*
X83620Y-56601D01*
X83432Y-56779D02*
X83545Y-56779D01*
X83489Y-56779D02*
X83489Y-56582D01*
X83507Y-56610D01*
X83526Y-56629D01*
X83545Y-56639D01*
X83310Y-56582D02*
X83292Y-56582D01*
X83273Y-56592D01*
X83263Y-56601D01*
X83254Y-56620D01*
X83245Y-56657D01*
X83245Y-56704D01*
X83254Y-56742D01*
X83263Y-56760D01*
X83273Y-56770D01*
X83292Y-56779D01*
X83310Y-56779D01*
X83329Y-56770D01*
X83339Y-56760D01*
X83348Y-56742D01*
X83357Y-56704D01*
X83357Y-56657D01*
X83348Y-56620D01*
X83339Y-56601D01*
X83329Y-56592D01*
X83310Y-56582D01*
X83066Y-56582D02*
X83160Y-56582D01*
X83170Y-56676D01*
X83160Y-56667D01*
X83142Y-56657D01*
X83095Y-56657D01*
X83076Y-56667D01*
X83066Y-56676D01*
X83057Y-56695D01*
X83057Y-56742D01*
X83066Y-56760D01*
X83076Y-56770D01*
X83095Y-56779D01*
X83142Y-56779D01*
X83160Y-56770D01*
X83170Y-56760D01*
X84620Y-60779D02*
X84686Y-60685D01*
X84733Y-60779D02*
X84733Y-60582D01*
X84657Y-60582D01*
X84639Y-60592D01*
X84629Y-60601D01*
X84620Y-60620D01*
X84620Y-60648D01*
X84629Y-60667D01*
X84639Y-60676D01*
X84657Y-60685D01*
X84733Y-60685D01*
X84432Y-60779D02*
X84545Y-60779D01*
X84489Y-60779D02*
X84489Y-60582D01*
X84507Y-60610D01*
X84526Y-60629D01*
X84545Y-60639D01*
X84310Y-60582D02*
X84292Y-60582D01*
X84273Y-60592D01*
X84263Y-60601D01*
X84254Y-60620D01*
X84245Y-60657D01*
X84245Y-60704D01*
X84254Y-60742D01*
X84263Y-60760D01*
X84273Y-60770D01*
X84292Y-60779D01*
X84310Y-60779D01*
X84329Y-60770D01*
X84339Y-60760D01*
X84348Y-60742D01*
X84357Y-60704D01*
X84357Y-60657D01*
X84348Y-60620D01*
X84339Y-60601D01*
X84329Y-60592D01*
X84310Y-60582D01*
X84076Y-60582D02*
X84113Y-60582D01*
X84132Y-60592D01*
X84142Y-60601D01*
X84160Y-60629D01*
X84170Y-60667D01*
X84170Y-60742D01*
X84160Y-60760D01*
X84151Y-60770D01*
X84132Y-60779D01*
X84095Y-60779D01*
X84076Y-60770D01*
X84066Y-60760D01*
X84057Y-60742D01*
X84057Y-60695D01*
X84066Y-60676D01*
X84076Y-60667D01*
X84095Y-60657D01*
X84132Y-60657D01*
X84151Y-60667D01*
X84160Y-60676D01*
X84170Y-60695D01*
X84620Y-56760D02*
X84629Y-56770D01*
X84657Y-56779D01*
X84676Y-56779D01*
X84704Y-56770D01*
X84723Y-56751D01*
X84733Y-56732D01*
X84742Y-56695D01*
X84742Y-56667D01*
X84733Y-56629D01*
X84723Y-56610D01*
X84704Y-56592D01*
X84676Y-56582D01*
X84657Y-56582D01*
X84629Y-56592D01*
X84620Y-56601D01*
X84432Y-56779D02*
X84545Y-56779D01*
X84489Y-56779D02*
X84489Y-56582D01*
X84507Y-56610D01*
X84526Y-56629D01*
X84545Y-56639D01*
X84310Y-56582D02*
X84292Y-56582D01*
X84273Y-56592D01*
X84263Y-56601D01*
X84254Y-56620D01*
X84245Y-56657D01*
X84245Y-56704D01*
X84254Y-56742D01*
X84263Y-56760D01*
X84273Y-56770D01*
X84292Y-56779D01*
X84310Y-56779D01*
X84329Y-56770D01*
X84339Y-56760D01*
X84348Y-56742D01*
X84357Y-56704D01*
X84357Y-56657D01*
X84348Y-56620D01*
X84339Y-56601D01*
X84329Y-56592D01*
X84310Y-56582D01*
X84076Y-56582D02*
X84113Y-56582D01*
X84132Y-56592D01*
X84142Y-56601D01*
X84160Y-56629D01*
X84170Y-56667D01*
X84170Y-56742D01*
X84160Y-56760D01*
X84151Y-56770D01*
X84132Y-56779D01*
X84095Y-56779D01*
X84076Y-56770D01*
X84066Y-56760D01*
X84057Y-56742D01*
X84057Y-56695D01*
X84066Y-56676D01*
X84076Y-56667D01*
X84095Y-56657D01*
X84132Y-56657D01*
X84151Y-56667D01*
X84160Y-56676D01*
X84170Y-56695D01*
X82679Y-60779D02*
X82585Y-60713D01*
X82679Y-60666D02*
X82482Y-60666D01*
X82482Y-60742D01*
X82492Y-60760D01*
X82501Y-60770D01*
X82520Y-60779D01*
X82548Y-60779D01*
X82567Y-60770D01*
X82576Y-60760D01*
X82585Y-60742D01*
X82585Y-60666D01*
X82679Y-60967D02*
X82679Y-60854D01*
X82679Y-60910D02*
X82482Y-60910D01*
X82510Y-60892D01*
X82529Y-60873D01*
X82539Y-60854D01*
X82482Y-61089D02*
X82482Y-61107D01*
X82492Y-61126D01*
X82501Y-61136D01*
X82520Y-61145D01*
X82557Y-61154D01*
X82604Y-61154D01*
X82642Y-61145D01*
X82660Y-61136D01*
X82670Y-61126D01*
X82679Y-61107D01*
X82679Y-61089D01*
X82670Y-61070D01*
X82660Y-61060D01*
X82642Y-61051D01*
X82604Y-61042D01*
X82557Y-61042D01*
X82520Y-61051D01*
X82501Y-61060D01*
X82492Y-61070D01*
X82482Y-61089D01*
X82548Y-61323D02*
X82679Y-61323D01*
X82473Y-61276D02*
X82614Y-61229D01*
X82614Y-61351D01*
X82620Y-56760D02*
X82629Y-56770D01*
X82657Y-56779D01*
X82676Y-56779D01*
X82704Y-56770D01*
X82723Y-56751D01*
X82733Y-56732D01*
X82742Y-56695D01*
X82742Y-56667D01*
X82733Y-56629D01*
X82723Y-56610D01*
X82704Y-56592D01*
X82676Y-56582D01*
X82657Y-56582D01*
X82629Y-56592D01*
X82620Y-56601D01*
X82432Y-56779D02*
X82545Y-56779D01*
X82489Y-56779D02*
X82489Y-56582D01*
X82507Y-56610D01*
X82526Y-56629D01*
X82545Y-56639D01*
X82310Y-56582D02*
X82292Y-56582D01*
X82273Y-56592D01*
X82263Y-56601D01*
X82254Y-56620D01*
X82245Y-56657D01*
X82245Y-56704D01*
X82254Y-56742D01*
X82263Y-56760D01*
X82273Y-56770D01*
X82292Y-56779D01*
X82310Y-56779D01*
X82329Y-56770D01*
X82339Y-56760D01*
X82348Y-56742D01*
X82357Y-56704D01*
X82357Y-56657D01*
X82348Y-56620D01*
X82339Y-56601D01*
X82329Y-56592D01*
X82310Y-56582D01*
X82076Y-56648D02*
X82076Y-56779D01*
X82123Y-56573D02*
X82170Y-56714D01*
X82048Y-56714D01*
X81620Y-56760D02*
X81629Y-56770D01*
X81657Y-56779D01*
X81676Y-56779D01*
X81704Y-56770D01*
X81723Y-56751D01*
X81733Y-56732D01*
X81742Y-56695D01*
X81742Y-56667D01*
X81733Y-56629D01*
X81723Y-56610D01*
X81704Y-56592D01*
X81676Y-56582D01*
X81657Y-56582D01*
X81629Y-56592D01*
X81620Y-56601D01*
X81432Y-56779D02*
X81545Y-56779D01*
X81489Y-56779D02*
X81489Y-56582D01*
X81507Y-56610D01*
X81526Y-56629D01*
X81545Y-56639D01*
X81310Y-56582D02*
X81292Y-56582D01*
X81273Y-56592D01*
X81263Y-56601D01*
X81254Y-56620D01*
X81245Y-56657D01*
X81245Y-56704D01*
X81254Y-56742D01*
X81263Y-56760D01*
X81273Y-56770D01*
X81292Y-56779D01*
X81310Y-56779D01*
X81329Y-56770D01*
X81339Y-56760D01*
X81348Y-56742D01*
X81357Y-56704D01*
X81357Y-56657D01*
X81348Y-56620D01*
X81339Y-56601D01*
X81329Y-56592D01*
X81310Y-56582D01*
X81179Y-56582D02*
X81057Y-56582D01*
X81123Y-56657D01*
X81095Y-56657D01*
X81076Y-56667D01*
X81066Y-56676D01*
X81057Y-56695D01*
X81057Y-56742D01*
X81066Y-56760D01*
X81076Y-56770D01*
X81095Y-56779D01*
X81151Y-56779D01*
X81170Y-56770D01*
X81179Y-56760D01*
X78820Y-60479D02*
X78886Y-60385D01*
X78933Y-60479D02*
X78933Y-60282D01*
X78857Y-60282D01*
X78839Y-60292D01*
X78829Y-60301D01*
X78820Y-60320D01*
X78820Y-60348D01*
X78829Y-60367D01*
X78839Y-60376D01*
X78857Y-60385D01*
X78933Y-60385D01*
X78632Y-60479D02*
X78745Y-60479D01*
X78689Y-60479D02*
X78689Y-60282D01*
X78707Y-60310D01*
X78726Y-60329D01*
X78745Y-60339D01*
X78510Y-60282D02*
X78492Y-60282D01*
X78473Y-60292D01*
X78463Y-60301D01*
X78454Y-60320D01*
X78445Y-60357D01*
X78445Y-60404D01*
X78454Y-60442D01*
X78463Y-60460D01*
X78473Y-60470D01*
X78492Y-60479D01*
X78510Y-60479D01*
X78529Y-60470D01*
X78539Y-60460D01*
X78548Y-60442D01*
X78557Y-60404D01*
X78557Y-60357D01*
X78548Y-60320D01*
X78539Y-60301D01*
X78529Y-60292D01*
X78510Y-60282D01*
X78257Y-60479D02*
X78370Y-60479D01*
X78313Y-60479D02*
X78313Y-60282D01*
X78332Y-60310D01*
X78351Y-60329D01*
X78370Y-60339D01*
X79620Y-56760D02*
X79629Y-56770D01*
X79657Y-56779D01*
X79676Y-56779D01*
X79704Y-56770D01*
X79723Y-56751D01*
X79733Y-56732D01*
X79742Y-56695D01*
X79742Y-56667D01*
X79733Y-56629D01*
X79723Y-56610D01*
X79704Y-56592D01*
X79676Y-56582D01*
X79657Y-56582D01*
X79629Y-56592D01*
X79620Y-56601D01*
X79432Y-56779D02*
X79545Y-56779D01*
X79489Y-56779D02*
X79489Y-56582D01*
X79507Y-56610D01*
X79526Y-56629D01*
X79545Y-56639D01*
X79310Y-56582D02*
X79292Y-56582D01*
X79273Y-56592D01*
X79263Y-56601D01*
X79254Y-56620D01*
X79245Y-56657D01*
X79245Y-56704D01*
X79254Y-56742D01*
X79263Y-56760D01*
X79273Y-56770D01*
X79292Y-56779D01*
X79310Y-56779D01*
X79329Y-56770D01*
X79339Y-56760D01*
X79348Y-56742D01*
X79357Y-56704D01*
X79357Y-56657D01*
X79348Y-56620D01*
X79339Y-56601D01*
X79329Y-56592D01*
X79310Y-56582D01*
X79057Y-56779D02*
X79170Y-56779D01*
X79113Y-56779D02*
X79113Y-56582D01*
X79132Y-56610D01*
X79151Y-56629D01*
X79170Y-56639D01*
X80620Y-60779D02*
X80686Y-60685D01*
X80733Y-60779D02*
X80733Y-60582D01*
X80657Y-60582D01*
X80639Y-60592D01*
X80629Y-60601D01*
X80620Y-60620D01*
X80620Y-60648D01*
X80629Y-60667D01*
X80639Y-60676D01*
X80657Y-60685D01*
X80733Y-60685D01*
X80432Y-60779D02*
X80545Y-60779D01*
X80489Y-60779D02*
X80489Y-60582D01*
X80507Y-60610D01*
X80526Y-60629D01*
X80545Y-60639D01*
X80310Y-60582D02*
X80292Y-60582D01*
X80273Y-60592D01*
X80263Y-60601D01*
X80254Y-60620D01*
X80245Y-60657D01*
X80245Y-60704D01*
X80254Y-60742D01*
X80263Y-60760D01*
X80273Y-60770D01*
X80292Y-60779D01*
X80310Y-60779D01*
X80329Y-60770D01*
X80339Y-60760D01*
X80348Y-60742D01*
X80357Y-60704D01*
X80357Y-60657D01*
X80348Y-60620D01*
X80339Y-60601D01*
X80329Y-60592D01*
X80310Y-60582D01*
X80170Y-60601D02*
X80160Y-60592D01*
X80142Y-60582D01*
X80095Y-60582D01*
X80076Y-60592D01*
X80066Y-60601D01*
X80057Y-60620D01*
X80057Y-60639D01*
X80066Y-60667D01*
X80179Y-60779D01*
X80057Y-60779D01*
X80620Y-56760D02*
X80629Y-56770D01*
X80657Y-56779D01*
X80676Y-56779D01*
X80704Y-56770D01*
X80723Y-56751D01*
X80733Y-56732D01*
X80742Y-56695D01*
X80742Y-56667D01*
X80733Y-56629D01*
X80723Y-56610D01*
X80704Y-56592D01*
X80676Y-56582D01*
X80657Y-56582D01*
X80629Y-56592D01*
X80620Y-56601D01*
X80432Y-56779D02*
X80545Y-56779D01*
X80489Y-56779D02*
X80489Y-56582D01*
X80507Y-56610D01*
X80526Y-56629D01*
X80545Y-56639D01*
X80310Y-56582D02*
X80292Y-56582D01*
X80273Y-56592D01*
X80263Y-56601D01*
X80254Y-56620D01*
X80245Y-56657D01*
X80245Y-56704D01*
X80254Y-56742D01*
X80263Y-56760D01*
X80273Y-56770D01*
X80292Y-56779D01*
X80310Y-56779D01*
X80329Y-56770D01*
X80339Y-56760D01*
X80348Y-56742D01*
X80357Y-56704D01*
X80357Y-56657D01*
X80348Y-56620D01*
X80339Y-56601D01*
X80329Y-56592D01*
X80310Y-56582D01*
X80170Y-56601D02*
X80160Y-56592D01*
X80142Y-56582D01*
X80095Y-56582D01*
X80076Y-56592D01*
X80066Y-56601D01*
X80057Y-56620D01*
X80057Y-56639D01*
X80066Y-56667D01*
X80179Y-56779D01*
X80057Y-56779D01*
X80820Y-48960D02*
X80829Y-48970D01*
X80857Y-48979D01*
X80876Y-48979D01*
X80904Y-48970D01*
X80923Y-48951D01*
X80933Y-48932D01*
X80942Y-48895D01*
X80942Y-48867D01*
X80933Y-48829D01*
X80923Y-48810D01*
X80904Y-48792D01*
X80876Y-48782D01*
X80857Y-48782D01*
X80829Y-48792D01*
X80820Y-48801D01*
X80632Y-48979D02*
X80745Y-48979D01*
X80689Y-48979D02*
X80689Y-48782D01*
X80707Y-48810D01*
X80726Y-48829D01*
X80745Y-48839D01*
X80510Y-48782D02*
X80492Y-48782D01*
X80473Y-48792D01*
X80463Y-48801D01*
X80454Y-48820D01*
X80445Y-48857D01*
X80445Y-48904D01*
X80454Y-48942D01*
X80463Y-48960D01*
X80473Y-48970D01*
X80492Y-48979D01*
X80510Y-48979D01*
X80529Y-48970D01*
X80539Y-48960D01*
X80548Y-48942D01*
X80557Y-48904D01*
X80557Y-48857D01*
X80548Y-48820D01*
X80539Y-48801D01*
X80529Y-48792D01*
X80510Y-48782D01*
X80351Y-48979D02*
X80313Y-48979D01*
X80295Y-48970D01*
X80285Y-48960D01*
X80266Y-48932D01*
X80257Y-48895D01*
X80257Y-48820D01*
X80266Y-48801D01*
X80276Y-48792D01*
X80295Y-48782D01*
X80332Y-48782D01*
X80351Y-48792D01*
X80360Y-48801D01*
X80370Y-48820D01*
X80370Y-48867D01*
X80360Y-48885D01*
X80351Y-48895D01*
X80332Y-48904D01*
X80295Y-48904D01*
X80276Y-48895D01*
X80266Y-48885D01*
X80257Y-48867D01*
G54D14*
X82514Y-48621D02*
X82514Y-48864D01*
X82500Y-48892D01*
X82485Y-48907D01*
X82457Y-48921D01*
X82400Y-48921D01*
X82371Y-48907D01*
X82357Y-48892D01*
X82342Y-48864D01*
X82342Y-48621D01*
X82042Y-48921D02*
X82214Y-48921D01*
X82128Y-48921D02*
X82128Y-48621D01*
X82157Y-48664D01*
X82185Y-48692D01*
X82214Y-48707D01*
X81757Y-48921D02*
X81928Y-48921D01*
X81842Y-48921D02*
X81842Y-48621D01*
X81871Y-48664D01*
X81900Y-48692D01*
X81928Y-48707D01*
X81571Y-48621D02*
X81542Y-48621D01*
X81514Y-48635D01*
X81500Y-48650D01*
X81485Y-48678D01*
X81471Y-48735D01*
X81471Y-48807D01*
X81485Y-48864D01*
X81500Y-48892D01*
X81514Y-48907D01*
X81542Y-48921D01*
X81571Y-48921D01*
X81600Y-48907D01*
X81614Y-48892D01*
X81628Y-48864D01*
X81642Y-48807D01*
X81642Y-48735D01*
X81628Y-48678D01*
X81614Y-48650D01*
X81600Y-48635D01*
X81571Y-48621D01*
M02*
