G04 (created by PCBNEW (2013-dec-23)-stable) date Mon 23 Jun 2014 14:09:51 BST*
%MOIN*%
G04 Gerber Fmt 3.4, Leading zero omitted, Abs format*
%FSLAX34Y34*%
G01*
G70*
G90*
G04 APERTURE LIST*
%ADD10C,0.00590551*%
%ADD11C,0.00787402*%
G04 APERTURE END LIST*
G54D10*
G54D11*
X85002Y-47431D02*
X84981Y-47748D01*
X84981Y-47748D02*
X85002Y-48066D01*
X85002Y-48066D02*
X85065Y-48377D01*
X85065Y-48377D02*
X85170Y-48678D01*
X85170Y-48678D02*
X85314Y-48961D01*
X85314Y-48961D02*
X85495Y-49223D01*
X85495Y-49223D02*
X85710Y-49458D01*
X85710Y-49458D02*
X85954Y-49662D01*
X85954Y-49662D02*
X86224Y-49831D01*
X86224Y-49831D02*
X86513Y-49962D01*
X86513Y-49962D02*
X86818Y-50054D01*
X86818Y-50054D02*
X87132Y-50103D01*
X87132Y-50103D02*
X87450Y-50110D01*
X87450Y-50110D02*
X87767Y-50075D01*
X87767Y-50075D02*
X88075Y-49997D01*
X88075Y-49997D02*
X88370Y-49878D01*
X88370Y-49878D02*
X88647Y-49720D01*
X88647Y-49720D02*
X88900Y-49527D01*
X88900Y-49527D02*
X89124Y-49302D01*
X89124Y-49302D02*
X89317Y-49049D01*
X74086Y-58787D02*
X74426Y-58775D01*
X74426Y-58775D02*
X74766Y-58806D01*
X74766Y-58806D02*
X75099Y-58878D01*
X75099Y-58878D02*
X75421Y-58990D01*
X75421Y-58990D02*
X75726Y-59142D01*
X75726Y-59142D02*
X76010Y-59330D01*
X76010Y-59330D02*
X76269Y-59551D01*
X76269Y-59551D02*
X76498Y-59803D01*
X76498Y-59803D02*
X76695Y-60082D01*
X76695Y-60082D02*
X76856Y-60382D01*
X76856Y-60382D02*
X76979Y-60700D01*
X76979Y-60700D02*
X77061Y-61031D01*
X77061Y-61031D02*
X77102Y-61369D01*
X77102Y-61369D02*
X77101Y-61710D01*
X77101Y-61710D02*
X77058Y-62048D01*
X77058Y-62048D02*
X76973Y-62378D01*
X76973Y-62378D02*
X76848Y-62695D01*
X76848Y-62695D02*
X76686Y-62994D01*
X76686Y-62994D02*
X76487Y-63271D01*
X76487Y-63271D02*
X76256Y-63522D01*
X85776Y-66842D02*
X85770Y-66553D01*
X85770Y-66553D02*
X85799Y-66266D01*
X85799Y-66266D02*
X85863Y-65984D01*
X85863Y-65984D02*
X85961Y-65713D01*
X85961Y-65713D02*
X86092Y-65455D01*
X86092Y-65455D02*
X86252Y-65215D01*
X86252Y-65215D02*
X86441Y-64997D01*
X86441Y-64997D02*
X86655Y-64803D01*
X86655Y-64803D02*
X86891Y-64637D01*
X86891Y-64637D02*
X87146Y-64501D01*
X87146Y-64501D02*
X87415Y-64397D01*
X87415Y-64397D02*
X87695Y-64326D01*
X87695Y-64326D02*
X87982Y-64291D01*
X87982Y-64291D02*
X88270Y-64290D01*
X88270Y-64290D02*
X88557Y-64325D01*
X88557Y-64325D02*
X88837Y-64394D01*
X88837Y-64394D02*
X89107Y-64498D01*
X89107Y-64498D02*
X89362Y-64633D01*
X89362Y-64633D02*
X89599Y-64798D01*
X89599Y-64798D02*
X89813Y-64991D01*
X74086Y-58787D02*
X73981Y-57880D01*
X73981Y-57880D02*
X73960Y-56968D01*
X73960Y-56968D02*
X74023Y-56057D01*
X74023Y-56057D02*
X74171Y-55157D01*
X74171Y-55157D02*
X74402Y-54274D01*
X74402Y-54274D02*
X74713Y-53416D01*
X74713Y-53416D02*
X75103Y-52590D01*
X75103Y-52590D02*
X75567Y-51805D01*
X75567Y-51805D02*
X76102Y-51065D01*
X76102Y-51065D02*
X76704Y-50379D01*
X76704Y-50379D02*
X77366Y-49751D01*
X77366Y-49751D02*
X78084Y-49187D01*
X78084Y-49187D02*
X78851Y-48692D01*
X78851Y-48692D02*
X79660Y-48270D01*
X79660Y-48270D02*
X80505Y-47925D01*
X80505Y-47925D02*
X81378Y-47659D01*
X81378Y-47659D02*
X82272Y-47476D01*
X82272Y-47476D02*
X83180Y-47377D01*
X83180Y-47377D02*
X84092Y-47361D01*
X84092Y-47361D02*
X85002Y-47431D01*
X85776Y-66842D02*
X85255Y-66934D01*
X85255Y-66934D02*
X84730Y-66998D01*
X84730Y-66998D02*
X84202Y-67034D01*
X84202Y-67034D02*
X83672Y-67041D01*
X83672Y-67041D02*
X83144Y-67020D01*
X83144Y-67020D02*
X82617Y-66971D01*
X82617Y-66971D02*
X82093Y-66893D01*
X82093Y-66893D02*
X81575Y-66787D01*
X81575Y-66787D02*
X81063Y-66654D01*
X81063Y-66654D02*
X80558Y-66493D01*
X80558Y-66493D02*
X80064Y-66305D01*
X80064Y-66305D02*
X79580Y-66092D01*
X79580Y-66092D02*
X79108Y-65852D01*
X79108Y-65852D02*
X78650Y-65587D01*
X78650Y-65587D02*
X78206Y-65298D01*
X78206Y-65298D02*
X77779Y-64986D01*
X77779Y-64986D02*
X77369Y-64651D01*
X77369Y-64651D02*
X76978Y-64295D01*
X76978Y-64295D02*
X76607Y-63918D01*
X76607Y-63918D02*
X76256Y-63522D01*
X89317Y-49049D02*
X90061Y-49605D01*
X90061Y-49605D02*
X90749Y-50230D01*
X90749Y-50230D02*
X91376Y-50916D01*
X91376Y-50916D02*
X91934Y-51659D01*
X91934Y-51659D02*
X92421Y-52451D01*
X92421Y-52451D02*
X92830Y-53285D01*
X92830Y-53285D02*
X93159Y-54154D01*
X93159Y-54154D02*
X93405Y-55051D01*
X93405Y-55051D02*
X93564Y-55966D01*
X93564Y-55966D02*
X93637Y-56893D01*
X93637Y-56893D02*
X93622Y-57822D01*
X93622Y-57822D02*
X93520Y-58746D01*
X93520Y-58746D02*
X93331Y-59656D01*
X93331Y-59656D02*
X93056Y-60544D01*
X93056Y-60544D02*
X92700Y-61402D01*
X92700Y-61402D02*
X92264Y-62223D01*
X92264Y-62223D02*
X91752Y-62999D01*
X91752Y-62999D02*
X91170Y-63723D01*
X91170Y-63723D02*
X90522Y-64389D01*
X90522Y-64389D02*
X89813Y-64991D01*
M02*
