M48
;DRILL file {Pcbnew (2013-dec-23)-stable} date Thu 24 Jul 2014 20:53:46 BST
;FORMAT={-:-/ absolute / metric / decimal}
FMAT,2
METRIC,TZ
T1C0.635
T2C0.813
T3C1.016
T4C3.048
%
G90
G05
M71
T1
X196.85Y-149.098
X198.882Y-148.082
X199.898Y-149.352
X200.502Y-154.428
X204.342Y-157.858
X207.264Y-131.064
X208.534Y-154.686
X210.566Y-130.302
X210.82Y-154.432
X212.09Y-155.448
X214.884Y-129.286
X215.832Y-155.738
X216.222Y-159.838
X216.662Y-136.652
X217.552Y-155.698
X218.432Y-154.738
X221.234Y-153.67
X221.742Y-132.842
X223.266Y-150.876
X223.52Y-145.288
X224.028Y-138.938
X224.332Y-143.698
X225.552Y-152.908
T2
X201.672Y-141.478
X201.672Y-149.098
X204.212Y-141.478
X204.212Y-149.098
X206.752Y-141.478
X206.752Y-149.098
X209.292Y-141.478
X209.292Y-149.098
X211.832Y-141.478
X211.832Y-149.098
X214.372Y-141.478
X214.372Y-149.098
X216.912Y-141.478
X216.912Y-149.098
X219.452Y-141.478
X219.452Y-149.098
X221.992Y-141.478
X221.992Y-149.098
X224.532Y-141.478
X224.532Y-149.098
T3
X207.292Y-135.268
X207.292Y-137.808
X209.832Y-135.268
X209.832Y-137.808
X212.372Y-135.268
X212.372Y-137.808
X214.912Y-135.268
X214.912Y-137.808
X229.947Y-159.588
X231.217Y-157.388
X232.487Y-155.188
X233.757Y-152.988
T4
X192.852Y-136.038
X207.102Y-166.538
X232.852Y-136.038
T0
M30
