M48
;DRILL file {Pcbnew (2013-dec-23)-stable} date Mon 23 Jun 2014 14:09:52 BST
;FORMAT={-:-/ absolute / metric / decimal}
FMAT,2
METRIC,TZ
T1C0.635
T2C0.813
T3C1.016
T4C3.048
%
G90
G05
M71
T1
X196.85Y149.098
X198.882Y148.082
X199.898Y149.352
X200.502Y154.428
X204.342Y157.858
X207.264Y131.064
X208.534Y154.686
X210.566Y130.302
X210.82Y154.432
X212.09Y155.448
X214.884Y129.286
X215.832Y155.738
X216.222Y159.838
X216.662Y136.652
X217.552Y155.698
X218.432Y154.738
X221.234Y153.67
X221.742Y132.842
X223.266Y150.876
X223.52Y145.288
X224.028Y138.938
X224.332Y143.698
X225.552Y152.908
T2
X201.672Y141.478
X201.672Y149.098
X204.212Y141.478
X204.212Y149.098
X206.752Y141.478
X206.752Y149.098
X209.292Y141.478
X209.292Y149.098
X211.832Y141.478
X211.832Y149.098
X214.372Y141.478
X214.372Y149.098
X216.912Y141.478
X216.912Y149.098
X219.452Y141.478
X219.452Y149.098
X221.992Y141.478
X221.992Y149.098
X224.532Y141.478
X224.532Y149.098
T3
X207.292Y135.268
X207.292Y137.808
X209.832Y135.268
X209.832Y137.808
X212.372Y135.268
X212.372Y137.808
X214.912Y135.268
X214.912Y137.808
X229.947Y159.588
X231.217Y157.388
X232.487Y155.188
X233.757Y152.988
T4
X192.852Y136.038
X207.102Y166.538
X232.852Y136.038
T0
M30
