G04 (created by PCBNEW (2013-dec-23)-stable) date Sat 02 Aug 2014 13:30:51 BST*
%MOIN*%
G04 Gerber Fmt 3.4, Leading zero omitted, Abs format*
%FSLAX34Y34*%
G01*
G70*
G90*
G04 APERTURE LIST*
%ADD10C,0.00590551*%
%ADD11R,0.0394X0.0315*%
%ADD12R,0.0315X0.0394*%
%ADD13R,0.035X0.055*%
%ADD14R,0.055X0.035*%
%ADD15R,0.06X0.06*%
%ADD16C,0.06*%
%ADD17R,0.055X0.055*%
%ADD18C,0.055*%
%ADD19C,0.16*%
G04 APERTURE END LIST*
G54D10*
G54D11*
X83367Y-62711D03*
X84233Y-63086D03*
X84233Y-62336D03*
G54D10*
G36*
X87180Y-61372D02*
X87458Y-61094D01*
X87681Y-61316D01*
X87402Y-61595D01*
X87180Y-61372D01*
X87180Y-61372D01*
G37*
G36*
X88057Y-61025D02*
X88336Y-60746D01*
X88559Y-60969D01*
X88280Y-61248D01*
X88057Y-61025D01*
X88057Y-61025D01*
G37*
G36*
X87527Y-60495D02*
X87805Y-60216D01*
X88028Y-60439D01*
X87750Y-60717D01*
X87527Y-60495D01*
X87527Y-60495D01*
G37*
G36*
X79627Y-60580D02*
X79905Y-60858D01*
X79683Y-61081D01*
X79404Y-60802D01*
X79627Y-60580D01*
X79627Y-60580D01*
G37*
G36*
X79974Y-61457D02*
X80253Y-61736D01*
X80030Y-61959D01*
X79751Y-61680D01*
X79974Y-61457D01*
X79974Y-61457D01*
G37*
G36*
X80504Y-60927D02*
X80783Y-61205D01*
X80560Y-61428D01*
X80282Y-61150D01*
X80504Y-60927D01*
X80504Y-60927D01*
G37*
G54D12*
X78288Y-56767D03*
X77913Y-57633D03*
X78663Y-57633D03*
G54D10*
G36*
X80518Y-52928D02*
X80239Y-53207D01*
X80016Y-52984D01*
X80295Y-52706D01*
X80518Y-52928D01*
X80518Y-52928D01*
G37*
G36*
X79640Y-53276D02*
X79362Y-53554D01*
X79139Y-53331D01*
X79418Y-53053D01*
X79640Y-53276D01*
X79640Y-53276D01*
G37*
G36*
X80171Y-53806D02*
X79892Y-54085D01*
X79669Y-53862D01*
X79948Y-53583D01*
X80171Y-53806D01*
X80171Y-53806D01*
G37*
G54D11*
X84233Y-51688D03*
X83367Y-51313D03*
X83367Y-52063D03*
G54D10*
G36*
X88071Y-53819D02*
X87792Y-53541D01*
X88015Y-53318D01*
X88293Y-53597D01*
X88071Y-53819D01*
X88071Y-53819D01*
G37*
G36*
X87723Y-52942D02*
X87445Y-52663D01*
X87668Y-52440D01*
X87946Y-52719D01*
X87723Y-52942D01*
X87723Y-52942D01*
G37*
G36*
X87193Y-53472D02*
X86914Y-53194D01*
X87137Y-52971D01*
X87416Y-53249D01*
X87193Y-53472D01*
X87193Y-53472D01*
G37*
G54D12*
X89311Y-57633D03*
X89686Y-56767D03*
X88936Y-56767D03*
G54D13*
X86338Y-54916D03*
X87088Y-54916D03*
G54D14*
X81398Y-60212D03*
X81398Y-59462D03*
G54D13*
X86338Y-54129D03*
X87088Y-54129D03*
G54D14*
X86398Y-60212D03*
X86398Y-59462D03*
X86398Y-57850D03*
X86398Y-57100D03*
X85374Y-60212D03*
X85374Y-59462D03*
X85414Y-57850D03*
X85414Y-57100D03*
X83406Y-60212D03*
X83406Y-59462D03*
X83406Y-57850D03*
X83406Y-57100D03*
X84390Y-60212D03*
X84390Y-59462D03*
X84390Y-57850D03*
X84390Y-57100D03*
X82422Y-60212D03*
X82422Y-59462D03*
X82422Y-57850D03*
X82422Y-57100D03*
X81398Y-57850D03*
X81398Y-57100D03*
X79390Y-60134D03*
X79390Y-59384D03*
X79429Y-57850D03*
X79429Y-57100D03*
X80414Y-60212D03*
X80414Y-59462D03*
X80414Y-57850D03*
X80414Y-57100D03*
X80571Y-50193D03*
X80571Y-49443D03*
G54D15*
X84611Y-53255D03*
G54D16*
X84611Y-54255D03*
X83611Y-53255D03*
X83611Y-54255D03*
X82611Y-53255D03*
X82611Y-54255D03*
X81611Y-53255D03*
X81611Y-54255D03*
G54D10*
G36*
X90640Y-63239D02*
X90120Y-62939D01*
X90420Y-62419D01*
X90940Y-62719D01*
X90640Y-63239D01*
X90640Y-63239D01*
G37*
G54D16*
X91030Y-61963D03*
X91530Y-61097D03*
X92030Y-60231D03*
G54D17*
X79398Y-58700D03*
G54D18*
X80398Y-58700D03*
X81398Y-58700D03*
X82398Y-58700D03*
X83398Y-58700D03*
X84398Y-58700D03*
X85398Y-58700D03*
X86398Y-58700D03*
X87398Y-58700D03*
X88398Y-58700D03*
X88398Y-55700D03*
X87398Y-55700D03*
X86398Y-55700D03*
X85398Y-55700D03*
X84398Y-55700D03*
X83398Y-55700D03*
X82398Y-55700D03*
X81398Y-55700D03*
X80398Y-55700D03*
X79398Y-55700D03*
G54D19*
X81536Y-65566D03*
X91674Y-53558D03*
X75925Y-53558D03*
G54D12*
X81988Y-49326D03*
X81613Y-50192D03*
X82363Y-50192D03*
M02*
