G04 (created by PCBNEW (2013-dec-23)-stable) date Mon 23 Jun 2014 14:09:51 BST*
%MOIN*%
G04 Gerber Fmt 3.4, Leading zero omitted, Abs format*
%FSLAX34Y34*%
G01*
G70*
G90*
G04 APERTURE LIST*
%ADD10C,0.00590551*%
%ADD11R,0.0394X0.0315*%
%ADD12R,0.0315X0.0394*%
%ADD13R,0.035X0.055*%
%ADD14R,0.055X0.035*%
%ADD15R,0.06X0.06*%
%ADD16C,0.06*%
%ADD17R,0.055X0.055*%
%ADD18C,0.055*%
%ADD19C,0.16*%
%ADD20C,0.035*%
%ADD21C,0.0393701*%
%ADD22C,0.01*%
%ADD23C,0.019685*%
G04 APERTURE END LIST*
G54D10*
G54D11*
X83367Y-62711D03*
X84233Y-63086D03*
X84233Y-62336D03*
G54D10*
G36*
X87180Y-61372D02*
X87458Y-61094D01*
X87681Y-61316D01*
X87402Y-61595D01*
X87180Y-61372D01*
X87180Y-61372D01*
G37*
G36*
X88057Y-61025D02*
X88336Y-60746D01*
X88559Y-60969D01*
X88280Y-61248D01*
X88057Y-61025D01*
X88057Y-61025D01*
G37*
G36*
X87527Y-60495D02*
X87805Y-60216D01*
X88028Y-60439D01*
X87750Y-60717D01*
X87527Y-60495D01*
X87527Y-60495D01*
G37*
G36*
X79627Y-60580D02*
X79905Y-60858D01*
X79683Y-61081D01*
X79404Y-60802D01*
X79627Y-60580D01*
X79627Y-60580D01*
G37*
G36*
X79974Y-61457D02*
X80253Y-61736D01*
X80030Y-61959D01*
X79751Y-61680D01*
X79974Y-61457D01*
X79974Y-61457D01*
G37*
G36*
X80504Y-60927D02*
X80783Y-61205D01*
X80560Y-61428D01*
X80282Y-61150D01*
X80504Y-60927D01*
X80504Y-60927D01*
G37*
G54D12*
X78288Y-56767D03*
X77913Y-57633D03*
X78663Y-57633D03*
G54D10*
G36*
X80518Y-52928D02*
X80239Y-53207D01*
X80016Y-52984D01*
X80295Y-52706D01*
X80518Y-52928D01*
X80518Y-52928D01*
G37*
G36*
X79640Y-53276D02*
X79362Y-53554D01*
X79139Y-53331D01*
X79418Y-53053D01*
X79640Y-53276D01*
X79640Y-53276D01*
G37*
G36*
X80171Y-53806D02*
X79892Y-54085D01*
X79669Y-53862D01*
X79948Y-53583D01*
X80171Y-53806D01*
X80171Y-53806D01*
G37*
G54D11*
X84233Y-51688D03*
X83367Y-51313D03*
X83367Y-52063D03*
G54D10*
G36*
X88071Y-53819D02*
X87792Y-53541D01*
X88015Y-53318D01*
X88293Y-53597D01*
X88071Y-53819D01*
X88071Y-53819D01*
G37*
G36*
X87723Y-52942D02*
X87445Y-52663D01*
X87668Y-52440D01*
X87946Y-52719D01*
X87723Y-52942D01*
X87723Y-52942D01*
G37*
G36*
X87193Y-53472D02*
X86914Y-53194D01*
X87137Y-52971D01*
X87416Y-53249D01*
X87193Y-53472D01*
X87193Y-53472D01*
G37*
G54D12*
X89311Y-57633D03*
X89686Y-56767D03*
X88936Y-56767D03*
G54D13*
X86338Y-54916D03*
X87088Y-54916D03*
G54D14*
X81398Y-60212D03*
X81398Y-59462D03*
G54D13*
X86338Y-54129D03*
X87088Y-54129D03*
G54D14*
X86398Y-60212D03*
X86398Y-59462D03*
X86398Y-57850D03*
X86398Y-57100D03*
X85374Y-60212D03*
X85374Y-59462D03*
X85414Y-57850D03*
X85414Y-57100D03*
X83406Y-60212D03*
X83406Y-59462D03*
X83406Y-57850D03*
X83406Y-57100D03*
X84390Y-60212D03*
X84390Y-59462D03*
X84390Y-57850D03*
X84390Y-57100D03*
X82422Y-60212D03*
X82422Y-59462D03*
X82422Y-57850D03*
X82422Y-57100D03*
X81398Y-57850D03*
X81398Y-57100D03*
X79390Y-60134D03*
X79390Y-59384D03*
X79429Y-57850D03*
X79429Y-57100D03*
X80414Y-60212D03*
X80414Y-59462D03*
X80414Y-57850D03*
X80414Y-57100D03*
X80571Y-50193D03*
X80571Y-49443D03*
G54D15*
X84611Y-53255D03*
G54D16*
X84611Y-54255D03*
X83611Y-53255D03*
X83611Y-54255D03*
X82611Y-53255D03*
X82611Y-54255D03*
X81611Y-53255D03*
X81611Y-54255D03*
G54D10*
G36*
X90640Y-63239D02*
X90120Y-62939D01*
X90420Y-62419D01*
X90940Y-62719D01*
X90640Y-63239D01*
X90640Y-63239D01*
G37*
G54D16*
X91030Y-61963D03*
X91530Y-61097D03*
X92030Y-60231D03*
G54D17*
X79398Y-58700D03*
G54D18*
X80398Y-58700D03*
X81398Y-58700D03*
X82398Y-58700D03*
X83398Y-58700D03*
X84398Y-58700D03*
X85398Y-58700D03*
X86398Y-58700D03*
X87398Y-58700D03*
X88398Y-58700D03*
X88398Y-55700D03*
X87398Y-55700D03*
X86398Y-55700D03*
X85398Y-55700D03*
X84398Y-55700D03*
X83398Y-55700D03*
X82398Y-55700D03*
X81398Y-55700D03*
X80398Y-55700D03*
X79398Y-55700D03*
G54D19*
X81536Y-65566D03*
X91674Y-53558D03*
X75925Y-53558D03*
G54D12*
X81988Y-49326D03*
X81613Y-50192D03*
X82363Y-50192D03*
G54D20*
X84600Y-50900D03*
X78300Y-58300D03*
X87100Y-60500D03*
X88319Y-56574D03*
X88200Y-54700D03*
X85300Y-53800D03*
X81600Y-51600D03*
X78700Y-58800D03*
X88000Y-57200D03*
X82100Y-60900D03*
X82900Y-51300D03*
X83000Y-60800D03*
X77500Y-58700D03*
X85650Y-61298D03*
X80449Y-62148D03*
X84973Y-61314D03*
X78937Y-60798D03*
X85126Y-62928D03*
X85996Y-60920D03*
X83500Y-61200D03*
X87900Y-59400D03*
X88800Y-60200D03*
X87300Y-52300D03*
G54D21*
X84600Y-50900D02*
X84600Y-51688D01*
X83926Y-49326D02*
X81988Y-49326D01*
X84600Y-50900D02*
X84600Y-50000D01*
X84600Y-50000D02*
X83926Y-49326D01*
X91030Y-61963D02*
X90095Y-61028D01*
X90095Y-61028D02*
X89128Y-61028D01*
X84611Y-53255D02*
X85464Y-53255D01*
X85464Y-53255D02*
X86338Y-54129D01*
X80267Y-52956D02*
X79855Y-52544D01*
X80013Y-49443D02*
X80571Y-49443D01*
X79855Y-49601D02*
X80013Y-49443D01*
X79855Y-52544D02*
X79855Y-49601D01*
X88043Y-53569D02*
X88618Y-52993D01*
X88618Y-52993D02*
X88618Y-52652D01*
X88618Y-52652D02*
X87654Y-51688D01*
X87654Y-51688D02*
X84600Y-51688D01*
X84600Y-51688D02*
X84579Y-51688D01*
X84233Y-51688D02*
X84579Y-51688D01*
X89311Y-57633D02*
X89311Y-60845D01*
X87398Y-61377D02*
X87430Y-61344D01*
X87902Y-61881D02*
X87398Y-61377D01*
X88276Y-61881D02*
X87902Y-61881D01*
X89311Y-60845D02*
X89128Y-61028D01*
X89128Y-61028D02*
X88276Y-61881D01*
X87430Y-61344D02*
X84988Y-63786D01*
X84988Y-63786D02*
X83748Y-63786D01*
X83748Y-63786D02*
X83367Y-63404D01*
X83367Y-63404D02*
X83367Y-62711D01*
X83367Y-62711D02*
X79551Y-62711D01*
X78839Y-61646D02*
X79655Y-60830D01*
X78839Y-61999D02*
X78839Y-61646D01*
X79551Y-62711D02*
X78839Y-61999D01*
X86398Y-57100D02*
X87070Y-57100D01*
X87398Y-57428D02*
X87398Y-58700D01*
X87070Y-57100D02*
X87398Y-57428D01*
X88398Y-58700D02*
X89311Y-57786D01*
X89311Y-57786D02*
X89311Y-57633D01*
X87398Y-58700D02*
X88398Y-58700D01*
X78288Y-56767D02*
X79096Y-56767D01*
X79096Y-56767D02*
X79429Y-57100D01*
X79429Y-57100D02*
X81398Y-57100D01*
X81398Y-57100D02*
X82422Y-57100D01*
X82422Y-57100D02*
X83406Y-57100D01*
X83406Y-57100D02*
X84390Y-57100D01*
X84390Y-57100D02*
X85414Y-57100D01*
X85414Y-57100D02*
X86398Y-57100D01*
X86398Y-57100D02*
X86398Y-55700D01*
X86338Y-54916D02*
X86338Y-55639D01*
X86338Y-55639D02*
X86398Y-55700D01*
X85398Y-55700D02*
X86398Y-55700D01*
X86338Y-54129D02*
X86338Y-54916D01*
X80571Y-49443D02*
X80688Y-49326D01*
X80688Y-49326D02*
X81988Y-49326D01*
X78663Y-57633D02*
X78663Y-57936D01*
X78663Y-57936D02*
X78300Y-58300D01*
X86976Y-60623D02*
X86976Y-60676D01*
X87100Y-60500D02*
X86976Y-60623D01*
X88936Y-56767D02*
X88743Y-56574D01*
X88743Y-56574D02*
X88319Y-56574D01*
X83367Y-52063D02*
X83566Y-52262D01*
X86206Y-52262D02*
X87165Y-53221D01*
X83566Y-52262D02*
X86206Y-52262D01*
X82363Y-50192D02*
X82363Y-51961D01*
X82363Y-51961D02*
X82465Y-52063D01*
X79920Y-53834D02*
X79398Y-54356D01*
X79398Y-54356D02*
X79398Y-55700D01*
X84233Y-62336D02*
X84233Y-62058D01*
X84233Y-62058D02*
X84004Y-61829D01*
X80532Y-61178D02*
X80878Y-61523D01*
X80878Y-61523D02*
X81184Y-61829D01*
X81184Y-61829D02*
X84004Y-61829D01*
X87186Y-60467D02*
X87778Y-60467D01*
X86976Y-60676D02*
X87186Y-60467D01*
X85823Y-61829D02*
X86976Y-60676D01*
X84004Y-61829D02*
X85823Y-61829D01*
X79920Y-53834D02*
X80090Y-53834D01*
X80090Y-53834D02*
X81862Y-52063D01*
X81862Y-52063D02*
X81895Y-52063D01*
X81895Y-52063D02*
X82465Y-52063D01*
X82465Y-52063D02*
X83367Y-52063D01*
X79429Y-57850D02*
X79429Y-58668D01*
X79390Y-58707D02*
X79390Y-59384D01*
X79429Y-58668D02*
X79390Y-58707D01*
X80414Y-57850D02*
X80414Y-58684D01*
X80414Y-58684D02*
X80414Y-59462D01*
X81398Y-57850D02*
X81398Y-58700D01*
X81398Y-58700D02*
X81398Y-59462D01*
X82422Y-57850D02*
X82422Y-58676D01*
X82422Y-58676D02*
X82422Y-59462D01*
X83406Y-57850D02*
X83406Y-58692D01*
X83406Y-58692D02*
X83406Y-59462D01*
X84390Y-57850D02*
X84390Y-58692D01*
X84390Y-58692D02*
X84390Y-59462D01*
X85414Y-57850D02*
X85414Y-58684D01*
X85374Y-58723D02*
X85374Y-59462D01*
X85414Y-58684D02*
X85374Y-58723D01*
X86398Y-57850D02*
X86398Y-58700D01*
X86398Y-58700D02*
X86398Y-59462D01*
G54D22*
X82611Y-54255D02*
X83066Y-53800D01*
X91530Y-56530D02*
X91530Y-61097D01*
X89700Y-54700D02*
X91530Y-56530D01*
X88200Y-54700D02*
X89700Y-54700D01*
X83066Y-53800D02*
X85300Y-53800D01*
G54D21*
X81613Y-51586D02*
X81613Y-50192D01*
X81600Y-51600D02*
X81613Y-51586D01*
X80571Y-50193D02*
X81142Y-50193D01*
X81142Y-50193D02*
X81612Y-50193D01*
X81612Y-50193D02*
X81613Y-50192D01*
G54D22*
X82611Y-53255D02*
X82099Y-53766D01*
X80398Y-54463D02*
X80398Y-55700D01*
X81095Y-53766D02*
X80398Y-54463D01*
X82099Y-53766D02*
X81095Y-53766D01*
X84611Y-54255D02*
X83966Y-54900D01*
X82398Y-55101D02*
X82398Y-55700D01*
X82600Y-54900D02*
X82398Y-55101D01*
X83966Y-54900D02*
X82600Y-54900D01*
X89686Y-56767D02*
X89253Y-57200D01*
X78834Y-60134D02*
X79390Y-60134D01*
X78700Y-60000D02*
X78834Y-60134D01*
X78700Y-58800D02*
X78700Y-60000D01*
X89253Y-57200D02*
X88000Y-57200D01*
X82100Y-60900D02*
X81700Y-60900D01*
X81700Y-60900D02*
X81398Y-60598D01*
X81398Y-60212D02*
X81398Y-60598D01*
X82913Y-51313D02*
X83367Y-51313D01*
X82913Y-51313D02*
X82900Y-51300D01*
G54D23*
X87088Y-54916D02*
X87398Y-55226D01*
X87398Y-55226D02*
X87398Y-55700D01*
G54D22*
X79390Y-53304D02*
X76800Y-55894D01*
X82422Y-60722D02*
X82422Y-60212D01*
X82600Y-60900D02*
X82422Y-60722D01*
X82900Y-60900D02*
X82600Y-60900D01*
X83000Y-60800D02*
X82900Y-60900D01*
X76800Y-58000D02*
X77500Y-58700D01*
X76800Y-55894D02*
X76800Y-58000D01*
G54D23*
X87088Y-54129D02*
X88398Y-55439D01*
X88398Y-55439D02*
X88398Y-55700D01*
G54D22*
X86398Y-60212D02*
X86682Y-59928D01*
X88520Y-60785D02*
X88308Y-60997D01*
X88520Y-60400D02*
X88520Y-60785D01*
X88048Y-59928D02*
X88520Y-60400D01*
X86682Y-59928D02*
X88048Y-59928D01*
X80002Y-61708D02*
X80009Y-61708D01*
X85476Y-61298D02*
X84390Y-60212D01*
X85650Y-61298D02*
X85476Y-61298D01*
X80009Y-61708D02*
X80449Y-62148D01*
X77913Y-57633D02*
X77913Y-59773D01*
X84507Y-61314D02*
X83406Y-60212D01*
X84973Y-61314D02*
X84507Y-61314D01*
X77913Y-59773D02*
X78937Y-60798D01*
X85374Y-60212D02*
X85374Y-60298D01*
X84968Y-63086D02*
X84233Y-63086D01*
X85126Y-62928D02*
X84968Y-63086D01*
X85374Y-60298D02*
X85996Y-60920D01*
X87695Y-52691D02*
X87691Y-52691D01*
X81501Y-61300D02*
X80414Y-60212D01*
X83400Y-61300D02*
X81501Y-61300D01*
X83500Y-61200D02*
X83400Y-61300D01*
X88000Y-59400D02*
X87900Y-59400D01*
X88800Y-60200D02*
X88000Y-59400D01*
X87691Y-52691D02*
X87300Y-52300D01*
M02*
