G04 (created by PCBNEW (2013-dec-23)-stable) date Mon 23 Jun 2014 14:09:51 BST*
%MOIN*%
G04 Gerber Fmt 3.4, Leading zero omitted, Abs format*
%FSLAX34Y34*%
G01*
G70*
G90*
G04 APERTURE LIST*
%ADD10C,0.00590551*%
%ADD11C,0.011811*%
%ADD12C,0.012*%
%ADD13C,0.01*%
%ADD14C,0.015*%
%ADD15C,0.008*%
%ADD16C,0.01125*%
G04 APERTURE END LIST*
G54D10*
G54D11*
X74280Y-57410D02*
X74365Y-57439D01*
X74505Y-57439D01*
X74562Y-57410D01*
X74590Y-57382D01*
X74618Y-57326D01*
X74618Y-57270D01*
X74590Y-57214D01*
X74562Y-57185D01*
X74505Y-57157D01*
X74393Y-57129D01*
X74337Y-57101D01*
X74308Y-57073D01*
X74280Y-57017D01*
X74280Y-56960D01*
X74308Y-56904D01*
X74337Y-56876D01*
X74393Y-56848D01*
X74533Y-56848D01*
X74618Y-56876D01*
X92883Y-57439D02*
X92883Y-56848D01*
X93220Y-57439D01*
X93220Y-56848D01*
G54D12*
X85111Y-54755D02*
X81111Y-54755D01*
X81111Y-54755D02*
X81111Y-52755D01*
X81111Y-52755D02*
X85111Y-52755D01*
X85111Y-52755D02*
X85111Y-54755D01*
G54D13*
X92713Y-60048D02*
X90713Y-63512D01*
X91847Y-59548D02*
X89847Y-63012D01*
X89847Y-63012D02*
X90713Y-63512D01*
X92713Y-60048D02*
X91847Y-59548D01*
G54D14*
X78398Y-56700D02*
X78898Y-56700D01*
X78898Y-56700D02*
X78898Y-57700D01*
X78898Y-57700D02*
X78398Y-57700D01*
X78398Y-56200D02*
X89398Y-56200D01*
X89398Y-56200D02*
X89398Y-58200D01*
X89398Y-58200D02*
X78398Y-58200D01*
X78398Y-58200D02*
X78398Y-56200D01*
X82436Y-65566D02*
G75*
G03X82436Y-65566I-900J0D01*
G74*
G01*
X92574Y-53558D02*
G75*
G03X92574Y-53558I-900J0D01*
G74*
G01*
X76825Y-53558D02*
G75*
G03X76825Y-53558I-900J0D01*
G74*
G01*
G54D15*
X81323Y-52561D02*
X81323Y-52161D01*
X81476Y-52161D01*
X81514Y-52180D01*
X81533Y-52200D01*
X81552Y-52238D01*
X81552Y-52295D01*
X81533Y-52333D01*
X81514Y-52352D01*
X81476Y-52371D01*
X81323Y-52371D01*
X81933Y-52561D02*
X81704Y-52561D01*
X81819Y-52561D02*
X81819Y-52161D01*
X81780Y-52219D01*
X81742Y-52257D01*
X81704Y-52276D01*
X82180Y-52161D02*
X82219Y-52161D01*
X82257Y-52180D01*
X82276Y-52200D01*
X82295Y-52238D01*
X82314Y-52314D01*
X82314Y-52409D01*
X82295Y-52485D01*
X82276Y-52523D01*
X82257Y-52542D01*
X82219Y-52561D01*
X82180Y-52561D01*
X82142Y-52542D01*
X82123Y-52523D01*
X82104Y-52485D01*
X82085Y-52409D01*
X82085Y-52314D01*
X82104Y-52238D01*
X82123Y-52200D01*
X82142Y-52180D01*
X82180Y-52161D01*
X82695Y-52561D02*
X82466Y-52561D01*
X82580Y-52561D02*
X82580Y-52161D01*
X82542Y-52219D01*
X82504Y-52257D01*
X82466Y-52276D01*
X89233Y-63402D02*
X89433Y-63055D01*
X89565Y-63131D01*
X89588Y-63167D01*
X89595Y-63193D01*
X89593Y-63235D01*
X89564Y-63285D01*
X89529Y-63308D01*
X89503Y-63315D01*
X89460Y-63313D01*
X89328Y-63237D01*
X89761Y-63706D02*
X89563Y-63592D01*
X89662Y-63649D02*
X89862Y-63303D01*
X89800Y-63333D01*
X89748Y-63347D01*
X89706Y-63345D01*
X90175Y-63484D02*
X90208Y-63503D01*
X90232Y-63538D01*
X90239Y-63564D01*
X90236Y-63607D01*
X90215Y-63682D01*
X90167Y-63765D01*
X90112Y-63821D01*
X90077Y-63845D01*
X90051Y-63852D01*
X90008Y-63849D01*
X89975Y-63830D01*
X89952Y-63795D01*
X89945Y-63769D01*
X89947Y-63726D01*
X89969Y-63651D01*
X90017Y-63568D01*
X90071Y-63512D01*
X90107Y-63488D01*
X90133Y-63481D01*
X90175Y-63484D01*
X90404Y-63660D02*
X90430Y-63653D01*
X90472Y-63655D01*
X90555Y-63703D01*
X90578Y-63738D01*
X90585Y-63764D01*
X90583Y-63807D01*
X90563Y-63840D01*
X90518Y-63880D01*
X90206Y-63964D01*
X90421Y-64087D01*
G54D16*
X77483Y-57971D02*
X78050Y-57971D01*
X78116Y-57950D01*
X78150Y-57928D01*
X78183Y-57885D01*
X78183Y-57800D01*
X78150Y-57757D01*
X78116Y-57735D01*
X78050Y-57714D01*
X77483Y-57714D01*
X78183Y-57264D02*
X78183Y-57521D01*
X78183Y-57392D02*
X77483Y-57392D01*
X77583Y-57435D01*
X77650Y-57478D01*
X77683Y-57521D01*
X77483Y-56985D02*
X77483Y-56942D01*
X77516Y-56900D01*
X77550Y-56878D01*
X77616Y-56857D01*
X77750Y-56835D01*
X77916Y-56835D01*
X78050Y-56857D01*
X78116Y-56878D01*
X78150Y-56900D01*
X78183Y-56942D01*
X78183Y-56985D01*
X78150Y-57028D01*
X78116Y-57050D01*
X78050Y-57071D01*
X77916Y-57092D01*
X77750Y-57092D01*
X77616Y-57071D01*
X77550Y-57050D01*
X77516Y-57028D01*
X77483Y-56985D01*
X78183Y-56621D02*
X78183Y-56535D01*
X78150Y-56492D01*
X78116Y-56471D01*
X78016Y-56428D01*
X77883Y-56407D01*
X77616Y-56407D01*
X77550Y-56428D01*
X77516Y-56450D01*
X77483Y-56492D01*
X77483Y-56578D01*
X77516Y-56621D01*
X77550Y-56642D01*
X77616Y-56664D01*
X77783Y-56664D01*
X77850Y-56642D01*
X77883Y-56621D01*
X77916Y-56578D01*
X77916Y-56492D01*
X77883Y-56450D01*
X77850Y-56428D01*
X77783Y-56407D01*
G54D12*
M02*
